%TF.GenerationSoftware,KiCad,Pcbnew,9.0.7*%
%TF.CreationDate,2026-01-19T15:41:53+08:00*%
%TF.ProjectId,mini-ir-blaster,6d696e69-2d69-4722-9d62-6c6173746572,rev?*%
%TF.SameCoordinates,Original*%
%TF.FileFunction,Copper,L2,Bot*%
%TF.FilePolarity,Positive*%
%FSLAX46Y46*%
G04 Gerber Fmt 4.6, Leading zero omitted, Abs format (unit mm)*
G04 Created by KiCad (PCBNEW 9.0.7) date 2026-01-19 15:41:53*
%MOMM*%
%LPD*%
G01*
G04 APERTURE LIST*
G04 Aperture macros list*
%AMRoundRect*
0 Rectangle with rounded corners*
0 $1 Rounding radius*
0 $2 $3 $4 $5 $6 $7 $8 $9 X,Y pos of 4 corners*
0 Add a 4 corners polygon primitive as box body*
4,1,4,$2,$3,$4,$5,$6,$7,$8,$9,$2,$3,0*
0 Add four circle primitives for the rounded corners*
1,1,$1+$1,$2,$3*
1,1,$1+$1,$4,$5*
1,1,$1+$1,$6,$7*
1,1,$1+$1,$8,$9*
0 Add four rect primitives between the rounded corners*
20,1,$1+$1,$2,$3,$4,$5,0*
20,1,$1+$1,$4,$5,$6,$7,0*
20,1,$1+$1,$6,$7,$8,$9,0*
20,1,$1+$1,$8,$9,$2,$3,0*%
G04 Aperture macros list end*
%TA.AperFunction,EtchedComponent*%
%ADD10C,0.000000*%
%TD*%
%TA.AperFunction,SMDPad,CuDef*%
%ADD11RoundRect,0.250000X-1.075000X0.400000X-1.075000X-0.400000X1.075000X-0.400000X1.075000X0.400000X0*%
%TD*%
%TA.AperFunction,SMDPad,CuDef*%
%ADD12RoundRect,0.250000X0.400000X1.075000X-0.400000X1.075000X-0.400000X-1.075000X0.400000X-1.075000X0*%
%TD*%
%TA.AperFunction,SMDPad,CuDef*%
%ADD13RoundRect,0.250000X-0.400000X-1.075000X0.400000X-1.075000X0.400000X1.075000X-0.400000X1.075000X0*%
%TD*%
%TA.AperFunction,SMDPad,CuDef*%
%ADD14RoundRect,0.250000X1.075000X-0.400000X1.075000X0.400000X-1.075000X0.400000X-1.075000X-0.400000X0*%
%TD*%
%TA.AperFunction,SMDPad,CuDef*%
%ADD15R,1.500000X1.000000*%
%TD*%
%TA.AperFunction,ComponentPad*%
%ADD16R,1.700000X1.700000*%
%TD*%
%TA.AperFunction,ComponentPad*%
%ADD17C,1.700000*%
%TD*%
%TA.AperFunction,ComponentPad*%
%ADD18C,1.800000*%
%TD*%
%TA.AperFunction,ComponentPad*%
%ADD19R,1.800000X1.800000*%
%TD*%
%TA.AperFunction,ViaPad*%
%ADD20C,0.600000*%
%TD*%
%TA.AperFunction,Conductor*%
%ADD21C,0.400000*%
%TD*%
G04 APERTURE END LIST*
D10*
%TA.AperFunction,EtchedComponent*%
%TO.C,JP3*%
G36*
X188300000Y-119750000D02*
G01*
X187700000Y-119750000D01*
X187700000Y-119250000D01*
X188300000Y-119250000D01*
X188300000Y-119750000D01*
G37*
%TD.AperFunction*%
%TA.AperFunction,EtchedComponent*%
%TO.C,JP2*%
G36*
X177300000Y-119600000D02*
G01*
X176700000Y-119600000D01*
X176700000Y-119100000D01*
X177300000Y-119100000D01*
X177300000Y-119600000D01*
G37*
%TD.AperFunction*%
%TD*%
D11*
%TO.P,R7,1*%
%TO.N,+5V*%
X185000000Y-104500000D03*
%TO.P,R7,2*%
%TO.N,Net-(D1-A)*%
X185000000Y-107600000D03*
%TD*%
D12*
%TO.P,R6,1*%
%TO.N,GND*%
X190000000Y-110500000D03*
%TO.P,R6,2*%
%TO.N,Net-(Q2-G)*%
X186900000Y-110500000D03*
%TD*%
%TO.P,R5,1*%
%TO.N,/PA1*%
X184000000Y-110500000D03*
%TO.P,R5,2*%
%TO.N,Net-(Q1-G)*%
X180900000Y-110500000D03*
%TD*%
D13*
%TO.P,R4,1*%
%TO.N,/PA2*%
X185000000Y-116000000D03*
%TO.P,R4,2*%
%TO.N,Net-(Q2-G)*%
X188100000Y-116000000D03*
%TD*%
D12*
%TO.P,R3,1*%
%TO.N,Net-(U1-PA3)*%
X182550000Y-116500000D03*
%TO.P,R3,2*%
%TO.N,Net-(D3-A)*%
X179450000Y-116500000D03*
%TD*%
D14*
%TO.P,R2,1*%
%TO.N,+5V*%
X180500000Y-107600000D03*
%TO.P,R2,2*%
%TO.N,Net-(D2-A)*%
X180500000Y-104500000D03*
%TD*%
D12*
%TO.P,R1,1*%
%TO.N,GND*%
X178100000Y-110500000D03*
%TO.P,R1,2*%
%TO.N,Net-(Q1-G)*%
X175000000Y-110500000D03*
%TD*%
D15*
%TO.P,JP3,1,A*%
%TO.N,Net-(JP3-A)*%
X188000000Y-118850000D03*
%TO.P,JP3,2,B*%
%TO.N,GND*%
X188000000Y-120150000D03*
%TD*%
%TO.P,JP2,1,A*%
%TO.N,Net-(JP2-A)*%
X177000000Y-118700000D03*
%TO.P,JP2,2,B*%
%TO.N,GND*%
X177000000Y-120000000D03*
%TD*%
D16*
%TO.P,J1,1,Pin_1*%
%TO.N,/UPDI*%
X179960000Y-119500000D03*
D17*
%TO.P,J1,2,Pin_2*%
%TO.N,+5V*%
X182500000Y-119500000D03*
%TO.P,J1,3,Pin_3*%
%TO.N,GND*%
X185040000Y-119500000D03*
%TD*%
D18*
%TO.P,D2,2,A*%
%TO.N,Net-(D2-A)*%
X177000000Y-104960000D03*
D19*
%TO.P,D2,1,K*%
%TO.N,Net-(D2-K)*%
X177000000Y-107500000D03*
%TD*%
%TO.P,D1,1,K*%
%TO.N,Net-(D1-K)*%
X188000000Y-104960000D03*
D18*
%TO.P,D1,2,A*%
%TO.N,Net-(D1-A)*%
X188000000Y-107500000D03*
%TD*%
D20*
%TO.N,GND*%
X190250000Y-112250000D03*
X177000000Y-112000000D03*
X178500000Y-106500000D03*
X188500000Y-110000000D03*
X175000000Y-117500000D03*
%TO.N,Net-(JP3-A)*%
X180134949Y-113244950D03*
%TO.N,+5V*%
X182500000Y-108125000D03*
%TO.N,Net-(JP2-A)*%
X180054949Y-112335000D03*
%TO.N,/PA1*%
X181010516Y-113915785D03*
%TO.N,Net-(Q2-G)*%
X189000000Y-114000000D03*
%TO.N,/PA2*%
X186500000Y-114500000D03*
%TO.N,Net-(U1-PA3)*%
X183500000Y-112500000D03*
%TO.N,Net-(Q1-G)*%
X176000000Y-113000000D03*
%TO.N,Net-(D3-A)*%
X178000000Y-117000000D03*
%TO.N,/UPDI*%
X183200000Y-113500000D03*
X181800000Y-113500000D03*
%TD*%
D21*
%TO.N,GND*%
X190000000Y-112000000D02*
X190250000Y-112250000D01*
X190000000Y-110500000D02*
X190000000Y-112000000D01*
X178100000Y-110900000D02*
X177000000Y-112000000D01*
X178100000Y-110500000D02*
X178100000Y-110900000D01*
X178500000Y-110100000D02*
X178500000Y-106500000D01*
X178100000Y-110500000D02*
X178500000Y-110100000D01*
X188500000Y-110000000D02*
X189500000Y-110000000D01*
X189500000Y-110000000D02*
X190000000Y-110500000D01*
X175000000Y-119150000D02*
X175000000Y-117500000D01*
X175850000Y-120000000D02*
X175000000Y-119150000D01*
X177000000Y-120000000D02*
X175850000Y-120000000D01*
%TO.N,Net-(JP3-A)*%
X188000000Y-118850000D02*
X187376000Y-118226000D01*
X187376000Y-118226000D02*
X181873420Y-118226000D01*
X181873420Y-118226000D02*
X180500000Y-116852580D01*
X180500000Y-116852580D02*
X180500000Y-114396633D01*
X180500000Y-114396633D02*
X180134949Y-114031582D01*
X180134949Y-114031582D02*
X180134949Y-113244950D01*
%TO.N,Net-(D1-A)*%
X185000000Y-107600000D02*
X187900000Y-107600000D01*
X187900000Y-107600000D02*
X188000000Y-107500000D01*
%TO.N,+5V*%
X181975000Y-107600000D02*
X182500000Y-108125000D01*
X180500000Y-107600000D02*
X181975000Y-107600000D01*
X185000000Y-104500000D02*
X183600000Y-104500000D01*
X183600000Y-104500000D02*
X180500000Y-107600000D01*
%TO.N,Net-(D2-A)*%
X177000000Y-104960000D02*
X180040000Y-104960000D01*
X180040000Y-104960000D02*
X180500000Y-104500000D01*
%TO.N,Net-(JP2-A)*%
X177000000Y-115389949D02*
X180054949Y-112335000D01*
X177000000Y-118700000D02*
X177000000Y-115389949D01*
%TO.N,/PA1*%
X181010516Y-112839484D02*
X181010516Y-113915785D01*
X183350000Y-110500000D02*
X181010516Y-112839484D01*
X184000000Y-110500000D02*
X183350000Y-110500000D01*
%TO.N,Net-(Q2-G)*%
X189000000Y-114000000D02*
X186900000Y-111900000D01*
X186900000Y-111900000D02*
X186900000Y-110500000D01*
X188100000Y-114900000D02*
X189000000Y-114000000D01*
X188100000Y-116000000D02*
X188100000Y-114900000D01*
%TO.N,/PA2*%
X185000000Y-116000000D02*
X186500000Y-114500000D01*
%TO.N,Net-(U1-PA3)*%
X183901000Y-112901000D02*
X183500000Y-112500000D01*
X183901000Y-115149000D02*
X183901000Y-112901000D01*
X182550000Y-116500000D02*
X183901000Y-115149000D01*
%TO.N,Net-(Q1-G)*%
X180900000Y-110500000D02*
X178400000Y-113000000D01*
X178400000Y-113000000D02*
X176000000Y-113000000D01*
X176000000Y-113000000D02*
X176000000Y-111500000D01*
X176000000Y-111500000D02*
X175000000Y-110500000D01*
%TO.N,GND*%
X185040000Y-119500000D02*
X185690000Y-120150000D01*
X185690000Y-120150000D02*
X188000000Y-120150000D01*
X177000000Y-120000000D02*
X177751000Y-120751000D01*
X177751000Y-120751000D02*
X183789000Y-120751000D01*
X183789000Y-120751000D02*
X185040000Y-119500000D01*
%TO.N,Net-(D3-A)*%
X178950000Y-117000000D02*
X179450000Y-116500000D01*
X178000000Y-117000000D02*
X178950000Y-117000000D01*
%TO.N,/UPDI*%
X181800000Y-113500000D02*
X183200000Y-113500000D01*
%TD*%
%TA.AperFunction,Conductor*%
%TO.N,GND*%
G36*
X190692539Y-103770185D02*
G01*
X190738294Y-103822989D01*
X190749500Y-103874500D01*
X190749500Y-108578988D01*
X190729815Y-108646027D01*
X190677011Y-108691782D01*
X190607853Y-108701726D01*
X190586498Y-108696694D01*
X190552704Y-108685496D01*
X190552690Y-108685493D01*
X190449986Y-108675000D01*
X190250000Y-108675000D01*
X190250000Y-112324999D01*
X190449972Y-112324999D01*
X190449986Y-112324998D01*
X190552697Y-112314505D01*
X190586496Y-112303306D01*
X190656324Y-112300904D01*
X190716366Y-112336636D01*
X190747559Y-112399156D01*
X190749500Y-112421012D01*
X190749500Y-121125500D01*
X190729815Y-121192539D01*
X190677011Y-121238294D01*
X190625500Y-121249500D01*
X189156060Y-121249500D01*
X189089021Y-121229815D01*
X189043266Y-121177011D01*
X189033322Y-121107853D01*
X189062347Y-121044297D01*
X189081748Y-121026234D01*
X189107190Y-121007187D01*
X189193350Y-120892093D01*
X189193354Y-120892086D01*
X189243596Y-120757379D01*
X189243598Y-120757372D01*
X189249999Y-120697844D01*
X189250000Y-120697827D01*
X189250000Y-120400000D01*
X186750000Y-120400000D01*
X186750000Y-120697844D01*
X186756401Y-120757372D01*
X186756403Y-120757379D01*
X186806645Y-120892086D01*
X186806649Y-120892093D01*
X186892809Y-121007187D01*
X186918252Y-121026234D01*
X186960122Y-121082168D01*
X186965106Y-121151860D01*
X186931620Y-121213182D01*
X186870297Y-121246667D01*
X186843940Y-121249500D01*
X174374500Y-121249500D01*
X174307461Y-121229815D01*
X174261706Y-121177011D01*
X174250500Y-121125500D01*
X174250500Y-120547844D01*
X175750000Y-120547844D01*
X175756401Y-120607372D01*
X175756403Y-120607379D01*
X175806645Y-120742086D01*
X175806649Y-120742093D01*
X175892809Y-120857187D01*
X175892812Y-120857190D01*
X176007906Y-120943350D01*
X176007913Y-120943354D01*
X176142620Y-120993596D01*
X176142627Y-120993598D01*
X176202155Y-120999999D01*
X176202172Y-121000000D01*
X176750000Y-121000000D01*
X177250000Y-121000000D01*
X177797828Y-121000000D01*
X177797844Y-120999999D01*
X177857372Y-120993598D01*
X177857379Y-120993596D01*
X177992086Y-120943354D01*
X177992093Y-120943350D01*
X178107187Y-120857190D01*
X178107190Y-120857187D01*
X178193350Y-120742093D01*
X178193354Y-120742086D01*
X178243596Y-120607379D01*
X178243598Y-120607372D01*
X178249999Y-120547844D01*
X178250000Y-120547827D01*
X178250000Y-120250000D01*
X177250000Y-120250000D01*
X177250000Y-121000000D01*
X176750000Y-121000000D01*
X176750000Y-120250000D01*
X175750000Y-120250000D01*
X175750000Y-120547844D01*
X174250500Y-120547844D01*
X174250500Y-112421537D01*
X174270185Y-112354498D01*
X174322989Y-112308743D01*
X174392147Y-112298799D01*
X174413496Y-112303829D01*
X174447203Y-112314999D01*
X174549991Y-112325500D01*
X175175500Y-112325499D01*
X175184186Y-112328049D01*
X175193147Y-112326761D01*
X175217183Y-112337738D01*
X175242539Y-112345183D01*
X175248467Y-112352025D01*
X175256703Y-112355786D01*
X175270989Y-112378017D01*
X175288294Y-112397987D01*
X175290581Y-112408502D01*
X175294477Y-112414564D01*
X175299500Y-112449499D01*
X175299500Y-112574684D01*
X175290061Y-112622136D01*
X175230264Y-112766498D01*
X175230261Y-112766510D01*
X175199500Y-112921153D01*
X175199500Y-113078846D01*
X175230261Y-113233489D01*
X175230264Y-113233501D01*
X175290602Y-113379172D01*
X175290609Y-113379185D01*
X175378210Y-113510288D01*
X175378213Y-113510292D01*
X175489707Y-113621786D01*
X175489711Y-113621789D01*
X175620814Y-113709390D01*
X175620827Y-113709397D01*
X175758683Y-113766498D01*
X175766503Y-113769737D01*
X175921153Y-113800499D01*
X175921156Y-113800500D01*
X175921158Y-113800500D01*
X176078844Y-113800500D01*
X176078845Y-113800499D01*
X176233497Y-113769737D01*
X176328794Y-113730264D01*
X176377864Y-113709939D01*
X176425316Y-113700500D01*
X177399430Y-113700500D01*
X177466469Y-113720185D01*
X177512224Y-113772989D01*
X177522168Y-113842147D01*
X177493143Y-113905703D01*
X177487111Y-113912181D01*
X176455890Y-114943400D01*
X176455887Y-114943403D01*
X176406440Y-115017408D01*
X176406439Y-115017409D01*
X176379229Y-115058129D01*
X176379221Y-115058144D01*
X176326421Y-115185616D01*
X176326418Y-115185626D01*
X176299500Y-115320953D01*
X176299500Y-117577648D01*
X176279815Y-117644687D01*
X176227011Y-117690442D01*
X176188755Y-117700938D01*
X176142516Y-117705909D01*
X176007671Y-117756202D01*
X176007664Y-117756206D01*
X175892455Y-117842452D01*
X175892452Y-117842455D01*
X175806206Y-117957664D01*
X175806202Y-117957671D01*
X175755908Y-118092517D01*
X175749782Y-118149500D01*
X175749501Y-118152123D01*
X175749500Y-118152135D01*
X175749500Y-119247870D01*
X175749501Y-119247876D01*
X175755909Y-119307487D01*
X175757692Y-119315031D01*
X175756438Y-119315327D01*
X175760856Y-119377069D01*
X175756864Y-119390664D01*
X175756401Y-119392624D01*
X175750000Y-119452155D01*
X175750000Y-119750000D01*
X178250000Y-119750000D01*
X178250000Y-119452172D01*
X178249999Y-119452155D01*
X178243598Y-119392627D01*
X178241814Y-119385076D01*
X178243459Y-119384687D01*
X178239143Y-119324361D01*
X178244058Y-119307619D01*
X178244091Y-119307481D01*
X178244142Y-119307007D01*
X178250500Y-119247873D01*
X178250499Y-118152128D01*
X178250096Y-118148380D01*
X178262494Y-118079621D01*
X178310099Y-118028479D01*
X178377797Y-118011193D01*
X178444093Y-118033250D01*
X178461065Y-118047433D01*
X178581344Y-118167712D01*
X178646803Y-118208087D01*
X178693528Y-118260035D01*
X178704751Y-118328997D01*
X178680976Y-118387934D01*
X178666205Y-118407665D01*
X178666202Y-118407671D01*
X178615908Y-118542517D01*
X178609501Y-118602116D01*
X178609500Y-118602135D01*
X178609500Y-120397870D01*
X178609501Y-120397876D01*
X178615908Y-120457483D01*
X178666202Y-120592328D01*
X178666206Y-120592335D01*
X178752452Y-120707544D01*
X178752455Y-120707547D01*
X178867664Y-120793793D01*
X178867671Y-120793797D01*
X179002517Y-120844091D01*
X179002516Y-120844091D01*
X179009444Y-120844835D01*
X179062127Y-120850500D01*
X180857872Y-120850499D01*
X180917483Y-120844091D01*
X181052331Y-120793796D01*
X181167546Y-120707546D01*
X181253796Y-120592331D01*
X181302810Y-120460916D01*
X181344681Y-120404984D01*
X181410145Y-120380566D01*
X181478418Y-120395417D01*
X181506673Y-120416569D01*
X181620213Y-120530109D01*
X181792179Y-120655048D01*
X181792181Y-120655049D01*
X181792184Y-120655051D01*
X181981588Y-120751557D01*
X182183757Y-120817246D01*
X182393713Y-120850500D01*
X182393714Y-120850500D01*
X182606286Y-120850500D01*
X182606287Y-120850500D01*
X182816243Y-120817246D01*
X183018412Y-120751557D01*
X183207816Y-120655051D01*
X183262572Y-120615269D01*
X183379786Y-120530109D01*
X183379788Y-120530106D01*
X183379792Y-120530104D01*
X183530104Y-120379792D01*
X183530106Y-120379788D01*
X183530109Y-120379786D01*
X183615890Y-120261717D01*
X183655051Y-120207816D01*
X183659793Y-120198508D01*
X183707763Y-120147711D01*
X183775583Y-120130911D01*
X183841719Y-120153445D01*
X183880763Y-120198500D01*
X183885373Y-120207547D01*
X183924728Y-120261716D01*
X184557036Y-119629407D01*
X184574075Y-119692993D01*
X184639901Y-119807007D01*
X184732993Y-119900099D01*
X184847007Y-119965925D01*
X184910590Y-119982962D01*
X184278282Y-120615269D01*
X184278282Y-120615270D01*
X184332449Y-120654624D01*
X184521782Y-120751095D01*
X184723870Y-120816757D01*
X184933754Y-120850000D01*
X185146246Y-120850000D01*
X185356127Y-120816757D01*
X185356130Y-120816757D01*
X185558217Y-120751095D01*
X185747554Y-120654622D01*
X185801716Y-120615270D01*
X185801717Y-120615270D01*
X185169408Y-119982962D01*
X185232993Y-119965925D01*
X185347007Y-119900099D01*
X185440099Y-119807007D01*
X185505925Y-119692993D01*
X185522962Y-119629409D01*
X186155270Y-120261717D01*
X186155270Y-120261716D01*
X186194622Y-120207554D01*
X186291095Y-120018217D01*
X186356757Y-119816130D01*
X186356757Y-119816127D01*
X186390000Y-119606246D01*
X186390000Y-119393753D01*
X186356757Y-119183872D01*
X186356757Y-119183869D01*
X186325873Y-119088818D01*
X186325069Y-119060698D01*
X186321066Y-119032853D01*
X186324085Y-119026241D01*
X186323878Y-119018977D01*
X186338404Y-118994887D01*
X186350091Y-118969297D01*
X186356204Y-118965367D01*
X186359958Y-118959144D01*
X186385204Y-118946731D01*
X186408869Y-118931523D01*
X186419139Y-118930046D01*
X186422659Y-118928316D01*
X186443804Y-118926500D01*
X186625501Y-118926500D01*
X186692540Y-118946185D01*
X186738295Y-118998989D01*
X186749501Y-119050500D01*
X186749501Y-119397876D01*
X186755909Y-119457487D01*
X186757692Y-119465031D01*
X186756438Y-119465327D01*
X186760856Y-119527069D01*
X186756864Y-119540664D01*
X186756401Y-119542624D01*
X186750000Y-119602155D01*
X186750000Y-119900000D01*
X189250000Y-119900000D01*
X189250000Y-119602172D01*
X189249999Y-119602155D01*
X189243598Y-119542627D01*
X189241814Y-119535076D01*
X189243459Y-119534687D01*
X189239143Y-119474361D01*
X189244058Y-119457619D01*
X189244091Y-119457481D01*
X189246597Y-119434174D01*
X189250500Y-119397873D01*
X189250499Y-118302128D01*
X189244091Y-118242517D01*
X189231249Y-118208087D01*
X189193797Y-118107671D01*
X189193793Y-118107664D01*
X189107547Y-117992455D01*
X189107544Y-117992452D01*
X188992335Y-117906206D01*
X188992329Y-117906203D01*
X188974194Y-117899439D01*
X188918261Y-117857567D01*
X188893844Y-117792102D01*
X188908696Y-117723830D01*
X188952432Y-117677718D01*
X188968656Y-117667712D01*
X189092712Y-117543656D01*
X189184814Y-117394334D01*
X189239999Y-117227797D01*
X189250500Y-117125009D01*
X189250499Y-114874992D01*
X189248874Y-114859089D01*
X189261642Y-114790399D01*
X189309521Y-114739513D01*
X189324769Y-114731930D01*
X189379179Y-114709394D01*
X189510289Y-114621789D01*
X189621789Y-114510289D01*
X189709394Y-114379179D01*
X189769737Y-114233497D01*
X189800500Y-114078842D01*
X189800500Y-113921158D01*
X189800500Y-113921155D01*
X189800499Y-113921153D01*
X189791957Y-113878210D01*
X189769737Y-113766503D01*
X189769735Y-113766498D01*
X189709397Y-113620827D01*
X189709390Y-113620814D01*
X189621789Y-113489711D01*
X189621786Y-113489707D01*
X189510292Y-113378213D01*
X189510288Y-113378210D01*
X189379185Y-113290609D01*
X189379176Y-113290604D01*
X189234812Y-113230807D01*
X189194584Y-113203927D01*
X188611478Y-112620821D01*
X188014050Y-112023394D01*
X187980566Y-111962072D01*
X187984026Y-111896710D01*
X187984812Y-111894336D01*
X187984814Y-111894334D01*
X188039999Y-111727797D01*
X188050500Y-111625009D01*
X188050500Y-111624986D01*
X188850001Y-111624986D01*
X188860494Y-111727697D01*
X188915641Y-111894119D01*
X188915643Y-111894124D01*
X189007684Y-112043345D01*
X189131654Y-112167315D01*
X189280875Y-112259356D01*
X189280880Y-112259358D01*
X189447302Y-112314505D01*
X189447309Y-112314506D01*
X189550019Y-112324999D01*
X189749999Y-112324999D01*
X189750000Y-112324998D01*
X189750000Y-110750000D01*
X188850001Y-110750000D01*
X188850001Y-111624986D01*
X188050500Y-111624986D01*
X188050499Y-110250000D01*
X188050499Y-109375013D01*
X188850000Y-109375013D01*
X188850000Y-110250000D01*
X189750000Y-110250000D01*
X189750000Y-108675000D01*
X189550029Y-108675000D01*
X189550012Y-108675001D01*
X189447302Y-108685494D01*
X189280880Y-108740641D01*
X189280875Y-108740643D01*
X189131654Y-108832684D01*
X189007684Y-108956654D01*
X188915643Y-109105875D01*
X188915641Y-109105880D01*
X188860494Y-109272302D01*
X188860493Y-109272309D01*
X188850000Y-109375013D01*
X188050499Y-109375013D01*
X188050499Y-109374998D01*
X188050498Y-109374981D01*
X188039999Y-109272203D01*
X188039998Y-109272200D01*
X187984814Y-109105666D01*
X187974901Y-109089594D01*
X187956462Y-109022205D01*
X187977384Y-108955541D01*
X188031026Y-108910771D01*
X188080441Y-108900500D01*
X188110221Y-108900500D01*
X188110222Y-108900500D01*
X188327951Y-108866015D01*
X188537606Y-108797895D01*
X188734022Y-108697815D01*
X188912365Y-108568242D01*
X189068242Y-108412365D01*
X189197815Y-108234022D01*
X189297895Y-108037606D01*
X189366015Y-107827951D01*
X189400500Y-107610222D01*
X189400500Y-107389778D01*
X189366015Y-107172049D01*
X189325451Y-107047203D01*
X189297896Y-106962396D01*
X189297895Y-106962393D01*
X189256252Y-106880666D01*
X189197815Y-106765978D01*
X189158305Y-106711597D01*
X189068247Y-106587641D01*
X189068243Y-106587636D01*
X189018071Y-106537464D01*
X188984586Y-106476141D01*
X188989570Y-106406449D01*
X189031442Y-106350516D01*
X189062420Y-106333601D01*
X189142326Y-106303798D01*
X189142326Y-106303797D01*
X189142331Y-106303796D01*
X189257546Y-106217546D01*
X189343796Y-106102331D01*
X189394091Y-105967483D01*
X189400500Y-105907873D01*
X189400499Y-104012128D01*
X189394453Y-103955886D01*
X189394091Y-103952516D01*
X189381155Y-103917833D01*
X189376171Y-103848141D01*
X189409656Y-103786818D01*
X189470980Y-103753334D01*
X189497337Y-103750500D01*
X190625500Y-103750500D01*
X190692539Y-103770185D01*
G37*
%TD.AperFunction*%
%TA.AperFunction,Conductor*%
G36*
X179175777Y-108708046D02*
G01*
X179272203Y-108739999D01*
X179374991Y-108750500D01*
X179813924Y-108750499D01*
X179880962Y-108770183D01*
X179926717Y-108822987D01*
X179936661Y-108892146D01*
X179911191Y-108951407D01*
X179907292Y-108956337D01*
X179815187Y-109105663D01*
X179815185Y-109105668D01*
X179815115Y-109105880D01*
X179760001Y-109272203D01*
X179760001Y-109272204D01*
X179760000Y-109272204D01*
X179749500Y-109374983D01*
X179749500Y-110608479D01*
X179729815Y-110675518D01*
X179713181Y-110696160D01*
X179461680Y-110947660D01*
X179400357Y-110981145D01*
X179330665Y-110976161D01*
X179274732Y-110934289D01*
X179250315Y-110868825D01*
X179249999Y-110859978D01*
X179250000Y-110750000D01*
X176950001Y-110750000D01*
X176950001Y-111624986D01*
X176960494Y-111727697D01*
X177015641Y-111894119D01*
X177015643Y-111894124D01*
X177107684Y-112043345D01*
X177152158Y-112087819D01*
X177185643Y-112149142D01*
X177180659Y-112218834D01*
X177138787Y-112274767D01*
X177073323Y-112299184D01*
X177064477Y-112299500D01*
X176824500Y-112299500D01*
X176757461Y-112279815D01*
X176711706Y-112227011D01*
X176700500Y-112175500D01*
X176700500Y-111431004D01*
X176673581Y-111295677D01*
X176673580Y-111295676D01*
X176673580Y-111295672D01*
X176673578Y-111295667D01*
X176620778Y-111168195D01*
X176620774Y-111168188D01*
X176589094Y-111120775D01*
X176544114Y-111053457D01*
X176544112Y-111053454D01*
X176186818Y-110696160D01*
X176153333Y-110634837D01*
X176150499Y-110608479D01*
X176150499Y-109374998D01*
X176150498Y-109374981D01*
X176139999Y-109272203D01*
X176139998Y-109272200D01*
X176084814Y-109105666D01*
X176074903Y-109089597D01*
X176074901Y-109089594D01*
X176056462Y-109022201D01*
X176077386Y-108955538D01*
X176131029Y-108910769D01*
X176180436Y-108900499D01*
X176920147Y-108900499D01*
X176987185Y-108920184D01*
X177032940Y-108972988D01*
X177042884Y-109042146D01*
X177025685Y-109089595D01*
X177015646Y-109105871D01*
X177015641Y-109105880D01*
X176960494Y-109272302D01*
X176960493Y-109272309D01*
X176950000Y-109375013D01*
X176950000Y-110250000D01*
X179249999Y-110250000D01*
X179249999Y-109375028D01*
X179249998Y-109375013D01*
X179239505Y-109272302D01*
X179184358Y-109105880D01*
X179184356Y-109105875D01*
X179092315Y-108956654D01*
X179049095Y-108913434D01*
X179015610Y-108852111D01*
X179020594Y-108782419D01*
X179062466Y-108726486D01*
X179127930Y-108702069D01*
X179175777Y-108708046D01*
G37*
%TD.AperFunction*%
%TA.AperFunction,Conductor*%
G36*
X181226520Y-105670184D02*
G01*
X181272275Y-105722988D01*
X181282219Y-105792146D01*
X181253194Y-105855702D01*
X181247162Y-105862180D01*
X180696160Y-106413181D01*
X180634837Y-106446666D01*
X180608479Y-106449500D01*
X179374998Y-106449500D01*
X179374981Y-106449501D01*
X179272203Y-106460000D01*
X179272200Y-106460001D01*
X179105668Y-106515185D01*
X179105663Y-106515187D01*
X178956342Y-106607289D01*
X178832289Y-106731342D01*
X178740187Y-106880663D01*
X178740186Y-106880666D01*
X178685001Y-107047203D01*
X178685001Y-107047204D01*
X178685000Y-107047204D01*
X178674500Y-107149983D01*
X178674500Y-108050001D01*
X178674501Y-108050019D01*
X178685000Y-108152796D01*
X178685001Y-108152799D01*
X178711916Y-108234022D01*
X178740186Y-108319334D01*
X178819468Y-108447872D01*
X178832289Y-108468657D01*
X178875634Y-108512002D01*
X178909119Y-108573325D01*
X178904135Y-108643017D01*
X178862263Y-108698950D01*
X178796799Y-108723367D01*
X178748950Y-108717389D01*
X178652700Y-108685495D01*
X178652690Y-108685493D01*
X178549986Y-108675000D01*
X178510205Y-108675000D01*
X178443166Y-108655315D01*
X178397411Y-108602511D01*
X178387467Y-108533353D01*
X178394021Y-108507673D01*
X178394090Y-108507486D01*
X178394091Y-108507483D01*
X178398265Y-108468657D01*
X178400500Y-108447873D01*
X178400499Y-106552128D01*
X178394091Y-106492517D01*
X178387983Y-106476141D01*
X178343797Y-106357671D01*
X178343793Y-106357664D01*
X178257547Y-106242455D01*
X178257544Y-106242452D01*
X178142335Y-106156206D01*
X178142328Y-106156202D01*
X178062419Y-106126398D01*
X178006485Y-106084527D01*
X177982068Y-106019062D01*
X177996920Y-105950789D01*
X178018069Y-105922537D01*
X178068242Y-105872365D01*
X178185034Y-105711613D01*
X178240362Y-105668949D01*
X178285351Y-105660500D01*
X180108995Y-105660500D01*
X180129109Y-105656498D01*
X180147289Y-105652881D01*
X180171482Y-105650499D01*
X181159481Y-105650499D01*
X181226520Y-105670184D01*
G37*
%TD.AperFunction*%
%TD*%
M02*
