%TF.GenerationSoftware,KiCad,Pcbnew,9.0.7*%
%TF.CreationDate,2026-01-19T15:41:53+08:00*%
%TF.ProjectId,mini-ir-blaster,6d696e69-2d69-4722-9d62-6c6173746572,rev?*%
%TF.SameCoordinates,Original*%
%TF.FileFunction,Copper,L1,Top*%
%TF.FilePolarity,Positive*%
%FSLAX46Y46*%
G04 Gerber Fmt 4.6, Leading zero omitted, Abs format (unit mm)*
G04 Created by KiCad (PCBNEW 9.0.7) date 2026-01-19 15:41:53*
%MOMM*%
%LPD*%
G01*
G04 APERTURE LIST*
G04 Aperture macros list*
%AMRoundRect*
0 Rectangle with rounded corners*
0 $1 Rounding radius*
0 $2 $3 $4 $5 $6 $7 $8 $9 X,Y pos of 4 corners*
0 Add a 4 corners polygon primitive as box body*
4,1,4,$2,$3,$4,$5,$6,$7,$8,$9,$2,$3,0*
0 Add four circle primitives for the rounded corners*
1,1,$1+$1,$2,$3*
1,1,$1+$1,$4,$5*
1,1,$1+$1,$6,$7*
1,1,$1+$1,$8,$9*
0 Add four rect primitives between the rounded corners*
20,1,$1+$1,$2,$3,$4,$5,0*
20,1,$1+$1,$4,$5,$6,$7,0*
20,1,$1+$1,$6,$7,$8,$9,0*
20,1,$1+$1,$8,$9,$2,$3,0*%
G04 Aperture macros list end*
%TA.AperFunction,SMDPad,CuDef*%
%ADD10RoundRect,0.150000X-0.825000X-0.150000X0.825000X-0.150000X0.825000X0.150000X-0.825000X0.150000X0*%
%TD*%
%TA.AperFunction,SMDPad,CuDef*%
%ADD11C,1.000000*%
%TD*%
%TA.AperFunction,SMDPad,CuDef*%
%ADD12RoundRect,0.150000X0.150000X-0.587500X0.150000X0.587500X-0.150000X0.587500X-0.150000X-0.587500X0*%
%TD*%
%TA.AperFunction,ComponentPad*%
%ADD13R,1.700000X1.700000*%
%TD*%
%TA.AperFunction,ComponentPad*%
%ADD14C,1.700000*%
%TD*%
%TA.AperFunction,SMDPad,CuDef*%
%ADD15RoundRect,0.250001X-0.624999X0.462499X-0.624999X-0.462499X0.624999X-0.462499X0.624999X0.462499X0*%
%TD*%
%TA.AperFunction,ComponentPad*%
%ADD16C,1.800000*%
%TD*%
%TA.AperFunction,ComponentPad*%
%ADD17R,1.800000X1.800000*%
%TD*%
%TA.AperFunction,SMDPad,CuDef*%
%ADD18RoundRect,0.250000X1.100000X-0.412500X1.100000X0.412500X-1.100000X0.412500X-1.100000X-0.412500X0*%
%TD*%
%TA.AperFunction,ViaPad*%
%ADD19C,0.600000*%
%TD*%
%TA.AperFunction,Conductor*%
%ADD20C,0.400000*%
%TD*%
G04 APERTURE END LIST*
D10*
%TO.P,U1,1,VCC*%
%TO.N,+5V*%
X180025000Y-110595000D03*
%TO.P,U1,2,PA6*%
%TO.N,Net-(JP2-A)*%
X180025000Y-111865000D03*
%TO.P,U1,3,PA7*%
%TO.N,Net-(JP3-A)*%
X180025000Y-113135000D03*
%TO.P,U1,4,PA1*%
%TO.N,/PA1*%
X180025000Y-114405000D03*
%TO.P,U1,5,PA2*%
%TO.N,/PA2*%
X184975000Y-114405000D03*
%TO.P,U1,6,~{RESET}/PA0*%
%TO.N,/UPDI*%
X184975000Y-113135000D03*
%TO.P,U1,7,PA3*%
%TO.N,Net-(U1-PA3)*%
X184975000Y-111865000D03*
%TO.P,U1,8,GND*%
%TO.N,GND*%
X184975000Y-110595000D03*
%TD*%
D11*
%TO.P,TP3,1,1*%
%TO.N,GND*%
X187500000Y-117000000D03*
%TD*%
%TO.P,TP2,1,1*%
%TO.N,+5V*%
X189500000Y-117000000D03*
%TD*%
%TO.P,TP1,1,1*%
%TO.N,Net-(D2-K)*%
X175000000Y-109500000D03*
%TD*%
D12*
%TO.P,Q2,1,G*%
%TO.N,Net-(Q2-G)*%
X188050000Y-113437500D03*
%TO.P,Q2,2,S*%
%TO.N,GND*%
X189950000Y-113437500D03*
%TO.P,Q2,3,D*%
%TO.N,Net-(D1-K)*%
X189000000Y-111562500D03*
%TD*%
%TO.P,Q1,1,G*%
%TO.N,Net-(Q1-G)*%
X175050000Y-113437500D03*
%TO.P,Q1,2,S*%
%TO.N,GND*%
X176950000Y-113437500D03*
%TO.P,Q1,3,D*%
%TO.N,Net-(D2-K)*%
X176000000Y-111562500D03*
%TD*%
D13*
%TO.P,J1,1,Pin_1*%
%TO.N,/UPDI*%
X179960000Y-119500000D03*
D14*
%TO.P,J1,2,Pin_2*%
%TO.N,+5V*%
X182500000Y-119500000D03*
%TO.P,J1,3,Pin_3*%
%TO.N,GND*%
X185040000Y-119500000D03*
%TD*%
D15*
%TO.P,D3,1,K*%
%TO.N,GND*%
X176000000Y-116025000D03*
%TO.P,D3,2,A*%
%TO.N,Net-(D3-A)*%
X176000000Y-119000000D03*
%TD*%
D16*
%TO.P,D2,2,A*%
%TO.N,Net-(D2-A)*%
X177000000Y-104960000D03*
D17*
%TO.P,D2,1,K*%
%TO.N,Net-(D2-K)*%
X177000000Y-107500000D03*
%TD*%
%TO.P,D1,1,K*%
%TO.N,Net-(D1-K)*%
X188000000Y-104960000D03*
D16*
%TO.P,D1,2,A*%
%TO.N,Net-(D1-A)*%
X188000000Y-107500000D03*
%TD*%
D18*
%TO.P,C2,2*%
%TO.N,GND*%
X185000000Y-105000000D03*
%TO.P,C2,1*%
%TO.N,+5V*%
X185000000Y-108125000D03*
%TD*%
%TO.P,C1,1*%
%TO.N,+5V*%
X180000000Y-108125000D03*
%TO.P,C1,2*%
%TO.N,GND*%
X180000000Y-105000000D03*
%TD*%
D19*
%TO.N,GND*%
X190250000Y-112250000D03*
X177000000Y-112000000D03*
X178500000Y-106500000D03*
X188500000Y-110000000D03*
X175000000Y-117500000D03*
%TO.N,Net-(JP3-A)*%
X180134949Y-113244950D03*
%TO.N,+5V*%
X182500000Y-108125000D03*
%TO.N,Net-(JP2-A)*%
X180054949Y-112335000D03*
%TO.N,/PA1*%
X181010516Y-113915785D03*
%TO.N,Net-(Q2-G)*%
X189000000Y-114000000D03*
%TO.N,/PA2*%
X186500000Y-114500000D03*
%TO.N,Net-(U1-PA3)*%
X183500000Y-112500000D03*
%TO.N,Net-(Q1-G)*%
X176000000Y-113000000D03*
%TO.N,Net-(D3-A)*%
X178000000Y-117000000D03*
%TO.N,/UPDI*%
X183200000Y-113500000D03*
X181800000Y-113500000D03*
%TD*%
D20*
%TO.N,GND*%
X190250000Y-112250000D02*
X190250000Y-113137500D01*
X190250000Y-113137500D02*
X189950000Y-113437500D01*
X177000000Y-112000000D02*
X177000000Y-113387500D01*
X177000000Y-113387500D02*
X176950000Y-113437500D01*
X178500000Y-106500000D02*
X180000000Y-105000000D01*
X187905000Y-110595000D02*
X188500000Y-110000000D01*
X184975000Y-110595000D02*
X187905000Y-110595000D01*
X175000000Y-117500000D02*
X175000000Y-117025000D01*
X175000000Y-117025000D02*
X176000000Y-116025000D01*
%TO.N,+5V*%
X180000000Y-108125000D02*
X182500000Y-108125000D01*
%TO.N,Net-(JP2-A)*%
X180054949Y-112335000D02*
X180054949Y-111894949D01*
X180054949Y-111894949D02*
X180025000Y-111865000D01*
%TO.N,/PA1*%
X180514215Y-113915785D02*
X180025000Y-114405000D01*
X181010516Y-113915785D02*
X180514215Y-113915785D01*
%TO.N,Net-(Q2-G)*%
X189000000Y-114000000D02*
X188612500Y-114000000D01*
X188612500Y-114000000D02*
X188050000Y-113437500D01*
%TO.N,/PA2*%
X186500000Y-114500000D02*
X185070000Y-114500000D01*
X185070000Y-114500000D02*
X184975000Y-114405000D01*
%TO.N,Net-(U1-PA3)*%
X183500000Y-112500000D02*
X184135000Y-111865000D01*
X184135000Y-111865000D02*
X184975000Y-111865000D01*
%TO.N,Net-(Q1-G)*%
X175562500Y-113437500D02*
X176000000Y-113000000D01*
X175050000Y-113437500D02*
X175562500Y-113437500D01*
%TO.N,Net-(D3-A)*%
X176000000Y-119000000D02*
X178000000Y-117000000D01*
%TO.N,/UPDI*%
X179960000Y-119500000D02*
X181800000Y-117660000D01*
X181800000Y-117660000D02*
X181800000Y-113500000D01*
X183200000Y-113500000D02*
X184610000Y-113500000D01*
X184610000Y-113500000D02*
X184975000Y-113135000D01*
%TO.N,Net-(D2-K)*%
X176000000Y-111562500D02*
X176000000Y-110500000D01*
X176000000Y-110500000D02*
X175000000Y-109500000D01*
%TO.N,Net-(D1-K)*%
X189000000Y-111562500D02*
X189301000Y-111261500D01*
X189301000Y-111261500D02*
X189301000Y-106261000D01*
X189301000Y-106261000D02*
X188000000Y-104960000D01*
%TO.N,Net-(D2-K)*%
X175000000Y-109500000D02*
X177000000Y-107500000D01*
%TO.N,GND*%
X176950000Y-113437500D02*
X176950000Y-115075000D01*
X176950000Y-115075000D02*
X176000000Y-116025000D01*
X185000000Y-105000000D02*
X180000000Y-105000000D01*
X189950000Y-113437500D02*
X189950000Y-114550000D01*
X189950000Y-114550000D02*
X187500000Y-117000000D01*
X185040000Y-119500000D02*
X185040000Y-119460000D01*
X185040000Y-119460000D02*
X187500000Y-117000000D01*
%TO.N,+5V*%
X182500000Y-119500000D02*
X183751000Y-120751000D01*
X183751000Y-120751000D02*
X185749000Y-120751000D01*
X185749000Y-120751000D02*
X189500000Y-117000000D01*
X182500000Y-108125000D02*
X185000000Y-108125000D01*
X180025000Y-110595000D02*
X180025000Y-108150000D01*
X180025000Y-108150000D02*
X180000000Y-108125000D01*
X182500000Y-119500000D02*
X182500000Y-112095001D01*
X182500000Y-112095001D02*
X180999999Y-110595000D01*
X180999999Y-110595000D02*
X180025000Y-110595000D01*
%TD*%
M02*
