%TF.GenerationSoftware,KiCad,Pcbnew,9.0.7*%
%TF.CreationDate,2026-01-19T15:41:53+08:00*%
%TF.ProjectId,mini-ir-blaster,6d696e69-2d69-4722-9d62-6c6173746572,rev?*%
%TF.SameCoordinates,Original*%
%TF.FileFunction,Legend,Top*%
%TF.FilePolarity,Positive*%
%FSLAX46Y46*%
G04 Gerber Fmt 4.6, Leading zero omitted, Abs format (unit mm)*
G04 Created by KiCad (PCBNEW 9.0.7) date 2026-01-19 15:41:53*
%MOMM*%
%LPD*%
G01*
G04 APERTURE LIST*
%ADD10C,0.150000*%
%ADD11C,0.100000*%
%ADD12C,0.000000*%
%ADD13C,0.120000*%
G04 APERTURE END LIST*
D10*
X185232017Y-120939866D02*
X185165350Y-120906533D01*
X185165350Y-120906533D02*
X185065350Y-120906533D01*
X185065350Y-120906533D02*
X184965350Y-120939866D01*
X184965350Y-120939866D02*
X184898684Y-121006533D01*
X184898684Y-121006533D02*
X184865350Y-121073200D01*
X184865350Y-121073200D02*
X184832017Y-121206533D01*
X184832017Y-121206533D02*
X184832017Y-121306533D01*
X184832017Y-121306533D02*
X184865350Y-121439866D01*
X184865350Y-121439866D02*
X184898684Y-121506533D01*
X184898684Y-121506533D02*
X184965350Y-121573200D01*
X184965350Y-121573200D02*
X185065350Y-121606533D01*
X185065350Y-121606533D02*
X185132017Y-121606533D01*
X185132017Y-121606533D02*
X185232017Y-121573200D01*
X185232017Y-121573200D02*
X185265350Y-121539866D01*
X185265350Y-121539866D02*
X185265350Y-121306533D01*
X185265350Y-121306533D02*
X185132017Y-121306533D01*
X178865350Y-120906533D02*
X178865350Y-121473200D01*
X178865350Y-121473200D02*
X178898684Y-121539866D01*
X178898684Y-121539866D02*
X178932017Y-121573200D01*
X178932017Y-121573200D02*
X178998684Y-121606533D01*
X178998684Y-121606533D02*
X179132017Y-121606533D01*
X179132017Y-121606533D02*
X179198684Y-121573200D01*
X179198684Y-121573200D02*
X179232017Y-121539866D01*
X179232017Y-121539866D02*
X179265350Y-121473200D01*
X179265350Y-121473200D02*
X179265350Y-120906533D01*
X179598683Y-121606533D02*
X179598683Y-120906533D01*
X179598683Y-120906533D02*
X179865350Y-120906533D01*
X179865350Y-120906533D02*
X179932017Y-120939866D01*
X179932017Y-120939866D02*
X179965350Y-120973200D01*
X179965350Y-120973200D02*
X179998683Y-121039866D01*
X179998683Y-121039866D02*
X179998683Y-121139866D01*
X179998683Y-121139866D02*
X179965350Y-121206533D01*
X179965350Y-121206533D02*
X179932017Y-121239866D01*
X179932017Y-121239866D02*
X179865350Y-121273200D01*
X179865350Y-121273200D02*
X179598683Y-121273200D01*
X180298683Y-121606533D02*
X180298683Y-120906533D01*
X180298683Y-120906533D02*
X180465350Y-120906533D01*
X180465350Y-120906533D02*
X180565350Y-120939866D01*
X180565350Y-120939866D02*
X180632017Y-121006533D01*
X180632017Y-121006533D02*
X180665350Y-121073200D01*
X180665350Y-121073200D02*
X180698683Y-121206533D01*
X180698683Y-121206533D02*
X180698683Y-121306533D01*
X180698683Y-121306533D02*
X180665350Y-121439866D01*
X180665350Y-121439866D02*
X180632017Y-121506533D01*
X180632017Y-121506533D02*
X180565350Y-121573200D01*
X180565350Y-121573200D02*
X180465350Y-121606533D01*
X180465350Y-121606533D02*
X180298683Y-121606533D01*
X180998683Y-121606533D02*
X180998683Y-120906533D01*
X182289160Y-121289533D02*
X182898684Y-121289533D01*
X182593922Y-121594295D02*
X182593922Y-120984771D01*
D11*
G36*
X174317416Y-121135129D02*
G01*
X174342355Y-121145473D01*
X174363416Y-121162578D01*
X174379183Y-121184812D01*
X174388916Y-121211535D01*
X174392359Y-121243984D01*
X174388898Y-121276977D01*
X174379148Y-121303960D01*
X174363416Y-121326233D01*
X174342355Y-121343338D01*
X174317416Y-121353682D01*
X174287433Y-121357301D01*
X174195072Y-121357301D01*
X174165090Y-121353681D01*
X174140164Y-121343337D01*
X174119125Y-121326233D01*
X174103372Y-121303958D01*
X174093610Y-121276974D01*
X174090145Y-121243984D01*
X174093592Y-121211537D01*
X174103337Y-121184815D01*
X174119125Y-121162578D01*
X174140164Y-121145474D01*
X174165090Y-121135130D01*
X174195072Y-121131510D01*
X174195072Y-121202841D01*
X174177392Y-121205820D01*
X174164444Y-121214199D01*
X174156059Y-121227030D01*
X174153123Y-121243984D01*
X174156044Y-121261013D01*
X174164444Y-121274209D01*
X174177424Y-121282871D01*
X174195072Y-121285933D01*
X174287433Y-121285933D01*
X174304428Y-121282921D01*
X174317658Y-121274209D01*
X174326369Y-121260980D01*
X174329381Y-121243984D01*
X174326354Y-121227064D01*
X174317658Y-121214199D01*
X174304458Y-121205771D01*
X174287433Y-121202841D01*
X174287433Y-121131510D01*
X174317416Y-121135129D01*
G37*
G36*
X174343748Y-121037267D02*
G01*
X174378743Y-121046306D01*
X174409981Y-121060985D01*
X174437919Y-121081185D01*
X174461317Y-121105929D01*
X174480506Y-121135687D01*
X174494178Y-121168467D01*
X174502697Y-121205682D01*
X174505676Y-121248161D01*
X174502717Y-121290097D01*
X174494217Y-121327214D01*
X174480506Y-121360268D01*
X174461293Y-121390282D01*
X174437892Y-121415152D01*
X174409981Y-121435373D01*
X174378743Y-121450052D01*
X174343748Y-121459091D01*
X174304212Y-121462227D01*
X174178293Y-121462227D01*
X174138732Y-121459089D01*
X174103739Y-121450049D01*
X174072523Y-121435373D01*
X174044615Y-121415151D01*
X174021226Y-121390281D01*
X174002035Y-121360268D01*
X173988304Y-121327212D01*
X173979791Y-121290095D01*
X173976829Y-121248161D01*
X174018814Y-121248161D01*
X174021186Y-121281246D01*
X174027994Y-121310421D01*
X174038964Y-121336308D01*
X174054241Y-121359800D01*
X174072758Y-121379261D01*
X174094762Y-121395073D01*
X174119334Y-121406534D01*
X174146967Y-121413607D01*
X174178293Y-121416065D01*
X174304212Y-121416065D01*
X174335541Y-121413614D01*
X174363317Y-121406547D01*
X174388146Y-121395073D01*
X174410377Y-121379223D01*
X174428894Y-121359760D01*
X174443980Y-121336308D01*
X174454703Y-121310446D01*
X174461367Y-121281268D01*
X174463690Y-121248161D01*
X174461367Y-121215078D01*
X174454704Y-121185912D01*
X174443980Y-121160050D01*
X174428894Y-121136598D01*
X174410377Y-121117135D01*
X174388146Y-121101285D01*
X174363317Y-121089811D01*
X174335541Y-121082744D01*
X174304212Y-121080293D01*
X174178293Y-121080293D01*
X174146967Y-121082751D01*
X174119334Y-121089824D01*
X174094762Y-121101285D01*
X174072758Y-121117097D01*
X174054241Y-121136558D01*
X174038964Y-121160050D01*
X174027993Y-121185937D01*
X174021186Y-121215101D01*
X174018814Y-121248161D01*
X173976829Y-121248161D01*
X173979811Y-121205684D01*
X173988342Y-121168469D01*
X174002035Y-121135687D01*
X174021203Y-121105930D01*
X174044588Y-121081186D01*
X174072523Y-121060985D01*
X174103739Y-121046309D01*
X174138732Y-121037269D01*
X174178293Y-121034131D01*
X174304212Y-121034131D01*
X174343748Y-121037267D01*
G37*
G36*
X174606389Y-120239450D02*
G01*
X174603699Y-120282059D01*
X174596019Y-120319443D01*
X174583748Y-120352363D01*
X174566223Y-120382545D01*
X174544885Y-120407238D01*
X174519524Y-120427065D01*
X174490788Y-120441512D01*
X174458448Y-120450395D01*
X174421705Y-120453480D01*
X174421705Y-120330931D01*
X174443502Y-120328074D01*
X174461542Y-120319875D01*
X174476733Y-120306165D01*
X174487772Y-120288577D01*
X174494767Y-120266715D01*
X174497286Y-120239450D01*
X174494836Y-120212686D01*
X174488101Y-120191695D01*
X174477576Y-120175226D01*
X174463064Y-120162466D01*
X174445848Y-120154814D01*
X174425076Y-120152145D01*
X174400373Y-120155946D01*
X174378511Y-120167276D01*
X174366576Y-120178615D01*
X174357479Y-120193198D01*
X174351217Y-120211716D01*
X174333594Y-120286454D01*
X174318386Y-120332404D01*
X174296685Y-120370161D01*
X174268528Y-120401017D01*
X174243232Y-120419555D01*
X174215880Y-120432687D01*
X174186036Y-120440667D01*
X174153123Y-120443405D01*
X174112716Y-120439801D01*
X174078417Y-120429560D01*
X174049062Y-120413076D01*
X174023833Y-120390099D01*
X174004020Y-120362336D01*
X173989393Y-120329503D01*
X173980124Y-120290624D01*
X173976829Y-120244469D01*
X173980132Y-120198377D01*
X173989453Y-120159271D01*
X174004215Y-120125985D01*
X174024273Y-120097594D01*
X174049785Y-120073908D01*
X174079067Y-120057045D01*
X174112869Y-120046645D01*
X174152281Y-120043005D01*
X174152281Y-120165554D01*
X174131970Y-120168038D01*
X174115635Y-120175052D01*
X174102345Y-120186547D01*
X174092676Y-120201527D01*
X174086516Y-120220473D01*
X174084284Y-120244469D01*
X174086470Y-120267916D01*
X174092487Y-120286294D01*
X174101906Y-120300706D01*
X174114826Y-120311816D01*
X174130237Y-120318513D01*
X174148910Y-120320856D01*
X174170357Y-120317355D01*
X174187142Y-120307311D01*
X174200439Y-120289982D01*
X174210203Y-120262934D01*
X174227825Y-120185704D01*
X174238417Y-120150746D01*
X174253464Y-120120384D01*
X174272932Y-120093992D01*
X174297068Y-120071142D01*
X174324752Y-120052764D01*
X174354975Y-120039600D01*
X174388214Y-120031534D01*
X174425076Y-120028754D01*
X174460704Y-120031729D01*
X174492363Y-120040328D01*
X174520770Y-120054363D01*
X174545866Y-120073623D01*
X174566919Y-120097751D01*
X174584151Y-120127379D01*
X174596170Y-120159710D01*
X174603730Y-120196793D01*
X174606389Y-120239450D01*
G37*
G36*
X174606389Y-119737568D02*
G01*
X174603633Y-119761776D01*
X174595782Y-119781902D01*
X174582905Y-119798860D01*
X174565945Y-119811758D01*
X174545819Y-119819621D01*
X174521613Y-119822381D01*
X174497408Y-119819620D01*
X174477295Y-119811757D01*
X174460356Y-119798860D01*
X174447458Y-119781900D01*
X174439596Y-119761774D01*
X174436836Y-119737568D01*
X174439597Y-119713363D01*
X174447460Y-119693250D01*
X174460356Y-119676311D01*
X174477295Y-119663415D01*
X174497408Y-119655552D01*
X174521613Y-119652791D01*
X174545819Y-119655551D01*
X174565945Y-119663413D01*
X174582905Y-119676311D01*
X174595780Y-119693247D01*
X174603632Y-119713360D01*
X174606389Y-119737568D01*
G37*
G36*
X174598000Y-119131638D02*
G01*
X174459514Y-119161020D01*
X174459514Y-119307090D01*
X174598000Y-119336472D01*
X174598000Y-119464883D01*
X173985219Y-119314637D01*
X173985219Y-119234036D01*
X174098535Y-119234036D01*
X174147262Y-119242866D01*
X174210203Y-119255029D01*
X174358764Y-119286097D01*
X174358764Y-119182855D01*
X174211046Y-119212238D01*
X174147665Y-119224401D01*
X174098535Y-119234036D01*
X173985219Y-119234036D01*
X173985219Y-119155158D01*
X174598000Y-119003227D01*
X174598000Y-119131638D01*
G37*
G36*
X174598000Y-118926950D02*
G01*
X174136307Y-118926950D01*
X174136307Y-118805244D01*
X174220278Y-118805244D01*
X174193902Y-118795838D01*
X174171734Y-118781521D01*
X174153123Y-118762013D01*
X174139339Y-118738770D01*
X174130873Y-118712056D01*
X174127918Y-118681010D01*
X174131014Y-118648279D01*
X174139907Y-118619924D01*
X174154417Y-118595077D01*
X174174922Y-118573152D01*
X174199392Y-118555876D01*
X174227863Y-118543204D01*
X174261084Y-118535230D01*
X174299999Y-118532412D01*
X174598000Y-118532412D01*
X174598000Y-118658332D01*
X174312602Y-118658332D01*
X174289263Y-118660666D01*
X174271047Y-118667098D01*
X174256804Y-118677236D01*
X174246096Y-118690979D01*
X174239440Y-118708122D01*
X174237057Y-118729663D01*
X174239440Y-118751229D01*
X174246096Y-118768397D01*
X174256804Y-118782163D01*
X174271045Y-118792280D01*
X174289260Y-118798700D01*
X174312602Y-118801031D01*
X174598000Y-118801031D01*
X174598000Y-118926950D01*
G37*
G36*
X174598000Y-118180812D02*
G01*
X174595216Y-118215795D01*
X174587356Y-118245316D01*
X174574851Y-118270352D01*
X174557699Y-118291638D01*
X174536415Y-118308774D01*
X174511386Y-118321268D01*
X174481876Y-118329120D01*
X174446911Y-118331901D01*
X174249660Y-118331901D01*
X174249660Y-118456135D01*
X174136307Y-118456135D01*
X174136307Y-118331901D01*
X174006211Y-118331901D01*
X174006211Y-118206018D01*
X174136307Y-118206018D01*
X174136307Y-118025547D01*
X174249660Y-118025547D01*
X174249660Y-118206018D01*
X174442698Y-118206018D01*
X174459862Y-118203488D01*
X174472923Y-118196383D01*
X174481590Y-118184871D01*
X174484683Y-118168246D01*
X174484683Y-118029724D01*
X174598000Y-118029724D01*
X174598000Y-118180812D01*
G37*
G36*
X174457973Y-117524909D02*
G01*
X174490057Y-117533245D01*
X174518682Y-117546782D01*
X174544225Y-117565421D01*
X174565674Y-117588472D01*
X174583308Y-117616428D01*
X174595794Y-117647182D01*
X174603632Y-117682569D01*
X174606389Y-117723443D01*
X174603651Y-117763772D01*
X174595830Y-117799050D01*
X174583308Y-117830055D01*
X174565652Y-117858270D01*
X174544199Y-117881461D01*
X174518682Y-117900141D01*
X174490057Y-117913679D01*
X174457973Y-117922014D01*
X174421705Y-117924907D01*
X174312602Y-117924907D01*
X174276358Y-117922015D01*
X174244286Y-117913680D01*
X174215662Y-117900141D01*
X174190121Y-117881458D01*
X174168657Y-117858268D01*
X174150998Y-117830055D01*
X174138477Y-117799050D01*
X174130656Y-117763772D01*
X174127918Y-117723443D01*
X174237057Y-117723443D01*
X174239435Y-117746774D01*
X174245996Y-117765002D01*
X174256365Y-117779277D01*
X174270443Y-117789829D01*
X174288763Y-117796540D01*
X174312602Y-117798988D01*
X174421705Y-117798988D01*
X174445004Y-117796569D01*
X174463246Y-117789881D01*
X174477576Y-117779277D01*
X174488178Y-117764970D01*
X174494866Y-117746741D01*
X174497286Y-117723443D01*
X174494838Y-117699605D01*
X174488127Y-117681285D01*
X174477576Y-117667206D01*
X174463278Y-117656836D01*
X174445036Y-117650275D01*
X174421705Y-117647899D01*
X174312602Y-117647899D01*
X174288729Y-117650304D01*
X174270411Y-117656888D01*
X174256365Y-117667206D01*
X174246046Y-117681252D01*
X174239462Y-117699571D01*
X174237057Y-117723443D01*
X174127918Y-117723443D01*
X174130675Y-117682569D01*
X174138513Y-117647182D01*
X174150998Y-117616428D01*
X174168635Y-117588475D01*
X174190096Y-117565423D01*
X174215662Y-117546782D01*
X174244286Y-117533243D01*
X174276358Y-117524909D01*
X174312602Y-117522016D01*
X174421705Y-117522016D01*
X174457973Y-117524909D01*
G37*
G36*
X174598000Y-117416357D02*
G01*
X174136307Y-117416357D01*
X174136307Y-117294651D01*
X174220278Y-117294651D01*
X174193902Y-117285245D01*
X174171734Y-117270928D01*
X174153123Y-117251420D01*
X174139339Y-117228176D01*
X174130873Y-117201463D01*
X174127918Y-117170416D01*
X174131014Y-117137686D01*
X174139907Y-117109331D01*
X174154417Y-117084484D01*
X174174922Y-117062559D01*
X174199392Y-117045283D01*
X174227863Y-117032611D01*
X174261084Y-117024637D01*
X174299999Y-117021819D01*
X174598000Y-117021819D01*
X174598000Y-117147739D01*
X174312602Y-117147739D01*
X174289263Y-117150073D01*
X174271047Y-117156505D01*
X174256804Y-117166643D01*
X174246096Y-117180386D01*
X174239440Y-117197529D01*
X174237057Y-117219070D01*
X174239440Y-117240636D01*
X174246096Y-117257804D01*
X174256804Y-117271570D01*
X174271045Y-117281686D01*
X174289260Y-117288107D01*
X174312602Y-117290437D01*
X174598000Y-117290437D01*
X174598000Y-117416357D01*
G37*
G36*
X174598000Y-116909455D02*
G01*
X174484683Y-116909455D01*
X174484683Y-116756681D01*
X174249660Y-116756681D01*
X174249660Y-116892676D01*
X174136307Y-116892676D01*
X174136307Y-116630762D01*
X174484683Y-116630762D01*
X174484683Y-116498138D01*
X174598000Y-116498138D01*
X174598000Y-116909455D01*
G37*
G36*
X174063291Y-116699638D02*
G01*
X174061149Y-116721944D01*
X174055172Y-116739976D01*
X174045669Y-116754630D01*
X174032698Y-116765936D01*
X174017026Y-116772777D01*
X173997822Y-116775183D01*
X173978617Y-116772777D01*
X173962945Y-116765936D01*
X173949974Y-116754630D01*
X173940471Y-116739976D01*
X173934494Y-116721944D01*
X173932352Y-116699638D01*
X173934495Y-116677308D01*
X173940474Y-116659279D01*
X173949974Y-116644647D01*
X173962945Y-116633341D01*
X173978617Y-116626499D01*
X173997822Y-116624094D01*
X174017026Y-116626499D01*
X174032698Y-116633341D01*
X174045669Y-116644647D01*
X174055169Y-116659279D01*
X174061148Y-116677308D01*
X174063291Y-116699638D01*
G37*
G36*
X174457973Y-116014316D02*
G01*
X174490057Y-116022651D01*
X174518682Y-116036189D01*
X174544225Y-116054828D01*
X174565674Y-116077879D01*
X174583308Y-116105835D01*
X174595794Y-116136589D01*
X174603632Y-116171975D01*
X174606389Y-116212850D01*
X174603651Y-116253179D01*
X174595830Y-116288457D01*
X174583308Y-116319462D01*
X174565652Y-116347677D01*
X174544199Y-116370867D01*
X174518682Y-116389548D01*
X174490057Y-116403085D01*
X174457973Y-116411421D01*
X174421705Y-116414314D01*
X174312602Y-116414314D01*
X174276358Y-116411422D01*
X174244286Y-116403087D01*
X174215662Y-116389548D01*
X174190121Y-116370865D01*
X174168657Y-116347675D01*
X174150998Y-116319462D01*
X174138477Y-116288457D01*
X174130656Y-116253179D01*
X174127918Y-116212850D01*
X174237057Y-116212850D01*
X174239435Y-116236181D01*
X174245996Y-116254409D01*
X174256365Y-116268684D01*
X174270443Y-116279236D01*
X174288763Y-116285947D01*
X174312602Y-116288394D01*
X174421705Y-116288394D01*
X174445004Y-116285976D01*
X174463246Y-116279288D01*
X174477576Y-116268684D01*
X174488178Y-116254377D01*
X174494866Y-116236148D01*
X174497286Y-116212850D01*
X174494838Y-116189011D01*
X174488127Y-116170692D01*
X174477576Y-116156613D01*
X174463278Y-116146243D01*
X174445036Y-116139682D01*
X174421705Y-116137306D01*
X174312602Y-116137306D01*
X174288729Y-116139711D01*
X174270411Y-116146294D01*
X174256365Y-116156613D01*
X174246046Y-116170659D01*
X174239462Y-116188977D01*
X174237057Y-116212850D01*
X174127918Y-116212850D01*
X174130675Y-116171975D01*
X174138513Y-116136589D01*
X174150998Y-116105835D01*
X174168635Y-116077882D01*
X174190096Y-116054830D01*
X174215662Y-116036189D01*
X174244286Y-116022650D01*
X174276358Y-116014315D01*
X174312602Y-116011423D01*
X174421705Y-116011423D01*
X174457973Y-116014316D01*
G37*
G36*
X174598000Y-115403075D02*
G01*
X174485526Y-115403075D01*
X174254680Y-115170544D01*
X174229414Y-115150857D01*
X174201476Y-115139252D01*
X174169903Y-115135300D01*
X174147740Y-115137700D01*
X174128959Y-115144574D01*
X174112823Y-115155853D01*
X174100322Y-115170844D01*
X174092781Y-115188611D01*
X174090145Y-115210001D01*
X174092864Y-115231896D01*
X174100672Y-115250226D01*
X174113666Y-115265835D01*
X174130432Y-115277524D01*
X174150287Y-115284705D01*
X174174079Y-115287231D01*
X174174079Y-115413150D01*
X174135665Y-115410063D01*
X174101654Y-115401164D01*
X174071278Y-115386699D01*
X174044052Y-115366879D01*
X174021070Y-115342687D01*
X174002035Y-115313682D01*
X173988278Y-115281734D01*
X173979780Y-115246011D01*
X173976829Y-115205788D01*
X173979555Y-115166626D01*
X173987363Y-115132189D01*
X173999910Y-115101741D01*
X174017506Y-115074016D01*
X174038964Y-115050936D01*
X174064573Y-115032058D01*
X174093213Y-115018240D01*
X174125015Y-115009777D01*
X174160670Y-115006852D01*
X174192685Y-115009167D01*
X174224067Y-115016116D01*
X174255119Y-115027845D01*
X174284205Y-115043913D01*
X174314196Y-115066264D01*
X174345318Y-115095842D01*
X174484683Y-115241912D01*
X174484683Y-115000148D01*
X174598000Y-115000148D01*
X174598000Y-115403075D01*
G37*
G36*
X174306323Y-114645459D02*
G01*
X174319902Y-114650834D01*
X174330663Y-114659466D01*
X174341447Y-114677537D01*
X174345318Y-114702257D01*
X174341492Y-114726351D01*
X174330663Y-114744682D01*
X174319871Y-114753550D01*
X174306290Y-114759050D01*
X174289081Y-114761022D01*
X174271920Y-114759031D01*
X174258661Y-114753521D01*
X174248378Y-114744682D01*
X174238167Y-114726416D01*
X174234530Y-114702257D01*
X174238211Y-114677468D01*
X174248378Y-114659466D01*
X174258629Y-114650864D01*
X174271886Y-114645479D01*
X174289081Y-114643529D01*
X174306323Y-114645459D01*
G37*
G36*
X174457973Y-114503723D02*
G01*
X174490057Y-114512058D01*
X174518682Y-114525596D01*
X174544225Y-114544234D01*
X174565674Y-114567286D01*
X174583308Y-114595242D01*
X174595794Y-114625996D01*
X174603632Y-114661382D01*
X174606389Y-114702257D01*
X174603651Y-114742585D01*
X174595830Y-114777863D01*
X174583308Y-114808869D01*
X174565652Y-114837084D01*
X174544199Y-114860274D01*
X174518682Y-114878954D01*
X174490057Y-114892492D01*
X174457973Y-114900828D01*
X174421705Y-114903721D01*
X174161513Y-114903721D01*
X174125270Y-114900828D01*
X174093198Y-114892494D01*
X174064573Y-114878954D01*
X174039033Y-114860272D01*
X174017569Y-114837081D01*
X173999910Y-114808869D01*
X173987388Y-114777863D01*
X173979567Y-114742585D01*
X173976829Y-114702257D01*
X174085969Y-114702257D01*
X174088449Y-114727827D01*
X174095305Y-114748013D01*
X174106119Y-114763989D01*
X174120849Y-114776128D01*
X174138975Y-114783581D01*
X174161513Y-114786228D01*
X174421705Y-114786228D01*
X174444210Y-114783538D01*
X174462350Y-114775950D01*
X174477136Y-114763550D01*
X174488000Y-114747341D01*
X174494833Y-114727261D01*
X174497286Y-114702257D01*
X174494806Y-114676712D01*
X174487949Y-114656551D01*
X174477136Y-114640598D01*
X174462381Y-114628436D01*
X174444241Y-114620972D01*
X174421705Y-114618323D01*
X174161513Y-114618323D01*
X174138978Y-114620973D01*
X174120852Y-114628438D01*
X174106119Y-114640598D01*
X174095305Y-114656551D01*
X174088449Y-114676712D01*
X174085969Y-114702257D01*
X173976829Y-114702257D01*
X173979586Y-114661382D01*
X173987424Y-114625996D01*
X173999910Y-114595242D01*
X174017546Y-114567289D01*
X174039007Y-114544237D01*
X174064573Y-114525596D01*
X174093198Y-114512057D01*
X174125270Y-114503722D01*
X174161513Y-114500830D01*
X174421705Y-114500830D01*
X174457973Y-114503723D01*
G37*
G36*
X174598000Y-114396013D02*
G01*
X174485526Y-114396013D01*
X174254680Y-114163482D01*
X174229414Y-114143795D01*
X174201476Y-114132190D01*
X174169903Y-114128237D01*
X174147740Y-114130638D01*
X174128959Y-114137512D01*
X174112823Y-114148790D01*
X174100322Y-114163782D01*
X174092781Y-114181549D01*
X174090145Y-114202939D01*
X174092864Y-114224833D01*
X174100672Y-114243164D01*
X174113666Y-114258773D01*
X174130432Y-114270462D01*
X174150287Y-114277642D01*
X174174079Y-114280169D01*
X174174079Y-114406088D01*
X174135665Y-114403001D01*
X174101654Y-114394102D01*
X174071278Y-114379637D01*
X174044052Y-114359817D01*
X174021070Y-114335625D01*
X174002035Y-114306620D01*
X173988278Y-114274672D01*
X173979780Y-114238949D01*
X173976829Y-114198726D01*
X173979555Y-114159564D01*
X173987363Y-114125126D01*
X173999910Y-114094678D01*
X174017506Y-114066954D01*
X174038964Y-114043874D01*
X174064573Y-114024996D01*
X174093213Y-114011178D01*
X174125015Y-114002715D01*
X174160670Y-113999790D01*
X174192685Y-114002105D01*
X174224067Y-114009054D01*
X174255119Y-114020783D01*
X174284205Y-114036850D01*
X174314196Y-114059202D01*
X174345318Y-114088780D01*
X174484683Y-114234849D01*
X174484683Y-113993086D01*
X174598000Y-113993086D01*
X174598000Y-114396013D01*
G37*
G36*
X174451233Y-113485060D02*
G01*
X174490035Y-113496136D01*
X174523408Y-113513946D01*
X174552241Y-113538684D01*
X174575221Y-113568847D01*
X174592043Y-113604259D01*
X174602637Y-113645936D01*
X174606389Y-113695195D01*
X174603355Y-113738245D01*
X174594685Y-113775878D01*
X174580780Y-113808951D01*
X174561230Y-113838838D01*
X174537297Y-113863437D01*
X174508607Y-113883250D01*
X174476584Y-113897382D01*
X174440080Y-113906182D01*
X174398221Y-113909262D01*
X174362431Y-113905687D01*
X174315130Y-113893325D01*
X174266738Y-113874737D01*
X174216065Y-113849654D01*
X173985219Y-113723735D01*
X173985219Y-113580193D01*
X174260541Y-113742199D01*
X174263069Y-113738023D01*
X174244602Y-113721167D01*
X174230353Y-113698162D01*
X174229378Y-113695195D01*
X174311759Y-113695195D01*
X174314804Y-113722104D01*
X174323397Y-113743977D01*
X174337368Y-113761946D01*
X174355841Y-113775341D01*
X174378782Y-113783713D01*
X174407453Y-113786713D01*
X174435547Y-113783723D01*
X174458084Y-113775364D01*
X174476293Y-113761946D01*
X174490006Y-113744010D01*
X174498461Y-113722137D01*
X174501463Y-113695195D01*
X174498462Y-113668277D01*
X174490008Y-113646416D01*
X174476293Y-113628480D01*
X174458084Y-113615063D01*
X174435547Y-113606703D01*
X174407453Y-113603714D01*
X174378782Y-113606713D01*
X174355841Y-113615085D01*
X174337368Y-113628480D01*
X174323395Y-113646449D01*
X174314804Y-113668310D01*
X174311759Y-113695195D01*
X174229378Y-113695195D01*
X174221604Y-113671528D01*
X174218593Y-113641486D01*
X174221950Y-113605390D01*
X174231542Y-113574464D01*
X174247100Y-113547695D01*
X174268968Y-113524396D01*
X174295119Y-113506187D01*
X174325998Y-113492728D01*
X174362505Y-113484197D01*
X174405768Y-113481165D01*
X174451233Y-113485060D01*
G37*
G36*
X185131688Y-117964000D02*
G01*
X184926866Y-117348410D01*
X185100327Y-117348410D01*
X185207794Y-117694258D01*
X185226259Y-117759177D01*
X185236908Y-117821850D01*
X185246922Y-117759177D01*
X185263726Y-117695381D01*
X185368946Y-117348410D01*
X185544654Y-117348410D01*
X185342079Y-117964000D01*
X185131688Y-117964000D01*
G37*
G36*
X185660914Y-117964000D02*
G01*
X185660914Y-117812911D01*
X185866859Y-117812911D01*
X185866859Y-117317098D01*
X185658667Y-117467063D01*
X185658667Y-117281292D01*
X185850055Y-117146958D01*
X186034752Y-117146958D01*
X186034752Y-117812911D01*
X186198150Y-117812911D01*
X186198150Y-117964000D01*
X185660914Y-117964000D01*
G37*
D10*
X181738095Y-110204819D02*
X181738095Y-111014342D01*
X181738095Y-111014342D02*
X181785714Y-111109580D01*
X181785714Y-111109580D02*
X181833333Y-111157200D01*
X181833333Y-111157200D02*
X181928571Y-111204819D01*
X181928571Y-111204819D02*
X182119047Y-111204819D01*
X182119047Y-111204819D02*
X182214285Y-111157200D01*
X182214285Y-111157200D02*
X182261904Y-111109580D01*
X182261904Y-111109580D02*
X182309523Y-111014342D01*
X182309523Y-111014342D02*
X182309523Y-110204819D01*
X183309523Y-111204819D02*
X182738095Y-111204819D01*
X183023809Y-111204819D02*
X183023809Y-110204819D01*
X183023809Y-110204819D02*
X182928571Y-110347676D01*
X182928571Y-110347676D02*
X182833333Y-110442914D01*
X182833333Y-110442914D02*
X182738095Y-110490533D01*
X186954819Y-120511904D02*
X186954819Y-119940476D01*
X187954819Y-120226190D02*
X186954819Y-120226190D01*
X187954819Y-119607142D02*
X186954819Y-119607142D01*
X186954819Y-119607142D02*
X186954819Y-119226190D01*
X186954819Y-119226190D02*
X187002438Y-119130952D01*
X187002438Y-119130952D02*
X187050057Y-119083333D01*
X187050057Y-119083333D02*
X187145295Y-119035714D01*
X187145295Y-119035714D02*
X187288152Y-119035714D01*
X187288152Y-119035714D02*
X187383390Y-119083333D01*
X187383390Y-119083333D02*
X187431009Y-119130952D01*
X187431009Y-119130952D02*
X187478628Y-119226190D01*
X187478628Y-119226190D02*
X187478628Y-119607142D01*
X186954819Y-118702380D02*
X186954819Y-118083333D01*
X186954819Y-118083333D02*
X187335771Y-118416666D01*
X187335771Y-118416666D02*
X187335771Y-118273809D01*
X187335771Y-118273809D02*
X187383390Y-118178571D01*
X187383390Y-118178571D02*
X187431009Y-118130952D01*
X187431009Y-118130952D02*
X187526247Y-118083333D01*
X187526247Y-118083333D02*
X187764342Y-118083333D01*
X187764342Y-118083333D02*
X187859580Y-118130952D01*
X187859580Y-118130952D02*
X187907200Y-118178571D01*
X187907200Y-118178571D02*
X187954819Y-118273809D01*
X187954819Y-118273809D02*
X187954819Y-118559523D01*
X187954819Y-118559523D02*
X187907200Y-118654761D01*
X187907200Y-118654761D02*
X187859580Y-118702380D01*
X188954819Y-120511904D02*
X188954819Y-119940476D01*
X189954819Y-120226190D02*
X188954819Y-120226190D01*
X189954819Y-119607142D02*
X188954819Y-119607142D01*
X188954819Y-119607142D02*
X188954819Y-119226190D01*
X188954819Y-119226190D02*
X189002438Y-119130952D01*
X189002438Y-119130952D02*
X189050057Y-119083333D01*
X189050057Y-119083333D02*
X189145295Y-119035714D01*
X189145295Y-119035714D02*
X189288152Y-119035714D01*
X189288152Y-119035714D02*
X189383390Y-119083333D01*
X189383390Y-119083333D02*
X189431009Y-119130952D01*
X189431009Y-119130952D02*
X189478628Y-119226190D01*
X189478628Y-119226190D02*
X189478628Y-119607142D01*
X189050057Y-118654761D02*
X189002438Y-118607142D01*
X189002438Y-118607142D02*
X188954819Y-118511904D01*
X188954819Y-118511904D02*
X188954819Y-118273809D01*
X188954819Y-118273809D02*
X189002438Y-118178571D01*
X189002438Y-118178571D02*
X189050057Y-118130952D01*
X189050057Y-118130952D02*
X189145295Y-118083333D01*
X189145295Y-118083333D02*
X189240533Y-118083333D01*
X189240533Y-118083333D02*
X189383390Y-118130952D01*
X189383390Y-118130952D02*
X189954819Y-118702380D01*
X189954819Y-118702380D02*
X189954819Y-118083333D01*
X175738095Y-108954819D02*
X176309523Y-108954819D01*
X176023809Y-109954819D02*
X176023809Y-108954819D01*
X176642857Y-109954819D02*
X176642857Y-108954819D01*
X176642857Y-108954819D02*
X177023809Y-108954819D01*
X177023809Y-108954819D02*
X177119047Y-109002438D01*
X177119047Y-109002438D02*
X177166666Y-109050057D01*
X177166666Y-109050057D02*
X177214285Y-109145295D01*
X177214285Y-109145295D02*
X177214285Y-109288152D01*
X177214285Y-109288152D02*
X177166666Y-109383390D01*
X177166666Y-109383390D02*
X177119047Y-109431009D01*
X177119047Y-109431009D02*
X177023809Y-109478628D01*
X177023809Y-109478628D02*
X176642857Y-109478628D01*
X178166666Y-109954819D02*
X177595238Y-109954819D01*
X177880952Y-109954819D02*
X177880952Y-108954819D01*
X177880952Y-108954819D02*
X177785714Y-109097676D01*
X177785714Y-109097676D02*
X177690476Y-109192914D01*
X177690476Y-109192914D02*
X177595238Y-109240533D01*
X187300057Y-112595238D02*
X187252438Y-112690476D01*
X187252438Y-112690476D02*
X187157200Y-112785714D01*
X187157200Y-112785714D02*
X187014342Y-112928571D01*
X187014342Y-112928571D02*
X186966723Y-113023809D01*
X186966723Y-113023809D02*
X186966723Y-113119047D01*
X187204819Y-113071428D02*
X187157200Y-113166666D01*
X187157200Y-113166666D02*
X187061961Y-113261904D01*
X187061961Y-113261904D02*
X186871485Y-113309523D01*
X186871485Y-113309523D02*
X186538152Y-113309523D01*
X186538152Y-113309523D02*
X186347676Y-113261904D01*
X186347676Y-113261904D02*
X186252438Y-113166666D01*
X186252438Y-113166666D02*
X186204819Y-113071428D01*
X186204819Y-113071428D02*
X186204819Y-112880952D01*
X186204819Y-112880952D02*
X186252438Y-112785714D01*
X186252438Y-112785714D02*
X186347676Y-112690476D01*
X186347676Y-112690476D02*
X186538152Y-112642857D01*
X186538152Y-112642857D02*
X186871485Y-112642857D01*
X186871485Y-112642857D02*
X187061961Y-112690476D01*
X187061961Y-112690476D02*
X187157200Y-112785714D01*
X187157200Y-112785714D02*
X187204819Y-112880952D01*
X187204819Y-112880952D02*
X187204819Y-113071428D01*
X186300057Y-112261904D02*
X186252438Y-112214285D01*
X186252438Y-112214285D02*
X186204819Y-112119047D01*
X186204819Y-112119047D02*
X186204819Y-111880952D01*
X186204819Y-111880952D02*
X186252438Y-111785714D01*
X186252438Y-111785714D02*
X186300057Y-111738095D01*
X186300057Y-111738095D02*
X186395295Y-111690476D01*
X186395295Y-111690476D02*
X186490533Y-111690476D01*
X186490533Y-111690476D02*
X186633390Y-111738095D01*
X186633390Y-111738095D02*
X187204819Y-112309523D01*
X187204819Y-112309523D02*
X187204819Y-111690476D01*
X178800057Y-112595238D02*
X178752438Y-112690476D01*
X178752438Y-112690476D02*
X178657200Y-112785714D01*
X178657200Y-112785714D02*
X178514342Y-112928571D01*
X178514342Y-112928571D02*
X178466723Y-113023809D01*
X178466723Y-113023809D02*
X178466723Y-113119047D01*
X178704819Y-113071428D02*
X178657200Y-113166666D01*
X178657200Y-113166666D02*
X178561961Y-113261904D01*
X178561961Y-113261904D02*
X178371485Y-113309523D01*
X178371485Y-113309523D02*
X178038152Y-113309523D01*
X178038152Y-113309523D02*
X177847676Y-113261904D01*
X177847676Y-113261904D02*
X177752438Y-113166666D01*
X177752438Y-113166666D02*
X177704819Y-113071428D01*
X177704819Y-113071428D02*
X177704819Y-112880952D01*
X177704819Y-112880952D02*
X177752438Y-112785714D01*
X177752438Y-112785714D02*
X177847676Y-112690476D01*
X177847676Y-112690476D02*
X178038152Y-112642857D01*
X178038152Y-112642857D02*
X178371485Y-112642857D01*
X178371485Y-112642857D02*
X178561961Y-112690476D01*
X178561961Y-112690476D02*
X178657200Y-112785714D01*
X178657200Y-112785714D02*
X178704819Y-112880952D01*
X178704819Y-112880952D02*
X178704819Y-113071428D01*
X178704819Y-111690476D02*
X178704819Y-112261904D01*
X178704819Y-111976190D02*
X177704819Y-111976190D01*
X177704819Y-111976190D02*
X177847676Y-112071428D01*
X177847676Y-112071428D02*
X177942914Y-112166666D01*
X177942914Y-112166666D02*
X177990533Y-112261904D01*
X175261905Y-117954819D02*
X175261905Y-116954819D01*
X175261905Y-116954819D02*
X175500000Y-116954819D01*
X175500000Y-116954819D02*
X175642857Y-117002438D01*
X175642857Y-117002438D02*
X175738095Y-117097676D01*
X175738095Y-117097676D02*
X175785714Y-117192914D01*
X175785714Y-117192914D02*
X175833333Y-117383390D01*
X175833333Y-117383390D02*
X175833333Y-117526247D01*
X175833333Y-117526247D02*
X175785714Y-117716723D01*
X175785714Y-117716723D02*
X175738095Y-117811961D01*
X175738095Y-117811961D02*
X175642857Y-117907200D01*
X175642857Y-117907200D02*
X175500000Y-117954819D01*
X175500000Y-117954819D02*
X175261905Y-117954819D01*
X176166667Y-116954819D02*
X176785714Y-116954819D01*
X176785714Y-116954819D02*
X176452381Y-117335771D01*
X176452381Y-117335771D02*
X176595238Y-117335771D01*
X176595238Y-117335771D02*
X176690476Y-117383390D01*
X176690476Y-117383390D02*
X176738095Y-117431009D01*
X176738095Y-117431009D02*
X176785714Y-117526247D01*
X176785714Y-117526247D02*
X176785714Y-117764342D01*
X176785714Y-117764342D02*
X176738095Y-117859580D01*
X176738095Y-117859580D02*
X176690476Y-117907200D01*
X176690476Y-117907200D02*
X176595238Y-117954819D01*
X176595238Y-117954819D02*
X176309524Y-117954819D01*
X176309524Y-117954819D02*
X176214286Y-117907200D01*
X176214286Y-117907200D02*
X176166667Y-117859580D01*
X175204819Y-104988094D02*
X174204819Y-104988094D01*
X174204819Y-104988094D02*
X174204819Y-104749999D01*
X174204819Y-104749999D02*
X174252438Y-104607142D01*
X174252438Y-104607142D02*
X174347676Y-104511904D01*
X174347676Y-104511904D02*
X174442914Y-104464285D01*
X174442914Y-104464285D02*
X174633390Y-104416666D01*
X174633390Y-104416666D02*
X174776247Y-104416666D01*
X174776247Y-104416666D02*
X174966723Y-104464285D01*
X174966723Y-104464285D02*
X175061961Y-104511904D01*
X175061961Y-104511904D02*
X175157200Y-104607142D01*
X175157200Y-104607142D02*
X175204819Y-104749999D01*
X175204819Y-104749999D02*
X175204819Y-104988094D01*
X174300057Y-104035713D02*
X174252438Y-103988094D01*
X174252438Y-103988094D02*
X174204819Y-103892856D01*
X174204819Y-103892856D02*
X174204819Y-103654761D01*
X174204819Y-103654761D02*
X174252438Y-103559523D01*
X174252438Y-103559523D02*
X174300057Y-103511904D01*
X174300057Y-103511904D02*
X174395295Y-103464285D01*
X174395295Y-103464285D02*
X174490533Y-103464285D01*
X174490533Y-103464285D02*
X174633390Y-103511904D01*
X174633390Y-103511904D02*
X175204819Y-104083332D01*
X175204819Y-104083332D02*
X175204819Y-103464285D01*
X190954819Y-104988094D02*
X189954819Y-104988094D01*
X189954819Y-104988094D02*
X189954819Y-104749999D01*
X189954819Y-104749999D02*
X190002438Y-104607142D01*
X190002438Y-104607142D02*
X190097676Y-104511904D01*
X190097676Y-104511904D02*
X190192914Y-104464285D01*
X190192914Y-104464285D02*
X190383390Y-104416666D01*
X190383390Y-104416666D02*
X190526247Y-104416666D01*
X190526247Y-104416666D02*
X190716723Y-104464285D01*
X190716723Y-104464285D02*
X190811961Y-104511904D01*
X190811961Y-104511904D02*
X190907200Y-104607142D01*
X190907200Y-104607142D02*
X190954819Y-104749999D01*
X190954819Y-104749999D02*
X190954819Y-104988094D01*
X190954819Y-103464285D02*
X190954819Y-104035713D01*
X190954819Y-103749999D02*
X189954819Y-103749999D01*
X189954819Y-103749999D02*
X190097676Y-103845237D01*
X190097676Y-103845237D02*
X190192914Y-103940475D01*
X190192914Y-103940475D02*
X190240533Y-104035713D01*
X185359580Y-106729166D02*
X185407200Y-106776785D01*
X185407200Y-106776785D02*
X185454819Y-106919642D01*
X185454819Y-106919642D02*
X185454819Y-107014880D01*
X185454819Y-107014880D02*
X185407200Y-107157737D01*
X185407200Y-107157737D02*
X185311961Y-107252975D01*
X185311961Y-107252975D02*
X185216723Y-107300594D01*
X185216723Y-107300594D02*
X185026247Y-107348213D01*
X185026247Y-107348213D02*
X184883390Y-107348213D01*
X184883390Y-107348213D02*
X184692914Y-107300594D01*
X184692914Y-107300594D02*
X184597676Y-107252975D01*
X184597676Y-107252975D02*
X184502438Y-107157737D01*
X184502438Y-107157737D02*
X184454819Y-107014880D01*
X184454819Y-107014880D02*
X184454819Y-106919642D01*
X184454819Y-106919642D02*
X184502438Y-106776785D01*
X184502438Y-106776785D02*
X184550057Y-106729166D01*
X184550057Y-106348213D02*
X184502438Y-106300594D01*
X184502438Y-106300594D02*
X184454819Y-106205356D01*
X184454819Y-106205356D02*
X184454819Y-105967261D01*
X184454819Y-105967261D02*
X184502438Y-105872023D01*
X184502438Y-105872023D02*
X184550057Y-105824404D01*
X184550057Y-105824404D02*
X184645295Y-105776785D01*
X184645295Y-105776785D02*
X184740533Y-105776785D01*
X184740533Y-105776785D02*
X184883390Y-105824404D01*
X184883390Y-105824404D02*
X185454819Y-106395832D01*
X185454819Y-106395832D02*
X185454819Y-105776785D01*
X180359580Y-106729166D02*
X180407200Y-106776785D01*
X180407200Y-106776785D02*
X180454819Y-106919642D01*
X180454819Y-106919642D02*
X180454819Y-107014880D01*
X180454819Y-107014880D02*
X180407200Y-107157737D01*
X180407200Y-107157737D02*
X180311961Y-107252975D01*
X180311961Y-107252975D02*
X180216723Y-107300594D01*
X180216723Y-107300594D02*
X180026247Y-107348213D01*
X180026247Y-107348213D02*
X179883390Y-107348213D01*
X179883390Y-107348213D02*
X179692914Y-107300594D01*
X179692914Y-107300594D02*
X179597676Y-107252975D01*
X179597676Y-107252975D02*
X179502438Y-107157737D01*
X179502438Y-107157737D02*
X179454819Y-107014880D01*
X179454819Y-107014880D02*
X179454819Y-106919642D01*
X179454819Y-106919642D02*
X179502438Y-106776785D01*
X179502438Y-106776785D02*
X179550057Y-106729166D01*
X180454819Y-105776785D02*
X180454819Y-106348213D01*
X180454819Y-106062499D02*
X179454819Y-106062499D01*
X179454819Y-106062499D02*
X179597676Y-106157737D01*
X179597676Y-106157737D02*
X179692914Y-106252975D01*
X179692914Y-106252975D02*
X179740533Y-106348213D01*
D12*
%TO.C,G\u002A\u002A\u002A*%
G36*
X181132333Y-115699724D02*
G01*
X181140039Y-115752208D01*
X181128891Y-115811576D01*
X181102649Y-115826987D01*
X181072965Y-115804692D01*
X181065260Y-115752208D01*
X181076407Y-115692840D01*
X181102649Y-115677429D01*
X181132333Y-115699724D01*
G37*
G36*
X180982775Y-115699724D02*
G01*
X180990480Y-115752208D01*
X180979333Y-115811576D01*
X180953091Y-115826987D01*
X180923407Y-115804692D01*
X180915701Y-115752208D01*
X180926849Y-115692840D01*
X180953091Y-115677429D01*
X180982775Y-115699724D01*
G37*
G36*
X180766143Y-115752208D02*
G01*
X180766143Y-115826987D01*
X180467026Y-115826987D01*
X180167909Y-115826987D01*
X180167909Y-115752208D01*
X180167909Y-115677429D01*
X180467026Y-115677429D01*
X180766143Y-115677429D01*
X180766143Y-115752208D01*
G37*
G36*
X181883488Y-115921719D02*
G01*
X181887831Y-115939156D01*
X181867878Y-115972203D01*
X181850441Y-115976545D01*
X181817394Y-115956593D01*
X181813051Y-115939156D01*
X181833004Y-115906109D01*
X181850441Y-115901766D01*
X181883488Y-115921719D01*
G37*
G36*
X181286270Y-115902156D02*
G01*
X181425798Y-115903580D01*
X181526989Y-115906422D01*
X181595597Y-115911067D01*
X181637380Y-115917897D01*
X181658091Y-115927297D01*
X181663493Y-115939156D01*
X181657652Y-115951397D01*
X181636291Y-115960699D01*
X181593654Y-115967445D01*
X181523987Y-115972019D01*
X181421534Y-115974805D01*
X181280539Y-115976185D01*
X181102649Y-115976545D01*
X180919028Y-115976156D01*
X180779500Y-115974732D01*
X180678310Y-115971890D01*
X180609701Y-115967245D01*
X180567919Y-115960415D01*
X180547207Y-115951015D01*
X180541805Y-115939156D01*
X180547646Y-115926914D01*
X180569007Y-115917613D01*
X180611644Y-115910867D01*
X180681311Y-115906293D01*
X180783764Y-115903507D01*
X180924759Y-115902126D01*
X181102649Y-115901766D01*
X181286270Y-115902156D01*
G37*
G36*
X179472140Y-115235535D02*
G01*
X179482483Y-115260501D01*
X179489227Y-115310580D01*
X179493066Y-115392700D01*
X179494693Y-115513793D01*
X179494896Y-115602649D01*
X179494218Y-115748985D01*
X179491722Y-115852410D01*
X179486714Y-115919854D01*
X179478502Y-115958246D01*
X179466393Y-115974515D01*
X179457507Y-115976545D01*
X179442873Y-115969763D01*
X179432531Y-115944798D01*
X179425786Y-115894719D01*
X179421947Y-115812599D01*
X179420320Y-115691506D01*
X179420117Y-115602649D01*
X179420795Y-115456314D01*
X179423292Y-115352888D01*
X179428300Y-115285445D01*
X179436512Y-115247053D01*
X179448621Y-115230784D01*
X179457507Y-115228754D01*
X179472140Y-115235535D01*
G37*
G36*
X179490553Y-116146057D02*
G01*
X179494896Y-116163493D01*
X179474944Y-116196540D01*
X179457507Y-116200883D01*
X179424460Y-116180930D01*
X179420117Y-116163493D01*
X179440070Y-116130447D01*
X179457507Y-116126104D01*
X179490553Y-116146057D01*
G37*
G36*
X179714891Y-115697381D02*
G01*
X179719234Y-115714818D01*
X179741529Y-115744502D01*
X179794013Y-115752208D01*
X179853381Y-115763355D01*
X179868792Y-115789597D01*
X179888745Y-115822644D01*
X179906182Y-115826987D01*
X179939229Y-115846940D01*
X179943572Y-115864377D01*
X179963524Y-115897423D01*
X179980961Y-115901766D01*
X180014008Y-115921719D01*
X180018351Y-115939156D01*
X180038304Y-115972203D01*
X180055740Y-115976545D01*
X180088787Y-115996498D01*
X180093130Y-116013935D01*
X180113083Y-116046982D01*
X180130520Y-116051325D01*
X180163566Y-116071277D01*
X180167909Y-116088714D01*
X180187862Y-116121761D01*
X180205299Y-116126104D01*
X180238345Y-116146057D01*
X180242688Y-116163493D01*
X180262641Y-116196540D01*
X180280078Y-116200883D01*
X180304722Y-116215563D01*
X180315947Y-116265477D01*
X180317468Y-116313052D01*
X180312574Y-116386984D01*
X180295936Y-116420660D01*
X180280078Y-116425221D01*
X180250394Y-116402926D01*
X180242688Y-116350441D01*
X180231541Y-116291074D01*
X180205299Y-116275662D01*
X180172252Y-116255709D01*
X180167909Y-116238273D01*
X180147956Y-116205226D01*
X180130520Y-116200883D01*
X180097473Y-116180930D01*
X180093130Y-116163493D01*
X180073177Y-116130447D01*
X180055740Y-116126104D01*
X180022694Y-116106151D01*
X180018351Y-116088714D01*
X179998398Y-116055668D01*
X179980961Y-116051325D01*
X179947915Y-116031372D01*
X179943572Y-116013935D01*
X179923619Y-115980888D01*
X179906182Y-115976545D01*
X179873135Y-115956593D01*
X179868792Y-115939156D01*
X179848840Y-115906109D01*
X179831403Y-115901766D01*
X179798356Y-115881813D01*
X179794013Y-115864377D01*
X179771718Y-115834693D01*
X179719234Y-115826987D01*
X179666268Y-115820811D01*
X179646746Y-115791676D01*
X179644455Y-115752208D01*
X179655602Y-115692840D01*
X179681844Y-115677429D01*
X179714891Y-115697381D01*
G37*
G36*
X179262853Y-115699724D02*
G01*
X179270559Y-115752208D01*
X179264382Y-115805174D01*
X179235248Y-115824696D01*
X179195780Y-115826987D01*
X179136412Y-115838134D01*
X179121000Y-115864377D01*
X179098706Y-115894060D01*
X179046221Y-115901766D01*
X178993255Y-115907943D01*
X178973733Y-115937077D01*
X178971442Y-115976545D01*
X178960295Y-116035913D01*
X178934052Y-116051325D01*
X178901006Y-116071277D01*
X178896663Y-116088714D01*
X178874368Y-116118398D01*
X178821884Y-116126104D01*
X178775901Y-116129355D01*
X178754122Y-116148130D01*
X178747527Y-116195956D01*
X178747104Y-116238273D01*
X178742211Y-116312205D01*
X178725573Y-116345881D01*
X178709715Y-116350441D01*
X178676668Y-116370394D01*
X178672325Y-116387831D01*
X178652372Y-116420878D01*
X178634936Y-116425221D01*
X178610292Y-116410541D01*
X178599066Y-116360627D01*
X178597546Y-116313052D01*
X178602439Y-116239120D01*
X178619077Y-116205444D01*
X178634936Y-116200883D01*
X178664619Y-116178588D01*
X178672325Y-116126104D01*
X178678502Y-116073138D01*
X178707636Y-116053616D01*
X178747104Y-116051325D01*
X178806472Y-116040177D01*
X178821884Y-116013935D01*
X178841836Y-115980888D01*
X178859273Y-115976545D01*
X178888957Y-115954251D01*
X178896663Y-115901766D01*
X178902839Y-115848800D01*
X178931974Y-115829278D01*
X178971442Y-115826987D01*
X179030810Y-115815840D01*
X179046221Y-115789597D01*
X179068516Y-115759914D01*
X179121000Y-115752208D01*
X179180368Y-115741060D01*
X179195780Y-115714818D01*
X179215732Y-115681772D01*
X179233169Y-115677429D01*
X179262853Y-115699724D01*
G37*
G36*
X179080888Y-115454548D02*
G01*
X179149060Y-115459866D01*
X179184478Y-115470464D01*
X179195661Y-115487764D01*
X179195780Y-115490481D01*
X179184294Y-115512191D01*
X179143577Y-115523847D01*
X179064241Y-115527797D01*
X179046221Y-115527870D01*
X178959379Y-115530742D01*
X178912755Y-115540921D01*
X178896958Y-115560755D01*
X178896663Y-115565260D01*
X178876710Y-115598307D01*
X178859273Y-115602649D01*
X178826227Y-115622602D01*
X178821884Y-115640039D01*
X178801931Y-115673086D01*
X178784494Y-115677429D01*
X178751447Y-115697381D01*
X178747104Y-115714818D01*
X178727152Y-115747865D01*
X178709715Y-115752208D01*
X178676668Y-115772161D01*
X178672325Y-115789597D01*
X178650030Y-115819281D01*
X178597546Y-115826987D01*
X178538178Y-115838134D01*
X178522767Y-115864377D01*
X178502814Y-115897423D01*
X178485377Y-115901766D01*
X178455693Y-115924061D01*
X178447988Y-115976545D01*
X178441811Y-116029512D01*
X178412677Y-116049034D01*
X178373208Y-116051325D01*
X178298429Y-116051325D01*
X178298429Y-116238273D01*
X178296471Y-116336883D01*
X178289393Y-116394766D01*
X178275393Y-116420937D01*
X178261040Y-116425221D01*
X178242799Y-116416478D01*
X178231437Y-116384571D01*
X178225534Y-116320980D01*
X178223670Y-116217186D01*
X178223650Y-116200883D01*
X178225107Y-116091438D01*
X178230425Y-116023265D01*
X178241023Y-115987847D01*
X178258323Y-115976664D01*
X178261040Y-115976545D01*
X178290724Y-115954251D01*
X178298429Y-115901766D01*
X178304606Y-115848800D01*
X178333740Y-115829278D01*
X178373208Y-115826987D01*
X178432576Y-115815840D01*
X178447988Y-115789597D01*
X178467940Y-115756551D01*
X178485377Y-115752208D01*
X178518424Y-115732255D01*
X178522767Y-115714818D01*
X178545062Y-115685134D01*
X178597546Y-115677429D01*
X178650512Y-115671252D01*
X178670034Y-115642118D01*
X178672325Y-115602649D01*
X178683473Y-115543282D01*
X178709715Y-115527870D01*
X178742762Y-115507918D01*
X178747104Y-115490481D01*
X178755847Y-115472240D01*
X178787754Y-115460878D01*
X178851345Y-115454975D01*
X178955139Y-115453111D01*
X178971442Y-115453091D01*
X179080888Y-115454548D01*
G37*
G36*
X180766143Y-116574779D02*
G01*
X180766143Y-116649558D01*
X180429636Y-116649558D01*
X180093130Y-116649558D01*
X180093130Y-116574779D01*
X180093130Y-116500000D01*
X180429636Y-116500000D01*
X180766143Y-116500000D01*
X180766143Y-116574779D01*
G37*
G36*
X179921758Y-116506176D02*
G01*
X179941281Y-116535311D01*
X179943572Y-116574779D01*
X179937395Y-116627745D01*
X179908261Y-116647267D01*
X179868792Y-116649558D01*
X179815826Y-116643382D01*
X179796304Y-116614247D01*
X179794013Y-116574779D01*
X179800190Y-116521813D01*
X179829324Y-116502291D01*
X179868792Y-116500000D01*
X179921758Y-116506176D01*
G37*
G36*
X179099187Y-116506176D02*
G01*
X179118710Y-116535311D01*
X179121000Y-116574779D01*
X179114824Y-116627745D01*
X179085689Y-116647267D01*
X179046221Y-116649558D01*
X178993255Y-116643382D01*
X178973733Y-116614247D01*
X178971442Y-116574779D01*
X178977618Y-116521813D01*
X179006753Y-116502291D01*
X179046221Y-116500000D01*
X179099187Y-116506176D01*
G37*
G36*
X178896663Y-116574779D02*
G01*
X178896663Y-116649558D01*
X178447988Y-116649558D01*
X177999313Y-116649558D01*
X177999313Y-116574779D01*
X177999313Y-116500000D01*
X178447988Y-116500000D01*
X178896663Y-116500000D01*
X178896663Y-116574779D01*
G37*
G36*
X179487191Y-116372736D02*
G01*
X179494896Y-116425221D01*
X179501073Y-116478187D01*
X179530207Y-116497709D01*
X179569676Y-116500000D01*
X179622642Y-116506176D01*
X179642164Y-116535311D01*
X179644455Y-116574779D01*
X179638278Y-116627745D01*
X179609144Y-116647267D01*
X179569676Y-116649558D01*
X179523693Y-116652810D01*
X179501914Y-116671584D01*
X179495319Y-116719410D01*
X179494896Y-116761727D01*
X179490003Y-116835659D01*
X179473365Y-116869335D01*
X179457507Y-116873896D01*
X179432863Y-116859216D01*
X179421638Y-116809302D01*
X179420117Y-116761727D01*
X179417949Y-116692753D01*
X179405433Y-116660084D01*
X179373549Y-116650192D01*
X179345338Y-116649558D01*
X179292372Y-116643382D01*
X179272850Y-116614247D01*
X179270559Y-116574779D01*
X179276735Y-116521813D01*
X179305870Y-116502291D01*
X179345338Y-116500000D01*
X179398304Y-116493823D01*
X179417826Y-116464689D01*
X179420117Y-116425221D01*
X179431265Y-116365853D01*
X179457507Y-116350441D01*
X179487191Y-116372736D01*
G37*
G36*
X185434038Y-116203051D02*
G01*
X185466706Y-116215567D01*
X185476598Y-116247451D01*
X185477232Y-116275662D01*
X185488379Y-116335030D01*
X185514622Y-116350441D01*
X185547668Y-116370394D01*
X185552011Y-116387831D01*
X185571964Y-116420878D01*
X185589401Y-116425221D01*
X185619085Y-116447515D01*
X185626790Y-116500000D01*
X185637938Y-116559367D01*
X185664180Y-116574779D01*
X185697227Y-116594732D01*
X185701570Y-116612169D01*
X185721522Y-116645215D01*
X185738959Y-116649558D01*
X185757200Y-116640816D01*
X185768562Y-116608909D01*
X185774465Y-116545318D01*
X185776329Y-116441523D01*
X185776349Y-116425221D01*
X185776349Y-116200883D01*
X185888518Y-116200883D01*
X186000686Y-116200883D01*
X186000686Y-116612169D01*
X186000686Y-117023454D01*
X185888518Y-117023454D01*
X185819543Y-117021286D01*
X185786875Y-117008770D01*
X185776983Y-116976886D01*
X185776349Y-116948675D01*
X185770172Y-116895709D01*
X185741038Y-116876187D01*
X185701570Y-116873896D01*
X185642202Y-116862748D01*
X185626790Y-116836506D01*
X185606838Y-116803460D01*
X185589401Y-116799117D01*
X185559717Y-116776822D01*
X185552011Y-116724337D01*
X185540864Y-116664970D01*
X185514622Y-116649558D01*
X185481575Y-116629605D01*
X185477232Y-116612169D01*
X185457279Y-116579122D01*
X185439842Y-116574779D01*
X185421602Y-116583521D01*
X185410240Y-116615428D01*
X185404336Y-116679019D01*
X185402473Y-116782814D01*
X185402453Y-116799117D01*
X185402453Y-117023454D01*
X185327674Y-117023454D01*
X185252894Y-117023454D01*
X185252894Y-116612169D01*
X185252894Y-116200883D01*
X185365063Y-116200883D01*
X185434038Y-116203051D01*
G37*
G36*
X185028557Y-116275662D02*
G01*
X185039704Y-116335030D01*
X185065946Y-116350441D01*
X185081266Y-116357540D01*
X185091854Y-116383674D01*
X185098518Y-116436099D01*
X185102063Y-116522071D01*
X185103295Y-116648845D01*
X185103336Y-116686948D01*
X185103336Y-117023454D01*
X184991167Y-117023454D01*
X184878998Y-117023454D01*
X184878998Y-116911285D01*
X184878998Y-116799117D01*
X184729440Y-116799117D01*
X184579882Y-116799117D01*
X184579882Y-116911285D01*
X184579882Y-117023454D01*
X184467713Y-117023454D01*
X184355544Y-117023454D01*
X184355544Y-116686948D01*
X184356186Y-116574779D01*
X184579882Y-116574779D01*
X184729440Y-116574779D01*
X184878998Y-116574779D01*
X184878998Y-116500000D01*
X184878998Y-116425221D01*
X184729440Y-116425221D01*
X184579882Y-116425221D01*
X184579882Y-116500000D01*
X184579882Y-116574779D01*
X184356186Y-116574779D01*
X184356333Y-116549073D01*
X184357828Y-116500000D01*
X184359237Y-116453777D01*
X184365062Y-116393806D01*
X184374614Y-116361903D01*
X184388700Y-116350813D01*
X184392934Y-116350441D01*
X184422618Y-116328147D01*
X184430323Y-116275662D01*
X184430323Y-116200883D01*
X184729440Y-116200883D01*
X185028557Y-116200883D01*
X185028557Y-116275662D01*
G37*
G36*
X184280765Y-116313052D02*
G01*
X184280765Y-116425221D01*
X184056427Y-116425221D01*
X183832090Y-116425221D01*
X183832090Y-116612169D01*
X183832090Y-116799117D01*
X184056427Y-116799117D01*
X184280765Y-116799117D01*
X184280765Y-116911285D01*
X184280765Y-117023454D01*
X184019038Y-117023454D01*
X183757311Y-117023454D01*
X183757311Y-116948675D01*
X183751134Y-116895709D01*
X183721999Y-116876187D01*
X183682531Y-116873896D01*
X183607752Y-116873896D01*
X183607752Y-116574779D01*
X183607752Y-116275662D01*
X183682531Y-116275662D01*
X183741899Y-116264515D01*
X183757311Y-116238273D01*
X183765334Y-116221198D01*
X183794771Y-116210091D01*
X183853669Y-116203801D01*
X183950075Y-116201179D01*
X184019038Y-116200883D01*
X184280765Y-116200883D01*
X184280765Y-116313052D01*
G37*
G36*
X183532973Y-116313052D02*
G01*
X183532973Y-116425221D01*
X183308635Y-116425221D01*
X183199190Y-116426678D01*
X183131018Y-116431996D01*
X183095600Y-116442594D01*
X183084416Y-116459893D01*
X183084298Y-116462610D01*
X183094091Y-116482332D01*
X183129480Y-116493909D01*
X183199481Y-116499143D01*
X183271246Y-116500000D01*
X183369856Y-116501958D01*
X183427739Y-116509036D01*
X183453910Y-116523036D01*
X183458194Y-116537389D01*
X183478147Y-116570436D01*
X183495583Y-116574779D01*
X183517294Y-116586265D01*
X183528950Y-116626981D01*
X183532899Y-116706317D01*
X183532973Y-116724337D01*
X183530101Y-116811179D01*
X183519922Y-116857804D01*
X183500088Y-116873601D01*
X183495583Y-116873896D01*
X183465900Y-116896191D01*
X183458194Y-116948675D01*
X183458194Y-117023454D01*
X183159077Y-117023454D01*
X182859960Y-117023454D01*
X182859960Y-116911285D01*
X182859960Y-116799117D01*
X183084298Y-116799117D01*
X183193743Y-116797660D01*
X183261915Y-116792342D01*
X183297333Y-116781743D01*
X183308517Y-116764444D01*
X183308635Y-116761727D01*
X183298842Y-116742005D01*
X183263453Y-116730428D01*
X183193452Y-116725194D01*
X183121687Y-116724337D01*
X182934739Y-116724337D01*
X182934739Y-116649558D01*
X182923592Y-116590191D01*
X182897350Y-116574779D01*
X182872706Y-116560099D01*
X182861480Y-116510185D01*
X182859960Y-116462610D01*
X182864853Y-116388678D01*
X182881491Y-116355002D01*
X182897350Y-116350441D01*
X182927034Y-116328147D01*
X182934739Y-116275662D01*
X182934739Y-116200883D01*
X183233856Y-116200883D01*
X183532973Y-116200883D01*
X183532973Y-116313052D01*
G37*
G36*
X182785181Y-116313052D02*
G01*
X182785181Y-116425221D01*
X182635623Y-116425221D01*
X182486064Y-116425221D01*
X182486064Y-116724337D01*
X182486064Y-117023454D01*
X182373895Y-117023454D01*
X182261727Y-117023454D01*
X182261727Y-116724337D01*
X182261727Y-116425221D01*
X182149558Y-116425221D01*
X182037389Y-116425221D01*
X182037389Y-116313052D01*
X182037389Y-116200883D01*
X182411285Y-116200883D01*
X182785181Y-116200883D01*
X182785181Y-116313052D01*
G37*
G36*
X181962610Y-116612169D02*
G01*
X181962610Y-117023454D01*
X181850441Y-117023454D01*
X181738272Y-117023454D01*
X181738272Y-116612169D01*
X181738272Y-116200883D01*
X181850441Y-116200883D01*
X181962610Y-116200883D01*
X181962610Y-116612169D01*
G37*
G36*
X181140039Y-116350441D02*
G01*
X181140039Y-116500000D01*
X181289597Y-116500000D01*
X181439155Y-116500000D01*
X181439155Y-116350441D01*
X181439155Y-116200883D01*
X181551324Y-116200883D01*
X181663493Y-116200883D01*
X181663493Y-116612169D01*
X181663493Y-117023454D01*
X181551324Y-117023454D01*
X181439155Y-117023454D01*
X181439155Y-116836506D01*
X181439155Y-116649558D01*
X181289597Y-116649558D01*
X181140039Y-116649558D01*
X181140039Y-116836506D01*
X181140039Y-117023454D01*
X181027870Y-117023454D01*
X180915701Y-117023454D01*
X180915701Y-116612169D01*
X180915701Y-116200883D01*
X181027870Y-116200883D01*
X181140039Y-116200883D01*
X181140039Y-116350441D01*
G37*
G36*
X179490553Y-116968628D02*
G01*
X179494896Y-116986065D01*
X179474944Y-117019111D01*
X179457507Y-117023454D01*
X179424460Y-117003501D01*
X179420117Y-116986065D01*
X179440070Y-116953018D01*
X179457507Y-116948675D01*
X179490553Y-116968628D01*
G37*
G36*
X182107825Y-117192965D02*
G01*
X182112168Y-117210402D01*
X182092215Y-117243449D01*
X182074779Y-117247792D01*
X182041732Y-117227839D01*
X182037389Y-117210402D01*
X182057342Y-117177356D01*
X182074779Y-117173013D01*
X182107825Y-117192965D01*
G37*
G36*
X181883488Y-117192965D02*
G01*
X181887831Y-117210402D01*
X181867878Y-117243449D01*
X181850441Y-117247792D01*
X181817394Y-117227839D01*
X181813051Y-117210402D01*
X181833004Y-117177356D01*
X181850441Y-117173013D01*
X181883488Y-117192965D01*
G37*
G36*
X181299451Y-117173343D02*
G01*
X181451829Y-117174548D01*
X181565207Y-117176945D01*
X181645012Y-117180855D01*
X181696667Y-117186596D01*
X181725600Y-117194487D01*
X181737235Y-117204848D01*
X181738272Y-117210402D01*
X181732653Y-117221979D01*
X181712177Y-117230942D01*
X181671419Y-117237611D01*
X181604954Y-117242306D01*
X181507358Y-117245344D01*
X181373204Y-117247046D01*
X181197067Y-117247731D01*
X181102649Y-117247792D01*
X180905847Y-117247461D01*
X180753470Y-117246257D01*
X180640091Y-117243859D01*
X180560287Y-117239950D01*
X180508631Y-117234209D01*
X180479698Y-117226317D01*
X180468064Y-117215956D01*
X180467026Y-117210402D01*
X180472646Y-117198826D01*
X180493122Y-117189862D01*
X180533879Y-117183193D01*
X180600344Y-117178499D01*
X180697940Y-117175460D01*
X180832095Y-117173758D01*
X181008231Y-117173074D01*
X181102649Y-117173013D01*
X181299451Y-117173343D01*
G37*
G36*
X181356671Y-117344866D02*
G01*
X181364376Y-117397350D01*
X181353229Y-117456718D01*
X181326987Y-117472129D01*
X181297303Y-117449835D01*
X181289597Y-117397350D01*
X181300745Y-117337983D01*
X181326987Y-117322571D01*
X181356671Y-117344866D01*
G37*
G36*
X181132333Y-117344866D02*
G01*
X181140039Y-117397350D01*
X181128891Y-117456718D01*
X181102649Y-117472129D01*
X181072965Y-117449835D01*
X181065260Y-117397350D01*
X181076407Y-117337983D01*
X181102649Y-117322571D01*
X181132333Y-117344866D01*
G37*
G36*
X180990480Y-117397350D02*
G01*
X180990480Y-117472129D01*
X180579195Y-117472129D01*
X180167909Y-117472129D01*
X180167909Y-117397350D01*
X180167909Y-117322571D01*
X180579195Y-117322571D01*
X180990480Y-117322571D01*
X180990480Y-117397350D01*
G37*
G36*
X180304722Y-116739017D02*
G01*
X180315947Y-116788931D01*
X180317468Y-116836506D01*
X180312574Y-116910438D01*
X180295936Y-116944114D01*
X180280078Y-116948675D01*
X180247031Y-116968628D01*
X180242688Y-116986065D01*
X180222736Y-117019111D01*
X180205299Y-117023454D01*
X180172252Y-117043407D01*
X180167909Y-117060844D01*
X180147956Y-117093890D01*
X180130520Y-117098233D01*
X180097473Y-117118186D01*
X180093130Y-117135623D01*
X180073177Y-117168670D01*
X180055740Y-117173013D01*
X180022694Y-117192965D01*
X180018351Y-117210402D01*
X179998398Y-117243449D01*
X179980961Y-117247792D01*
X179947915Y-117267745D01*
X179943572Y-117285181D01*
X179923619Y-117318228D01*
X179906182Y-117322571D01*
X179873135Y-117342524D01*
X179868792Y-117359961D01*
X179846498Y-117389644D01*
X179794013Y-117397350D01*
X179734646Y-117408498D01*
X179719234Y-117434740D01*
X179699281Y-117467786D01*
X179681844Y-117472129D01*
X179652161Y-117449835D01*
X179644455Y-117397350D01*
X179650631Y-117344384D01*
X179679766Y-117324862D01*
X179719234Y-117322571D01*
X179778602Y-117311424D01*
X179794013Y-117285181D01*
X179813966Y-117252135D01*
X179831403Y-117247792D01*
X179864449Y-117227839D01*
X179868792Y-117210402D01*
X179888745Y-117177356D01*
X179906182Y-117173013D01*
X179939229Y-117153060D01*
X179943572Y-117135623D01*
X179963524Y-117102576D01*
X179980961Y-117098233D01*
X180014008Y-117078281D01*
X180018351Y-117060844D01*
X180038304Y-117027797D01*
X180055740Y-117023454D01*
X180088787Y-117003501D01*
X180093130Y-116986065D01*
X180113083Y-116953018D01*
X180130520Y-116948675D01*
X180163566Y-116928722D01*
X180167909Y-116911285D01*
X180187862Y-116878239D01*
X180205299Y-116873896D01*
X180234983Y-116851601D01*
X180242688Y-116799117D01*
X180253836Y-116739749D01*
X180280078Y-116724337D01*
X180304722Y-116739017D01*
G37*
G36*
X178667982Y-116744290D02*
G01*
X178672325Y-116761727D01*
X178692278Y-116794774D01*
X178709715Y-116799117D01*
X178734359Y-116813796D01*
X178745584Y-116863710D01*
X178747104Y-116911285D01*
X178749272Y-116980260D01*
X178761788Y-117012928D01*
X178793672Y-117022820D01*
X178821884Y-117023454D01*
X178881251Y-117034602D01*
X178896663Y-117060844D01*
X178916616Y-117093890D01*
X178934052Y-117098233D01*
X178963736Y-117120528D01*
X178971442Y-117173013D01*
X178977618Y-117225979D01*
X179006753Y-117245501D01*
X179046221Y-117247792D01*
X179105589Y-117258939D01*
X179121000Y-117285181D01*
X179143295Y-117314865D01*
X179195780Y-117322571D01*
X179248746Y-117328747D01*
X179268268Y-117357882D01*
X179270559Y-117397350D01*
X179259411Y-117456718D01*
X179233169Y-117472129D01*
X179200123Y-117452177D01*
X179195780Y-117434740D01*
X179173485Y-117405056D01*
X179121000Y-117397350D01*
X179061633Y-117386203D01*
X179046221Y-117359961D01*
X179023926Y-117330277D01*
X178971442Y-117322571D01*
X178918476Y-117316395D01*
X178898954Y-117287260D01*
X178896663Y-117247792D01*
X178885515Y-117188424D01*
X178859273Y-117173013D01*
X178826227Y-117153060D01*
X178821884Y-117135623D01*
X178799589Y-117105939D01*
X178747104Y-117098233D01*
X178694138Y-117092057D01*
X178674616Y-117062922D01*
X178672325Y-117023454D01*
X178661178Y-116964087D01*
X178634936Y-116948675D01*
X178610292Y-116933995D01*
X178599066Y-116884081D01*
X178597546Y-116836506D01*
X178602439Y-116762574D01*
X178619077Y-116728898D01*
X178634936Y-116724337D01*
X178667982Y-116744290D01*
G37*
G36*
X178280762Y-116734130D02*
G01*
X178292338Y-116769520D01*
X178297573Y-116839520D01*
X178298429Y-116911285D01*
X178298429Y-117098233D01*
X178373208Y-117098233D01*
X178426175Y-117104410D01*
X178445697Y-117133544D01*
X178447988Y-117173013D01*
X178459135Y-117232380D01*
X178485377Y-117247792D01*
X178518424Y-117267745D01*
X178522767Y-117285181D01*
X178545062Y-117314865D01*
X178597546Y-117322571D01*
X178656914Y-117333718D01*
X178672325Y-117359961D01*
X178692278Y-117393007D01*
X178709715Y-117397350D01*
X178742762Y-117417303D01*
X178747104Y-117434740D01*
X178767057Y-117467786D01*
X178784494Y-117472129D01*
X178817541Y-117492082D01*
X178821884Y-117509519D01*
X178841836Y-117542566D01*
X178859273Y-117546909D01*
X178892320Y-117566861D01*
X178896663Y-117584298D01*
X178908149Y-117606009D01*
X178948865Y-117617665D01*
X179028201Y-117621614D01*
X179046221Y-117621688D01*
X179133063Y-117624559D01*
X179179688Y-117634738D01*
X179195485Y-117654572D01*
X179195780Y-117659077D01*
X179187037Y-117677318D01*
X179155130Y-117688680D01*
X179091539Y-117694583D01*
X178987745Y-117696447D01*
X178971442Y-117696467D01*
X178861997Y-117695010D01*
X178793824Y-117689692D01*
X178758406Y-117679094D01*
X178747223Y-117661794D01*
X178747104Y-117659077D01*
X178727152Y-117626031D01*
X178709715Y-117621688D01*
X178680031Y-117599393D01*
X178672325Y-117546909D01*
X178666149Y-117493942D01*
X178637014Y-117474420D01*
X178597546Y-117472129D01*
X178538178Y-117460982D01*
X178522767Y-117434740D01*
X178502814Y-117401693D01*
X178485377Y-117397350D01*
X178452331Y-117377397D01*
X178447988Y-117359961D01*
X178425693Y-117330277D01*
X178373208Y-117322571D01*
X178320242Y-117316395D01*
X178300720Y-117287260D01*
X178298429Y-117247792D01*
X178287282Y-117188424D01*
X178261040Y-117173013D01*
X178242799Y-117164270D01*
X178231437Y-117132363D01*
X178225534Y-117068772D01*
X178223670Y-116964978D01*
X178223650Y-116948675D01*
X178225107Y-116839229D01*
X178230425Y-116771057D01*
X178241023Y-116735639D01*
X178258323Y-116724456D01*
X178261040Y-116724337D01*
X178280762Y-116734130D01*
G37*
G36*
X179473627Y-117180512D02*
G01*
X179484472Y-117208096D01*
X179490995Y-117263389D01*
X179494150Y-117354019D01*
X179494896Y-117472129D01*
X179493959Y-117601091D01*
X179490511Y-117687851D01*
X179483599Y-117740036D01*
X179472271Y-117765272D01*
X179457507Y-117771246D01*
X179441387Y-117763746D01*
X179430542Y-117736163D01*
X179424018Y-117680870D01*
X179420864Y-117590239D01*
X179420117Y-117472129D01*
X179421055Y-117343167D01*
X179424503Y-117256407D01*
X179431414Y-117204223D01*
X179442743Y-117178987D01*
X179457507Y-117173013D01*
X179473627Y-117180512D01*
G37*
D13*
%TO.C,U1*%
X180440000Y-109940000D02*
X184560000Y-109940000D01*
X180440000Y-110035000D02*
X180440000Y-109940000D01*
X180440000Y-115060000D02*
X180440000Y-114965000D01*
X184560000Y-109940000D02*
X184560000Y-110035000D01*
X184560000Y-114965000D02*
X184560000Y-115060000D01*
X184560000Y-115060000D02*
X180440000Y-115060000D01*
X179900000Y-110030000D02*
X179660000Y-109700000D01*
X180140000Y-109700000D01*
X179900000Y-110030000D01*
G36*
X179900000Y-110030000D02*
G01*
X179660000Y-109700000D01*
X180140000Y-109700000D01*
X179900000Y-110030000D01*
G37*
%TO.C,TP3*%
X188200000Y-117000000D02*
G75*
G02*
X186800000Y-117000000I-700000J0D01*
G01*
X186800000Y-117000000D02*
G75*
G02*
X188200000Y-117000000I700000J0D01*
G01*
%TO.C,TP2*%
X190200000Y-117000000D02*
G75*
G02*
X188800000Y-117000000I-700000J0D01*
G01*
X188800000Y-117000000D02*
G75*
G02*
X190200000Y-117000000I700000J0D01*
G01*
%TO.C,TP1*%
X175700000Y-109500000D02*
G75*
G02*
X174300000Y-109500000I-700000J0D01*
G01*
X174300000Y-109500000D02*
G75*
G02*
X175700000Y-109500000I700000J0D01*
G01*
%TO.C,Q2*%
X187440000Y-113260000D02*
X187440000Y-111740000D01*
X187490000Y-113260000D02*
X187440000Y-113260000D01*
X189390000Y-113260000D02*
X188610000Y-113260000D01*
X190560000Y-113260000D02*
X190510000Y-113260000D01*
X187440000Y-111740000D02*
X188440000Y-111740000D01*
X189560000Y-111740000D02*
X190560000Y-111740000D01*
X190560000Y-111740000D02*
X190560000Y-113260000D01*
X188950000Y-114040000D02*
X188620000Y-113800000D01*
X188950000Y-113560000D01*
X188950000Y-114040000D01*
G36*
X188950000Y-114040000D02*
G01*
X188620000Y-113800000D01*
X188950000Y-113560000D01*
X188950000Y-114040000D01*
G37*
%TO.C,Q1*%
X174440000Y-113260000D02*
X174440000Y-111740000D01*
X174490000Y-113260000D02*
X174440000Y-113260000D01*
X176390000Y-113260000D02*
X175610000Y-113260000D01*
X177560000Y-113260000D02*
X177510000Y-113260000D01*
X174440000Y-111740000D02*
X175440000Y-111740000D01*
X176560000Y-111740000D02*
X177560000Y-111740000D01*
X177560000Y-111740000D02*
X177560000Y-113260000D01*
X175950000Y-114040000D02*
X175620000Y-113800000D01*
X175950000Y-113560000D01*
X175950000Y-114040000D01*
G36*
X175950000Y-114040000D02*
G01*
X175620000Y-113800000D01*
X175950000Y-113560000D01*
X175950000Y-114040000D01*
G37*
%TO.C,J1*%
X178580000Y-120880000D02*
X178580000Y-119500000D01*
X179960000Y-120880000D02*
X178580000Y-120880000D01*
X181230000Y-120880000D02*
X186420000Y-120880000D01*
X181230000Y-120880000D02*
X181230000Y-118120000D01*
X186420000Y-120880000D02*
X186420000Y-118120000D01*
X181230000Y-118120000D02*
X186420000Y-118120000D01*
%TO.C,D3*%
X177135000Y-115052500D02*
X174865000Y-115052500D01*
X174865000Y-115052500D02*
X174865000Y-119112500D01*
X177135000Y-119112500D02*
X177135000Y-115052500D01*
%TO.C,D2*%
X178080000Y-104558563D02*
G75*
G02*
X178235516Y-107790000I-1080000J-1671437D01*
G01*
X178080000Y-105189039D02*
G75*
G02*
X178080000Y-107270961I-1080000J-1040961D01*
G01*
X175920000Y-107270961D02*
G75*
G02*
X175920000Y-105189039I1080000J1040961D01*
G01*
X175764484Y-107790000D02*
G75*
G02*
X175920000Y-104558563I1235516J1560000D01*
G01*
X178080000Y-107790000D02*
X178236000Y-107790000D01*
X175764000Y-107790000D02*
X175920000Y-107790000D01*
%TO.C,D1*%
X189236000Y-104670000D02*
X189080000Y-104670000D01*
X186920000Y-104670000D02*
X186764000Y-104670000D01*
X189235516Y-104670000D02*
G75*
G02*
X189080000Y-107901437I-1235516J-1560000D01*
G01*
X189080000Y-105189039D02*
G75*
G02*
X189080000Y-107270961I-1080000J-1040961D01*
G01*
X186920000Y-107270961D02*
G75*
G02*
X186920000Y-105189039I1080000J1040961D01*
G01*
X186920000Y-107901437D02*
G75*
G02*
X186764484Y-104670000I1080000J1671437D01*
G01*
%TO.C,C2*%
X186360000Y-107273752D02*
X186360000Y-105851248D01*
X183640000Y-107273752D02*
X183640000Y-105851248D01*
%TO.C,C1*%
X178640000Y-107273752D02*
X178640000Y-105851248D01*
X181360000Y-107273752D02*
X181360000Y-105851248D01*
%TD*%
M02*
