%TF.GenerationSoftware,KiCad,Pcbnew,9.0.7*%
%TF.CreationDate,2026-01-19T15:41:53+08:00*%
%TF.ProjectId,mini-ir-blaster,6d696e69-2d69-4722-9d62-6c6173746572,rev?*%
%TF.SameCoordinates,Original*%
%TF.FileFunction,Legend,Bot*%
%TF.FilePolarity,Positive*%
%FSLAX46Y46*%
G04 Gerber Fmt 4.6, Leading zero omitted, Abs format (unit mm)*
G04 Created by KiCad (PCBNEW 9.0.7) date 2026-01-19 15:41:53*
%MOMM*%
%LPD*%
G01*
G04 APERTURE LIST*
%ADD10C,0.100000*%
%ADD11C,0.150000*%
%ADD12C,0.125000*%
%ADD13C,0.000000*%
%ADD14C,0.120000*%
G04 APERTURE END LIST*
D10*
G36*
X190517416Y-113246317D02*
G01*
X190542355Y-113256661D01*
X190563416Y-113273766D01*
X190579148Y-113296039D01*
X190588898Y-113323022D01*
X190592359Y-113356015D01*
X190588916Y-113388464D01*
X190579183Y-113415187D01*
X190563416Y-113437421D01*
X190542355Y-113454526D01*
X190517416Y-113464870D01*
X190487433Y-113468489D01*
X190487433Y-113397158D01*
X190504458Y-113394228D01*
X190517658Y-113385800D01*
X190526354Y-113372935D01*
X190529381Y-113356015D01*
X190526369Y-113339019D01*
X190517658Y-113325790D01*
X190504428Y-113317078D01*
X190487433Y-113314066D01*
X190395072Y-113314066D01*
X190377424Y-113317128D01*
X190364444Y-113325790D01*
X190356044Y-113338986D01*
X190353123Y-113356015D01*
X190356059Y-113372969D01*
X190364444Y-113385800D01*
X190377392Y-113394179D01*
X190395072Y-113397158D01*
X190395072Y-113468489D01*
X190365090Y-113464869D01*
X190340164Y-113454525D01*
X190319125Y-113437421D01*
X190303337Y-113415184D01*
X190293592Y-113388462D01*
X190290145Y-113356015D01*
X190293610Y-113323025D01*
X190303372Y-113296041D01*
X190319125Y-113273766D01*
X190340164Y-113256662D01*
X190365090Y-113246318D01*
X190395072Y-113242698D01*
X190487433Y-113242698D01*
X190517416Y-113246317D01*
G37*
G36*
X190543748Y-113140908D02*
G01*
X190578743Y-113149947D01*
X190609981Y-113164626D01*
X190637892Y-113184847D01*
X190661293Y-113209717D01*
X190680506Y-113239731D01*
X190694217Y-113272785D01*
X190702717Y-113309902D01*
X190705676Y-113351838D01*
X190702697Y-113394317D01*
X190694178Y-113431532D01*
X190680506Y-113464312D01*
X190661317Y-113494070D01*
X190637919Y-113518814D01*
X190609981Y-113539014D01*
X190578743Y-113553693D01*
X190543748Y-113562732D01*
X190504212Y-113565868D01*
X190378293Y-113565868D01*
X190338732Y-113562730D01*
X190303739Y-113553690D01*
X190272523Y-113539014D01*
X190244588Y-113518813D01*
X190221203Y-113494069D01*
X190202035Y-113464312D01*
X190188342Y-113431530D01*
X190179811Y-113394315D01*
X190176829Y-113351838D01*
X190218814Y-113351838D01*
X190221186Y-113384898D01*
X190227993Y-113414062D01*
X190238964Y-113439949D01*
X190254241Y-113463441D01*
X190272758Y-113482902D01*
X190294762Y-113498714D01*
X190319334Y-113510175D01*
X190346967Y-113517248D01*
X190378293Y-113519706D01*
X190504212Y-113519706D01*
X190535541Y-113517255D01*
X190563317Y-113510188D01*
X190588146Y-113498714D01*
X190610377Y-113482864D01*
X190628894Y-113463401D01*
X190643980Y-113439949D01*
X190654704Y-113414087D01*
X190661367Y-113384921D01*
X190663690Y-113351838D01*
X190661367Y-113318731D01*
X190654703Y-113289553D01*
X190643980Y-113263691D01*
X190628894Y-113240239D01*
X190610377Y-113220776D01*
X190588146Y-113204926D01*
X190563317Y-113193452D01*
X190535541Y-113186385D01*
X190504212Y-113183934D01*
X190378293Y-113183934D01*
X190346967Y-113186392D01*
X190319334Y-113193465D01*
X190294762Y-113204926D01*
X190272758Y-113220738D01*
X190254241Y-113240199D01*
X190238964Y-113263691D01*
X190227994Y-113289578D01*
X190221186Y-113318753D01*
X190218814Y-113351838D01*
X190176829Y-113351838D01*
X190179791Y-113309904D01*
X190188304Y-113272787D01*
X190202035Y-113239731D01*
X190221226Y-113209718D01*
X190244615Y-113184848D01*
X190272523Y-113164626D01*
X190303739Y-113149950D01*
X190338732Y-113140910D01*
X190378293Y-113137772D01*
X190504212Y-113137772D01*
X190543748Y-113140908D01*
G37*
G36*
X190806389Y-114360549D02*
G01*
X190803699Y-114317940D01*
X190796019Y-114280556D01*
X190783748Y-114247636D01*
X190766223Y-114217454D01*
X190744885Y-114192761D01*
X190719524Y-114172934D01*
X190690788Y-114158487D01*
X190658448Y-114149604D01*
X190621705Y-114146519D01*
X190621705Y-114269068D01*
X190643502Y-114271925D01*
X190661542Y-114280124D01*
X190676733Y-114293834D01*
X190687772Y-114311422D01*
X190694767Y-114333284D01*
X190697286Y-114360549D01*
X190694836Y-114387313D01*
X190688101Y-114408304D01*
X190677576Y-114424773D01*
X190663064Y-114437533D01*
X190645848Y-114445185D01*
X190625076Y-114447854D01*
X190600373Y-114444053D01*
X190578511Y-114432723D01*
X190566576Y-114421384D01*
X190557479Y-114406801D01*
X190551217Y-114388283D01*
X190533594Y-114313545D01*
X190518386Y-114267595D01*
X190496685Y-114229838D01*
X190468528Y-114198982D01*
X190443232Y-114180444D01*
X190415880Y-114167312D01*
X190386036Y-114159332D01*
X190353123Y-114156594D01*
X190312716Y-114160198D01*
X190278417Y-114170439D01*
X190249062Y-114186923D01*
X190223833Y-114209900D01*
X190204020Y-114237663D01*
X190189393Y-114270496D01*
X190180124Y-114309375D01*
X190176829Y-114355530D01*
X190180132Y-114401622D01*
X190189453Y-114440728D01*
X190204215Y-114474014D01*
X190224273Y-114502405D01*
X190249785Y-114526091D01*
X190279067Y-114542954D01*
X190312869Y-114553354D01*
X190352281Y-114556994D01*
X190352281Y-114434445D01*
X190331970Y-114431961D01*
X190315635Y-114424947D01*
X190302345Y-114413452D01*
X190292676Y-114398472D01*
X190286516Y-114379526D01*
X190284284Y-114355530D01*
X190286470Y-114332083D01*
X190292487Y-114313705D01*
X190301906Y-114299293D01*
X190314826Y-114288183D01*
X190330237Y-114281486D01*
X190348910Y-114279143D01*
X190370357Y-114282644D01*
X190387142Y-114292688D01*
X190400439Y-114310017D01*
X190410203Y-114337065D01*
X190427825Y-114414295D01*
X190438417Y-114449253D01*
X190453464Y-114479615D01*
X190472932Y-114506007D01*
X190497068Y-114528857D01*
X190524752Y-114547235D01*
X190554975Y-114560399D01*
X190588214Y-114568465D01*
X190625076Y-114571245D01*
X190660704Y-114568270D01*
X190692363Y-114559671D01*
X190720770Y-114545636D01*
X190745866Y-114526376D01*
X190766919Y-114502248D01*
X190784151Y-114472620D01*
X190796170Y-114440289D01*
X190803730Y-114403206D01*
X190806389Y-114360549D01*
G37*
G36*
X190806389Y-114862431D02*
G01*
X190803633Y-114838223D01*
X190795782Y-114818097D01*
X190782905Y-114801139D01*
X190765945Y-114788241D01*
X190745819Y-114780378D01*
X190721613Y-114777618D01*
X190697408Y-114780379D01*
X190677295Y-114788242D01*
X190660356Y-114801139D01*
X190647458Y-114818099D01*
X190639596Y-114838225D01*
X190636836Y-114862431D01*
X190639597Y-114886636D01*
X190647460Y-114906749D01*
X190660356Y-114923688D01*
X190677295Y-114936584D01*
X190697408Y-114944447D01*
X190721613Y-114947208D01*
X190745819Y-114944448D01*
X190765945Y-114936586D01*
X190782905Y-114923688D01*
X190795780Y-114906752D01*
X190803632Y-114886639D01*
X190806389Y-114862431D01*
G37*
G36*
X190798000Y-115263527D02*
G01*
X190659514Y-115292909D01*
X190659514Y-115438979D01*
X190798000Y-115468361D01*
X190798000Y-115596772D01*
X190185219Y-115444841D01*
X190185219Y-115365963D01*
X190298535Y-115365963D01*
X190347665Y-115375598D01*
X190411046Y-115387761D01*
X190558764Y-115417144D01*
X190558764Y-115313902D01*
X190410203Y-115344970D01*
X190347262Y-115357133D01*
X190298535Y-115365963D01*
X190185219Y-115365963D01*
X190185219Y-115285362D01*
X190798000Y-115135116D01*
X190798000Y-115263527D01*
G37*
G36*
X190798000Y-115673049D02*
G01*
X190336307Y-115673049D01*
X190336307Y-115794755D01*
X190420278Y-115794755D01*
X190393902Y-115804161D01*
X190371734Y-115818478D01*
X190353123Y-115837986D01*
X190339339Y-115861229D01*
X190330873Y-115887943D01*
X190327918Y-115918989D01*
X190331014Y-115951720D01*
X190339907Y-115980075D01*
X190354417Y-116004922D01*
X190374922Y-116026847D01*
X190399392Y-116044123D01*
X190427863Y-116056795D01*
X190461084Y-116064769D01*
X190499999Y-116067587D01*
X190798000Y-116067587D01*
X190798000Y-115941667D01*
X190512602Y-115941667D01*
X190489263Y-115939333D01*
X190471047Y-115932901D01*
X190456804Y-115922763D01*
X190446096Y-115909020D01*
X190439440Y-115891877D01*
X190437057Y-115870336D01*
X190439440Y-115848770D01*
X190446096Y-115831602D01*
X190456804Y-115817836D01*
X190471045Y-115807719D01*
X190489260Y-115801299D01*
X190512602Y-115798968D01*
X190798000Y-115798968D01*
X190798000Y-115673049D01*
G37*
G36*
X190798000Y-116419187D02*
G01*
X190795216Y-116384204D01*
X190787356Y-116354683D01*
X190774851Y-116329647D01*
X190757699Y-116308361D01*
X190736415Y-116291225D01*
X190711386Y-116278731D01*
X190681876Y-116270879D01*
X190646911Y-116268098D01*
X190449660Y-116268098D01*
X190449660Y-116143864D01*
X190336307Y-116143864D01*
X190336307Y-116268098D01*
X190206211Y-116268098D01*
X190206211Y-116393981D01*
X190336307Y-116393981D01*
X190336307Y-116574452D01*
X190449660Y-116574452D01*
X190449660Y-116393981D01*
X190642698Y-116393981D01*
X190659862Y-116396511D01*
X190672923Y-116403616D01*
X190681590Y-116415128D01*
X190684683Y-116431753D01*
X190684683Y-116570275D01*
X190798000Y-116570275D01*
X190798000Y-116419187D01*
G37*
G36*
X190657973Y-116677985D02*
G01*
X190690057Y-116686320D01*
X190718682Y-116699858D01*
X190744199Y-116718538D01*
X190765652Y-116741729D01*
X190783308Y-116769944D01*
X190795830Y-116800949D01*
X190803651Y-116836227D01*
X190806389Y-116876556D01*
X190803632Y-116917430D01*
X190795794Y-116952817D01*
X190783308Y-116983571D01*
X190765674Y-117011527D01*
X190744225Y-117034578D01*
X190718682Y-117053217D01*
X190690057Y-117066754D01*
X190657973Y-117075090D01*
X190621705Y-117077983D01*
X190512602Y-117077983D01*
X190476358Y-117075090D01*
X190444286Y-117066756D01*
X190415662Y-117053217D01*
X190390096Y-117034576D01*
X190368635Y-117011524D01*
X190350998Y-116983571D01*
X190338513Y-116952817D01*
X190330675Y-116917430D01*
X190327918Y-116876556D01*
X190437057Y-116876556D01*
X190439462Y-116900428D01*
X190446046Y-116918747D01*
X190456365Y-116932793D01*
X190470411Y-116943111D01*
X190488729Y-116949695D01*
X190512602Y-116952100D01*
X190621705Y-116952100D01*
X190645036Y-116949724D01*
X190663278Y-116943163D01*
X190677576Y-116932793D01*
X190688127Y-116918714D01*
X190694838Y-116900394D01*
X190697286Y-116876556D01*
X190694866Y-116853258D01*
X190688178Y-116835029D01*
X190677576Y-116820722D01*
X190663246Y-116810118D01*
X190645004Y-116803430D01*
X190621705Y-116801011D01*
X190512602Y-116801011D01*
X190488763Y-116803459D01*
X190470443Y-116810170D01*
X190456365Y-116820722D01*
X190445996Y-116834997D01*
X190439435Y-116853225D01*
X190437057Y-116876556D01*
X190327918Y-116876556D01*
X190330656Y-116836227D01*
X190338477Y-116800949D01*
X190350998Y-116769944D01*
X190368657Y-116741731D01*
X190390121Y-116718541D01*
X190415662Y-116699858D01*
X190444286Y-116686319D01*
X190476358Y-116677984D01*
X190512602Y-116675092D01*
X190621705Y-116675092D01*
X190657973Y-116677985D01*
G37*
G36*
X190798000Y-117183642D02*
G01*
X190336307Y-117183642D01*
X190336307Y-117305348D01*
X190420278Y-117305348D01*
X190393902Y-117314754D01*
X190371734Y-117329071D01*
X190353123Y-117348579D01*
X190339339Y-117371823D01*
X190330873Y-117398536D01*
X190327918Y-117429583D01*
X190331014Y-117462313D01*
X190339907Y-117490668D01*
X190354417Y-117515515D01*
X190374922Y-117537440D01*
X190399392Y-117554716D01*
X190427863Y-117567388D01*
X190461084Y-117575362D01*
X190499999Y-117578180D01*
X190798000Y-117578180D01*
X190798000Y-117452260D01*
X190512602Y-117452260D01*
X190489263Y-117449926D01*
X190471047Y-117443494D01*
X190456804Y-117433356D01*
X190446096Y-117419613D01*
X190439440Y-117402470D01*
X190437057Y-117380929D01*
X190439440Y-117359363D01*
X190446096Y-117342195D01*
X190456804Y-117328429D01*
X190471045Y-117318313D01*
X190489260Y-117311892D01*
X190512602Y-117309562D01*
X190798000Y-117309562D01*
X190798000Y-117183642D01*
G37*
G36*
X190798000Y-117690544D02*
G01*
X190684683Y-117690544D01*
X190684683Y-117843318D01*
X190449660Y-117843318D01*
X190449660Y-117707323D01*
X190336307Y-117707323D01*
X190336307Y-117969237D01*
X190684683Y-117969237D01*
X190684683Y-118101861D01*
X190798000Y-118101861D01*
X190798000Y-117690544D01*
G37*
G36*
X190263291Y-117900361D02*
G01*
X190261149Y-117878055D01*
X190255172Y-117860023D01*
X190245669Y-117845369D01*
X190232698Y-117834063D01*
X190217026Y-117827222D01*
X190197822Y-117824816D01*
X190178617Y-117827222D01*
X190162945Y-117834063D01*
X190149974Y-117845369D01*
X190140471Y-117860023D01*
X190134494Y-117878055D01*
X190132352Y-117900361D01*
X190134495Y-117922691D01*
X190140474Y-117940720D01*
X190149974Y-117955352D01*
X190162945Y-117966658D01*
X190178617Y-117973500D01*
X190197822Y-117975905D01*
X190217026Y-117973500D01*
X190232698Y-117966658D01*
X190245669Y-117955352D01*
X190255169Y-117940720D01*
X190261148Y-117922691D01*
X190263291Y-117900361D01*
G37*
G36*
X190657973Y-118188578D02*
G01*
X190690057Y-118196914D01*
X190718682Y-118210451D01*
X190744199Y-118229132D01*
X190765652Y-118252322D01*
X190783308Y-118280537D01*
X190795830Y-118311542D01*
X190803651Y-118346820D01*
X190806389Y-118387149D01*
X190803632Y-118428024D01*
X190795794Y-118463410D01*
X190783308Y-118494164D01*
X190765674Y-118522120D01*
X190744225Y-118545171D01*
X190718682Y-118563810D01*
X190690057Y-118577348D01*
X190657973Y-118585683D01*
X190621705Y-118588576D01*
X190512602Y-118588576D01*
X190476358Y-118585684D01*
X190444286Y-118577349D01*
X190415662Y-118563810D01*
X190390096Y-118545169D01*
X190368635Y-118522117D01*
X190350998Y-118494164D01*
X190338513Y-118463410D01*
X190330675Y-118428024D01*
X190327918Y-118387149D01*
X190437057Y-118387149D01*
X190439462Y-118411022D01*
X190446046Y-118429340D01*
X190456365Y-118443386D01*
X190470411Y-118453705D01*
X190488729Y-118460288D01*
X190512602Y-118462693D01*
X190621705Y-118462693D01*
X190645036Y-118460317D01*
X190663278Y-118453756D01*
X190677576Y-118443386D01*
X190688127Y-118429307D01*
X190694838Y-118410988D01*
X190697286Y-118387149D01*
X190694866Y-118363851D01*
X190688178Y-118345622D01*
X190677576Y-118331315D01*
X190663246Y-118320711D01*
X190645004Y-118314023D01*
X190621705Y-118311605D01*
X190512602Y-118311605D01*
X190488763Y-118314052D01*
X190470443Y-118320763D01*
X190456365Y-118331315D01*
X190445996Y-118345590D01*
X190439435Y-118363818D01*
X190437057Y-118387149D01*
X190327918Y-118387149D01*
X190330656Y-118346820D01*
X190338477Y-118311542D01*
X190350998Y-118280537D01*
X190368657Y-118252324D01*
X190390121Y-118229134D01*
X190415662Y-118210451D01*
X190444286Y-118196912D01*
X190476358Y-118188577D01*
X190512602Y-118185685D01*
X190621705Y-118185685D01*
X190657973Y-118188578D01*
G37*
G36*
X190798000Y-119196924D02*
G01*
X190685526Y-119196924D01*
X190454680Y-119429455D01*
X190429414Y-119449142D01*
X190401476Y-119460747D01*
X190369903Y-119464699D01*
X190347740Y-119462299D01*
X190328959Y-119455425D01*
X190312823Y-119444146D01*
X190300322Y-119429155D01*
X190292781Y-119411388D01*
X190290145Y-119389998D01*
X190292864Y-119368103D01*
X190300672Y-119349773D01*
X190313666Y-119334164D01*
X190330432Y-119322475D01*
X190350287Y-119315294D01*
X190374079Y-119312768D01*
X190374079Y-119186849D01*
X190335665Y-119189936D01*
X190301654Y-119198835D01*
X190271278Y-119213300D01*
X190244052Y-119233120D01*
X190221070Y-119257312D01*
X190202035Y-119286317D01*
X190188278Y-119318265D01*
X190179780Y-119353988D01*
X190176829Y-119394211D01*
X190179555Y-119433373D01*
X190187363Y-119467810D01*
X190199910Y-119498258D01*
X190217506Y-119525983D01*
X190238964Y-119549063D01*
X190264573Y-119567941D01*
X190293213Y-119581759D01*
X190325015Y-119590222D01*
X190360670Y-119593147D01*
X190392685Y-119590832D01*
X190424067Y-119583883D01*
X190455119Y-119572154D01*
X190484205Y-119556086D01*
X190514196Y-119533735D01*
X190545318Y-119504157D01*
X190684683Y-119358087D01*
X190684683Y-119599851D01*
X190798000Y-119599851D01*
X190798000Y-119196924D01*
G37*
G36*
X190506290Y-119840949D02*
G01*
X190519871Y-119846449D01*
X190530663Y-119855317D01*
X190541492Y-119873648D01*
X190545318Y-119897742D01*
X190541447Y-119922462D01*
X190530663Y-119940533D01*
X190519902Y-119949165D01*
X190506323Y-119954540D01*
X190489081Y-119956470D01*
X190471886Y-119954520D01*
X190458629Y-119949135D01*
X190448378Y-119940533D01*
X190438211Y-119922531D01*
X190434530Y-119897742D01*
X190438167Y-119873583D01*
X190448378Y-119855317D01*
X190458661Y-119846478D01*
X190471920Y-119840968D01*
X190489081Y-119838977D01*
X190506290Y-119840949D01*
G37*
G36*
X190657973Y-119699171D02*
G01*
X190690057Y-119707507D01*
X190718682Y-119721045D01*
X190744199Y-119739725D01*
X190765652Y-119762915D01*
X190783308Y-119791130D01*
X190795830Y-119822136D01*
X190803651Y-119857414D01*
X190806389Y-119897742D01*
X190803632Y-119938617D01*
X190795794Y-119974003D01*
X190783308Y-120004757D01*
X190765674Y-120032713D01*
X190744225Y-120055765D01*
X190718682Y-120074403D01*
X190690057Y-120087941D01*
X190657973Y-120096276D01*
X190621705Y-120099169D01*
X190361513Y-120099169D01*
X190325270Y-120096277D01*
X190293198Y-120087942D01*
X190264573Y-120074403D01*
X190239007Y-120055762D01*
X190217546Y-120032710D01*
X190199910Y-120004757D01*
X190187424Y-119974003D01*
X190179586Y-119938617D01*
X190176829Y-119897742D01*
X190285969Y-119897742D01*
X190288449Y-119923287D01*
X190295305Y-119943448D01*
X190306119Y-119959401D01*
X190320852Y-119971561D01*
X190338978Y-119979026D01*
X190361513Y-119981676D01*
X190621705Y-119981676D01*
X190644241Y-119979027D01*
X190662381Y-119971563D01*
X190677136Y-119959401D01*
X190687949Y-119943448D01*
X190694806Y-119923287D01*
X190697286Y-119897742D01*
X190694833Y-119872738D01*
X190688000Y-119852658D01*
X190677136Y-119836449D01*
X190662350Y-119824049D01*
X190644210Y-119816461D01*
X190621705Y-119813771D01*
X190361513Y-119813771D01*
X190338975Y-119816418D01*
X190320849Y-119823871D01*
X190306119Y-119836010D01*
X190295305Y-119851986D01*
X190288449Y-119872172D01*
X190285969Y-119897742D01*
X190176829Y-119897742D01*
X190179567Y-119857414D01*
X190187388Y-119822136D01*
X190199910Y-119791130D01*
X190217569Y-119762918D01*
X190239033Y-119739727D01*
X190264573Y-119721045D01*
X190293198Y-119707505D01*
X190325270Y-119699171D01*
X190361513Y-119696278D01*
X190621705Y-119696278D01*
X190657973Y-119699171D01*
G37*
G36*
X190798000Y-120203986D02*
G01*
X190685526Y-120203986D01*
X190454680Y-120436517D01*
X190429414Y-120456204D01*
X190401476Y-120467809D01*
X190369903Y-120471762D01*
X190347740Y-120469361D01*
X190328959Y-120462487D01*
X190312823Y-120451209D01*
X190300322Y-120436217D01*
X190292781Y-120418450D01*
X190290145Y-120397060D01*
X190292864Y-120375166D01*
X190300672Y-120356835D01*
X190313666Y-120341226D01*
X190330432Y-120329537D01*
X190350287Y-120322357D01*
X190374079Y-120319830D01*
X190374079Y-120193911D01*
X190335665Y-120196998D01*
X190301654Y-120205897D01*
X190271278Y-120220362D01*
X190244052Y-120240182D01*
X190221070Y-120264374D01*
X190202035Y-120293379D01*
X190188278Y-120325327D01*
X190179780Y-120361050D01*
X190176829Y-120401273D01*
X190179555Y-120440435D01*
X190187363Y-120474873D01*
X190199910Y-120505321D01*
X190217506Y-120533045D01*
X190238964Y-120556125D01*
X190264573Y-120575003D01*
X190293213Y-120588821D01*
X190325015Y-120597284D01*
X190360670Y-120600209D01*
X190392685Y-120597894D01*
X190424067Y-120590945D01*
X190455119Y-120579216D01*
X190484205Y-120563149D01*
X190514196Y-120540797D01*
X190545318Y-120511219D01*
X190684683Y-120365150D01*
X190684683Y-120606913D01*
X190798000Y-120606913D01*
X190798000Y-120203986D01*
G37*
G36*
X190640080Y-120693817D02*
G01*
X190676584Y-120702617D01*
X190708607Y-120716749D01*
X190737297Y-120736562D01*
X190761230Y-120761161D01*
X190780780Y-120791048D01*
X190794685Y-120824121D01*
X190803355Y-120861754D01*
X190806389Y-120904804D01*
X190802637Y-120954063D01*
X190792043Y-120995740D01*
X190775221Y-121031152D01*
X190752241Y-121061315D01*
X190723408Y-121086053D01*
X190690035Y-121103863D01*
X190651233Y-121114939D01*
X190605768Y-121118834D01*
X190562505Y-121115802D01*
X190525998Y-121107271D01*
X190495119Y-121093812D01*
X190468968Y-121075603D01*
X190447100Y-121052304D01*
X190431542Y-121025535D01*
X190421950Y-120994609D01*
X190418593Y-120958513D01*
X190421604Y-120928471D01*
X190429378Y-120904804D01*
X190511759Y-120904804D01*
X190514804Y-120931689D01*
X190523395Y-120953550D01*
X190537368Y-120971519D01*
X190555841Y-120984914D01*
X190578782Y-120993286D01*
X190607453Y-120996285D01*
X190635547Y-120993296D01*
X190658084Y-120984936D01*
X190676293Y-120971519D01*
X190690008Y-120953583D01*
X190698462Y-120931722D01*
X190701463Y-120904804D01*
X190698461Y-120877862D01*
X190690006Y-120855989D01*
X190676293Y-120838053D01*
X190658084Y-120824635D01*
X190635547Y-120816276D01*
X190607453Y-120813286D01*
X190578782Y-120816286D01*
X190555841Y-120824658D01*
X190537368Y-120838053D01*
X190523397Y-120856022D01*
X190514804Y-120877895D01*
X190511759Y-120904804D01*
X190429378Y-120904804D01*
X190430353Y-120901837D01*
X190444602Y-120878832D01*
X190463069Y-120861976D01*
X190460541Y-120857800D01*
X190185219Y-121019806D01*
X190185219Y-120876264D01*
X190416065Y-120750345D01*
X190466738Y-120725262D01*
X190515130Y-120706674D01*
X190562431Y-120694312D01*
X190598221Y-120690737D01*
X190640080Y-120693817D01*
G37*
D11*
X180734649Y-120906533D02*
X180734649Y-121473200D01*
X180734649Y-121473200D02*
X180701316Y-121539866D01*
X180701316Y-121539866D02*
X180667982Y-121573200D01*
X180667982Y-121573200D02*
X180601316Y-121606533D01*
X180601316Y-121606533D02*
X180467982Y-121606533D01*
X180467982Y-121606533D02*
X180401316Y-121573200D01*
X180401316Y-121573200D02*
X180367982Y-121539866D01*
X180367982Y-121539866D02*
X180334649Y-121473200D01*
X180334649Y-121473200D02*
X180334649Y-120906533D01*
X180001316Y-121606533D02*
X180001316Y-120906533D01*
X180001316Y-120906533D02*
X179734649Y-120906533D01*
X179734649Y-120906533D02*
X179667983Y-120939866D01*
X179667983Y-120939866D02*
X179634649Y-120973200D01*
X179634649Y-120973200D02*
X179601316Y-121039866D01*
X179601316Y-121039866D02*
X179601316Y-121139866D01*
X179601316Y-121139866D02*
X179634649Y-121206533D01*
X179634649Y-121206533D02*
X179667983Y-121239866D01*
X179667983Y-121239866D02*
X179734649Y-121273200D01*
X179734649Y-121273200D02*
X180001316Y-121273200D01*
X179301316Y-121606533D02*
X179301316Y-120906533D01*
X179301316Y-120906533D02*
X179134649Y-120906533D01*
X179134649Y-120906533D02*
X179034649Y-120939866D01*
X179034649Y-120939866D02*
X178967983Y-121006533D01*
X178967983Y-121006533D02*
X178934649Y-121073200D01*
X178934649Y-121073200D02*
X178901316Y-121206533D01*
X178901316Y-121206533D02*
X178901316Y-121306533D01*
X178901316Y-121306533D02*
X178934649Y-121439866D01*
X178934649Y-121439866D02*
X178967983Y-121506533D01*
X178967983Y-121506533D02*
X179034649Y-121573200D01*
X179034649Y-121573200D02*
X179134649Y-121606533D01*
X179134649Y-121606533D02*
X179301316Y-121606533D01*
X178601316Y-121606533D02*
X178601316Y-120906533D01*
X182810839Y-121289533D02*
X182201316Y-121289533D01*
X182506077Y-121594295D02*
X182506077Y-120984771D01*
X184867982Y-120939866D02*
X184934649Y-120906533D01*
X184934649Y-120906533D02*
X185034649Y-120906533D01*
X185034649Y-120906533D02*
X185134649Y-120939866D01*
X185134649Y-120939866D02*
X185201316Y-121006533D01*
X185201316Y-121006533D02*
X185234649Y-121073200D01*
X185234649Y-121073200D02*
X185267982Y-121206533D01*
X185267982Y-121206533D02*
X185267982Y-121306533D01*
X185267982Y-121306533D02*
X185234649Y-121439866D01*
X185234649Y-121439866D02*
X185201316Y-121506533D01*
X185201316Y-121506533D02*
X185134649Y-121573200D01*
X185134649Y-121573200D02*
X185034649Y-121606533D01*
X185034649Y-121606533D02*
X184967982Y-121606533D01*
X184967982Y-121606533D02*
X184867982Y-121573200D01*
X184867982Y-121573200D02*
X184834649Y-121539866D01*
X184834649Y-121539866D02*
X184834649Y-121306533D01*
X184834649Y-121306533D02*
X184967982Y-121306533D01*
X185166666Y-106504819D02*
X185499999Y-106028628D01*
X185738094Y-106504819D02*
X185738094Y-105504819D01*
X185738094Y-105504819D02*
X185357142Y-105504819D01*
X185357142Y-105504819D02*
X185261904Y-105552438D01*
X185261904Y-105552438D02*
X185214285Y-105600057D01*
X185214285Y-105600057D02*
X185166666Y-105695295D01*
X185166666Y-105695295D02*
X185166666Y-105838152D01*
X185166666Y-105838152D02*
X185214285Y-105933390D01*
X185214285Y-105933390D02*
X185261904Y-105981009D01*
X185261904Y-105981009D02*
X185357142Y-106028628D01*
X185357142Y-106028628D02*
X185738094Y-106028628D01*
X184833332Y-105504819D02*
X184166666Y-105504819D01*
X184166666Y-105504819D02*
X184595237Y-106504819D01*
X182562295Y-105402380D02*
X182562295Y-105897618D01*
X182562295Y-105897618D02*
X182867057Y-105630952D01*
X182867057Y-105630952D02*
X182867057Y-105745237D01*
X182867057Y-105745237D02*
X182905152Y-105821428D01*
X182905152Y-105821428D02*
X182943247Y-105859523D01*
X182943247Y-105859523D02*
X183019438Y-105897618D01*
X183019438Y-105897618D02*
X183209914Y-105897618D01*
X183209914Y-105897618D02*
X183286104Y-105859523D01*
X183286104Y-105859523D02*
X183324200Y-105821428D01*
X183324200Y-105821428D02*
X183362295Y-105745237D01*
X183362295Y-105745237D02*
X183362295Y-105516666D01*
X183362295Y-105516666D02*
X183324200Y-105440475D01*
X183324200Y-105440475D02*
X183286104Y-105402380D01*
X183362295Y-106278571D02*
X183362295Y-106430952D01*
X183362295Y-106430952D02*
X183324200Y-106507142D01*
X183324200Y-106507142D02*
X183286104Y-106545238D01*
X183286104Y-106545238D02*
X183171819Y-106621428D01*
X183171819Y-106621428D02*
X183019438Y-106659523D01*
X183019438Y-106659523D02*
X182714676Y-106659523D01*
X182714676Y-106659523D02*
X182638485Y-106621428D01*
X182638485Y-106621428D02*
X182600390Y-106583333D01*
X182600390Y-106583333D02*
X182562295Y-106507142D01*
X182562295Y-106507142D02*
X182562295Y-106354761D01*
X182562295Y-106354761D02*
X182600390Y-106278571D01*
X182600390Y-106278571D02*
X182638485Y-106240476D01*
X182638485Y-106240476D02*
X182714676Y-106202380D01*
X182714676Y-106202380D02*
X182905152Y-106202380D01*
X182905152Y-106202380D02*
X182981342Y-106240476D01*
X182981342Y-106240476D02*
X183019438Y-106278571D01*
X183019438Y-106278571D02*
X183057533Y-106354761D01*
X183057533Y-106354761D02*
X183057533Y-106507142D01*
X183057533Y-106507142D02*
X183019438Y-106583333D01*
X183019438Y-106583333D02*
X182981342Y-106621428D01*
X182981342Y-106621428D02*
X182905152Y-106659523D01*
X188954819Y-110333333D02*
X188478628Y-110000000D01*
X188954819Y-109761905D02*
X187954819Y-109761905D01*
X187954819Y-109761905D02*
X187954819Y-110142857D01*
X187954819Y-110142857D02*
X188002438Y-110238095D01*
X188002438Y-110238095D02*
X188050057Y-110285714D01*
X188050057Y-110285714D02*
X188145295Y-110333333D01*
X188145295Y-110333333D02*
X188288152Y-110333333D01*
X188288152Y-110333333D02*
X188383390Y-110285714D01*
X188383390Y-110285714D02*
X188431009Y-110238095D01*
X188431009Y-110238095D02*
X188478628Y-110142857D01*
X188478628Y-110142857D02*
X188478628Y-109761905D01*
X187954819Y-111190476D02*
X187954819Y-111000000D01*
X187954819Y-111000000D02*
X188002438Y-110904762D01*
X188002438Y-110904762D02*
X188050057Y-110857143D01*
X188050057Y-110857143D02*
X188192914Y-110761905D01*
X188192914Y-110761905D02*
X188383390Y-110714286D01*
X188383390Y-110714286D02*
X188764342Y-110714286D01*
X188764342Y-110714286D02*
X188859580Y-110761905D01*
X188859580Y-110761905D02*
X188907200Y-110809524D01*
X188907200Y-110809524D02*
X188954819Y-110904762D01*
X188954819Y-110904762D02*
X188954819Y-111095238D01*
X188954819Y-111095238D02*
X188907200Y-111190476D01*
X188907200Y-111190476D02*
X188859580Y-111238095D01*
X188859580Y-111238095D02*
X188764342Y-111285714D01*
X188764342Y-111285714D02*
X188526247Y-111285714D01*
X188526247Y-111285714D02*
X188431009Y-111238095D01*
X188431009Y-111238095D02*
X188383390Y-111190476D01*
X188383390Y-111190476D02*
X188335771Y-111095238D01*
X188335771Y-111095238D02*
X188335771Y-110904762D01*
X188335771Y-110904762D02*
X188383390Y-110809524D01*
X188383390Y-110809524D02*
X188431009Y-110761905D01*
X188431009Y-110761905D02*
X188526247Y-110714286D01*
X189307143Y-113142295D02*
X189764286Y-113142295D01*
X189535714Y-113142295D02*
X189535714Y-112342295D01*
X189535714Y-112342295D02*
X189611905Y-112456580D01*
X189611905Y-112456580D02*
X189688095Y-112532771D01*
X189688095Y-112532771D02*
X189764286Y-112570866D01*
X188811904Y-112342295D02*
X188735714Y-112342295D01*
X188735714Y-112342295D02*
X188659523Y-112380390D01*
X188659523Y-112380390D02*
X188621428Y-112418485D01*
X188621428Y-112418485D02*
X188583333Y-112494676D01*
X188583333Y-112494676D02*
X188545238Y-112647057D01*
X188545238Y-112647057D02*
X188545238Y-112837533D01*
X188545238Y-112837533D02*
X188583333Y-112989914D01*
X188583333Y-112989914D02*
X188621428Y-113066104D01*
X188621428Y-113066104D02*
X188659523Y-113104200D01*
X188659523Y-113104200D02*
X188735714Y-113142295D01*
X188735714Y-113142295D02*
X188811904Y-113142295D01*
X188811904Y-113142295D02*
X188888095Y-113104200D01*
X188888095Y-113104200D02*
X188926190Y-113066104D01*
X188926190Y-113066104D02*
X188964285Y-112989914D01*
X188964285Y-112989914D02*
X189002381Y-112837533D01*
X189002381Y-112837533D02*
X189002381Y-112647057D01*
X189002381Y-112647057D02*
X188964285Y-112494676D01*
X188964285Y-112494676D02*
X188926190Y-112418485D01*
X188926190Y-112418485D02*
X188888095Y-112380390D01*
X188888095Y-112380390D02*
X188811904Y-112342295D01*
X188049999Y-112342295D02*
X187973809Y-112342295D01*
X187973809Y-112342295D02*
X187897618Y-112380390D01*
X187897618Y-112380390D02*
X187859523Y-112418485D01*
X187859523Y-112418485D02*
X187821428Y-112494676D01*
X187821428Y-112494676D02*
X187783333Y-112647057D01*
X187783333Y-112647057D02*
X187783333Y-112837533D01*
X187783333Y-112837533D02*
X187821428Y-112989914D01*
X187821428Y-112989914D02*
X187859523Y-113066104D01*
X187859523Y-113066104D02*
X187897618Y-113104200D01*
X187897618Y-113104200D02*
X187973809Y-113142295D01*
X187973809Y-113142295D02*
X188049999Y-113142295D01*
X188049999Y-113142295D02*
X188126190Y-113104200D01*
X188126190Y-113104200D02*
X188164285Y-113066104D01*
X188164285Y-113066104D02*
X188202380Y-112989914D01*
X188202380Y-112989914D02*
X188240476Y-112837533D01*
X188240476Y-112837533D02*
X188240476Y-112647057D01*
X188240476Y-112647057D02*
X188202380Y-112494676D01*
X188202380Y-112494676D02*
X188164285Y-112418485D01*
X188164285Y-112418485D02*
X188126190Y-112380390D01*
X188126190Y-112380390D02*
X188049999Y-112342295D01*
X187440475Y-113142295D02*
X187440475Y-112342295D01*
X187364285Y-112837533D02*
X187135713Y-113142295D01*
X187135713Y-112608961D02*
X187440475Y-112913723D01*
X182954819Y-110333333D02*
X182478628Y-110000000D01*
X182954819Y-109761905D02*
X181954819Y-109761905D01*
X181954819Y-109761905D02*
X181954819Y-110142857D01*
X181954819Y-110142857D02*
X182002438Y-110238095D01*
X182002438Y-110238095D02*
X182050057Y-110285714D01*
X182050057Y-110285714D02*
X182145295Y-110333333D01*
X182145295Y-110333333D02*
X182288152Y-110333333D01*
X182288152Y-110333333D02*
X182383390Y-110285714D01*
X182383390Y-110285714D02*
X182431009Y-110238095D01*
X182431009Y-110238095D02*
X182478628Y-110142857D01*
X182478628Y-110142857D02*
X182478628Y-109761905D01*
X181954819Y-111238095D02*
X181954819Y-110761905D01*
X181954819Y-110761905D02*
X182431009Y-110714286D01*
X182431009Y-110714286D02*
X182383390Y-110761905D01*
X182383390Y-110761905D02*
X182335771Y-110857143D01*
X182335771Y-110857143D02*
X182335771Y-111095238D01*
X182335771Y-111095238D02*
X182383390Y-111190476D01*
X182383390Y-111190476D02*
X182431009Y-111238095D01*
X182431009Y-111238095D02*
X182526247Y-111285714D01*
X182526247Y-111285714D02*
X182764342Y-111285714D01*
X182764342Y-111285714D02*
X182859580Y-111238095D01*
X182859580Y-111238095D02*
X182907200Y-111190476D01*
X182907200Y-111190476D02*
X182954819Y-111095238D01*
X182954819Y-111095238D02*
X182954819Y-110857143D01*
X182954819Y-110857143D02*
X182907200Y-110761905D01*
X182907200Y-110761905D02*
X182859580Y-110714286D01*
X182983333Y-113142295D02*
X183440476Y-113142295D01*
X183211904Y-113142295D02*
X183211904Y-112342295D01*
X183211904Y-112342295D02*
X183288095Y-112456580D01*
X183288095Y-112456580D02*
X183364285Y-112532771D01*
X183364285Y-112532771D02*
X183440476Y-112570866D01*
X182488094Y-112342295D02*
X182411904Y-112342295D01*
X182411904Y-112342295D02*
X182335713Y-112380390D01*
X182335713Y-112380390D02*
X182297618Y-112418485D01*
X182297618Y-112418485D02*
X182259523Y-112494676D01*
X182259523Y-112494676D02*
X182221428Y-112647057D01*
X182221428Y-112647057D02*
X182221428Y-112837533D01*
X182221428Y-112837533D02*
X182259523Y-112989914D01*
X182259523Y-112989914D02*
X182297618Y-113066104D01*
X182297618Y-113066104D02*
X182335713Y-113104200D01*
X182335713Y-113104200D02*
X182411904Y-113142295D01*
X182411904Y-113142295D02*
X182488094Y-113142295D01*
X182488094Y-113142295D02*
X182564285Y-113104200D01*
X182564285Y-113104200D02*
X182602380Y-113066104D01*
X182602380Y-113066104D02*
X182640475Y-112989914D01*
X182640475Y-112989914D02*
X182678571Y-112837533D01*
X182678571Y-112837533D02*
X182678571Y-112647057D01*
X182678571Y-112647057D02*
X182640475Y-112494676D01*
X182640475Y-112494676D02*
X182602380Y-112418485D01*
X182602380Y-112418485D02*
X182564285Y-112380390D01*
X182564285Y-112380390D02*
X182488094Y-112342295D01*
X181726189Y-112342295D02*
X181649999Y-112342295D01*
X181649999Y-112342295D02*
X181573808Y-112380390D01*
X181573808Y-112380390D02*
X181535713Y-112418485D01*
X181535713Y-112418485D02*
X181497618Y-112494676D01*
X181497618Y-112494676D02*
X181459523Y-112647057D01*
X181459523Y-112647057D02*
X181459523Y-112837533D01*
X181459523Y-112837533D02*
X181497618Y-112989914D01*
X181497618Y-112989914D02*
X181535713Y-113066104D01*
X181535713Y-113066104D02*
X181573808Y-113104200D01*
X181573808Y-113104200D02*
X181649999Y-113142295D01*
X181649999Y-113142295D02*
X181726189Y-113142295D01*
X181726189Y-113142295D02*
X181802380Y-113104200D01*
X181802380Y-113104200D02*
X181840475Y-113066104D01*
X181840475Y-113066104D02*
X181878570Y-112989914D01*
X181878570Y-112989914D02*
X181916666Y-112837533D01*
X181916666Y-112837533D02*
X181916666Y-112647057D01*
X181916666Y-112647057D02*
X181878570Y-112494676D01*
X181878570Y-112494676D02*
X181840475Y-112418485D01*
X181840475Y-112418485D02*
X181802380Y-112380390D01*
X181802380Y-112380390D02*
X181726189Y-112342295D01*
X187004819Y-115833333D02*
X186528628Y-115500000D01*
X187004819Y-115261905D02*
X186004819Y-115261905D01*
X186004819Y-115261905D02*
X186004819Y-115642857D01*
X186004819Y-115642857D02*
X186052438Y-115738095D01*
X186052438Y-115738095D02*
X186100057Y-115785714D01*
X186100057Y-115785714D02*
X186195295Y-115833333D01*
X186195295Y-115833333D02*
X186338152Y-115833333D01*
X186338152Y-115833333D02*
X186433390Y-115785714D01*
X186433390Y-115785714D02*
X186481009Y-115738095D01*
X186481009Y-115738095D02*
X186528628Y-115642857D01*
X186528628Y-115642857D02*
X186528628Y-115261905D01*
X186338152Y-116690476D02*
X187004819Y-116690476D01*
X185957200Y-116452381D02*
X186671485Y-116214286D01*
X186671485Y-116214286D02*
X186671485Y-116833333D01*
X189862295Y-115466666D02*
X189862295Y-115009523D01*
X189862295Y-115238095D02*
X189062295Y-115238095D01*
X189062295Y-115238095D02*
X189176580Y-115161904D01*
X189176580Y-115161904D02*
X189252771Y-115085714D01*
X189252771Y-115085714D02*
X189290866Y-115009523D01*
X189062295Y-115961905D02*
X189062295Y-116038095D01*
X189062295Y-116038095D02*
X189100390Y-116114286D01*
X189100390Y-116114286D02*
X189138485Y-116152381D01*
X189138485Y-116152381D02*
X189214676Y-116190476D01*
X189214676Y-116190476D02*
X189367057Y-116228571D01*
X189367057Y-116228571D02*
X189557533Y-116228571D01*
X189557533Y-116228571D02*
X189709914Y-116190476D01*
X189709914Y-116190476D02*
X189786104Y-116152381D01*
X189786104Y-116152381D02*
X189824200Y-116114286D01*
X189824200Y-116114286D02*
X189862295Y-116038095D01*
X189862295Y-116038095D02*
X189862295Y-115961905D01*
X189862295Y-115961905D02*
X189824200Y-115885714D01*
X189824200Y-115885714D02*
X189786104Y-115847619D01*
X189786104Y-115847619D02*
X189709914Y-115809524D01*
X189709914Y-115809524D02*
X189557533Y-115771428D01*
X189557533Y-115771428D02*
X189367057Y-115771428D01*
X189367057Y-115771428D02*
X189214676Y-115809524D01*
X189214676Y-115809524D02*
X189138485Y-115847619D01*
X189138485Y-115847619D02*
X189100390Y-115885714D01*
X189100390Y-115885714D02*
X189062295Y-115961905D01*
X189062295Y-116723810D02*
X189062295Y-116800000D01*
X189062295Y-116800000D02*
X189100390Y-116876191D01*
X189100390Y-116876191D02*
X189138485Y-116914286D01*
X189138485Y-116914286D02*
X189214676Y-116952381D01*
X189214676Y-116952381D02*
X189367057Y-116990476D01*
X189367057Y-116990476D02*
X189557533Y-116990476D01*
X189557533Y-116990476D02*
X189709914Y-116952381D01*
X189709914Y-116952381D02*
X189786104Y-116914286D01*
X189786104Y-116914286D02*
X189824200Y-116876191D01*
X189824200Y-116876191D02*
X189862295Y-116800000D01*
X189862295Y-116800000D02*
X189862295Y-116723810D01*
X189862295Y-116723810D02*
X189824200Y-116647619D01*
X189824200Y-116647619D02*
X189786104Y-116609524D01*
X189786104Y-116609524D02*
X189709914Y-116571429D01*
X189709914Y-116571429D02*
X189557533Y-116533333D01*
X189557533Y-116533333D02*
X189367057Y-116533333D01*
X189367057Y-116533333D02*
X189214676Y-116571429D01*
X189214676Y-116571429D02*
X189138485Y-116609524D01*
X189138485Y-116609524D02*
X189100390Y-116647619D01*
X189100390Y-116647619D02*
X189062295Y-116723810D01*
X181454819Y-116333333D02*
X180978628Y-116000000D01*
X181454819Y-115761905D02*
X180454819Y-115761905D01*
X180454819Y-115761905D02*
X180454819Y-116142857D01*
X180454819Y-116142857D02*
X180502438Y-116238095D01*
X180502438Y-116238095D02*
X180550057Y-116285714D01*
X180550057Y-116285714D02*
X180645295Y-116333333D01*
X180645295Y-116333333D02*
X180788152Y-116333333D01*
X180788152Y-116333333D02*
X180883390Y-116285714D01*
X180883390Y-116285714D02*
X180931009Y-116238095D01*
X180931009Y-116238095D02*
X180978628Y-116142857D01*
X180978628Y-116142857D02*
X180978628Y-115761905D01*
X180454819Y-116666667D02*
X180454819Y-117285714D01*
X180454819Y-117285714D02*
X180835771Y-116952381D01*
X180835771Y-116952381D02*
X180835771Y-117095238D01*
X180835771Y-117095238D02*
X180883390Y-117190476D01*
X180883390Y-117190476D02*
X180931009Y-117238095D01*
X180931009Y-117238095D02*
X181026247Y-117285714D01*
X181026247Y-117285714D02*
X181264342Y-117285714D01*
X181264342Y-117285714D02*
X181359580Y-117238095D01*
X181359580Y-117238095D02*
X181407200Y-117190476D01*
X181407200Y-117190476D02*
X181454819Y-117095238D01*
X181454819Y-117095238D02*
X181454819Y-116809524D01*
X181454819Y-116809524D02*
X181407200Y-116714286D01*
X181407200Y-116714286D02*
X181359580Y-116666667D01*
D12*
X177563595Y-115471428D02*
X177563595Y-115966666D01*
X177563595Y-115966666D02*
X177868357Y-115700000D01*
X177868357Y-115700000D02*
X177868357Y-115814285D01*
X177868357Y-115814285D02*
X177906452Y-115890476D01*
X177906452Y-115890476D02*
X177944547Y-115928571D01*
X177944547Y-115928571D02*
X178020738Y-115966666D01*
X178020738Y-115966666D02*
X178211214Y-115966666D01*
X178211214Y-115966666D02*
X178287404Y-115928571D01*
X178287404Y-115928571D02*
X178325500Y-115890476D01*
X178325500Y-115890476D02*
X178363595Y-115814285D01*
X178363595Y-115814285D02*
X178363595Y-115585714D01*
X178363595Y-115585714D02*
X178325500Y-115509523D01*
X178325500Y-115509523D02*
X178287404Y-115471428D01*
X177563595Y-116233333D02*
X177563595Y-116728571D01*
X177563595Y-116728571D02*
X177868357Y-116461905D01*
X177868357Y-116461905D02*
X177868357Y-116576190D01*
X177868357Y-116576190D02*
X177906452Y-116652381D01*
X177906452Y-116652381D02*
X177944547Y-116690476D01*
X177944547Y-116690476D02*
X178020738Y-116728571D01*
X178020738Y-116728571D02*
X178211214Y-116728571D01*
X178211214Y-116728571D02*
X178287404Y-116690476D01*
X178287404Y-116690476D02*
X178325500Y-116652381D01*
X178325500Y-116652381D02*
X178363595Y-116576190D01*
X178363595Y-116576190D02*
X178363595Y-116347619D01*
X178363595Y-116347619D02*
X178325500Y-116271428D01*
X178325500Y-116271428D02*
X178287404Y-116233333D01*
X177563595Y-117223810D02*
X177563595Y-117300000D01*
X177563595Y-117300000D02*
X177601690Y-117376191D01*
X177601690Y-117376191D02*
X177639785Y-117414286D01*
X177639785Y-117414286D02*
X177715976Y-117452381D01*
X177715976Y-117452381D02*
X177868357Y-117490476D01*
X177868357Y-117490476D02*
X178058833Y-117490476D01*
X178058833Y-117490476D02*
X178211214Y-117452381D01*
X178211214Y-117452381D02*
X178287404Y-117414286D01*
X178287404Y-117414286D02*
X178325500Y-117376191D01*
X178325500Y-117376191D02*
X178363595Y-117300000D01*
X178363595Y-117300000D02*
X178363595Y-117223810D01*
X178363595Y-117223810D02*
X178325500Y-117147619D01*
X178325500Y-117147619D02*
X178287404Y-117109524D01*
X178287404Y-117109524D02*
X178211214Y-117071429D01*
X178211214Y-117071429D02*
X178058833Y-117033333D01*
X178058833Y-117033333D02*
X177868357Y-117033333D01*
X177868357Y-117033333D02*
X177715976Y-117071429D01*
X177715976Y-117071429D02*
X177639785Y-117109524D01*
X177639785Y-117109524D02*
X177601690Y-117147619D01*
X177601690Y-117147619D02*
X177563595Y-117223810D01*
D11*
X180666666Y-106504819D02*
X180999999Y-106028628D01*
X181238094Y-106504819D02*
X181238094Y-105504819D01*
X181238094Y-105504819D02*
X180857142Y-105504819D01*
X180857142Y-105504819D02*
X180761904Y-105552438D01*
X180761904Y-105552438D02*
X180714285Y-105600057D01*
X180714285Y-105600057D02*
X180666666Y-105695295D01*
X180666666Y-105695295D02*
X180666666Y-105838152D01*
X180666666Y-105838152D02*
X180714285Y-105933390D01*
X180714285Y-105933390D02*
X180761904Y-105981009D01*
X180761904Y-105981009D02*
X180857142Y-106028628D01*
X180857142Y-106028628D02*
X181238094Y-106028628D01*
X180285713Y-105600057D02*
X180238094Y-105552438D01*
X180238094Y-105552438D02*
X180142856Y-105504819D01*
X180142856Y-105504819D02*
X179904761Y-105504819D01*
X179904761Y-105504819D02*
X179809523Y-105552438D01*
X179809523Y-105552438D02*
X179761904Y-105600057D01*
X179761904Y-105600057D02*
X179714285Y-105695295D01*
X179714285Y-105695295D02*
X179714285Y-105790533D01*
X179714285Y-105790533D02*
X179761904Y-105933390D01*
X179761904Y-105933390D02*
X180333332Y-106504819D01*
X180333332Y-106504819D02*
X179714285Y-106504819D01*
X178062295Y-105352380D02*
X178062295Y-105847618D01*
X178062295Y-105847618D02*
X178367057Y-105580952D01*
X178367057Y-105580952D02*
X178367057Y-105695237D01*
X178367057Y-105695237D02*
X178405152Y-105771428D01*
X178405152Y-105771428D02*
X178443247Y-105809523D01*
X178443247Y-105809523D02*
X178519438Y-105847618D01*
X178519438Y-105847618D02*
X178709914Y-105847618D01*
X178709914Y-105847618D02*
X178786104Y-105809523D01*
X178786104Y-105809523D02*
X178824200Y-105771428D01*
X178824200Y-105771428D02*
X178862295Y-105695237D01*
X178862295Y-105695237D02*
X178862295Y-105466666D01*
X178862295Y-105466666D02*
X178824200Y-105390475D01*
X178824200Y-105390475D02*
X178786104Y-105352380D01*
X178862295Y-106228571D02*
X178862295Y-106380952D01*
X178862295Y-106380952D02*
X178824200Y-106457142D01*
X178824200Y-106457142D02*
X178786104Y-106495238D01*
X178786104Y-106495238D02*
X178671819Y-106571428D01*
X178671819Y-106571428D02*
X178519438Y-106609523D01*
X178519438Y-106609523D02*
X178214676Y-106609523D01*
X178214676Y-106609523D02*
X178138485Y-106571428D01*
X178138485Y-106571428D02*
X178100390Y-106533333D01*
X178100390Y-106533333D02*
X178062295Y-106457142D01*
X178062295Y-106457142D02*
X178062295Y-106304761D01*
X178062295Y-106304761D02*
X178100390Y-106228571D01*
X178100390Y-106228571D02*
X178138485Y-106190476D01*
X178138485Y-106190476D02*
X178214676Y-106152380D01*
X178214676Y-106152380D02*
X178405152Y-106152380D01*
X178405152Y-106152380D02*
X178481342Y-106190476D01*
X178481342Y-106190476D02*
X178519438Y-106228571D01*
X178519438Y-106228571D02*
X178557533Y-106304761D01*
X178557533Y-106304761D02*
X178557533Y-106457142D01*
X178557533Y-106457142D02*
X178519438Y-106533333D01*
X178519438Y-106533333D02*
X178481342Y-106571428D01*
X178481342Y-106571428D02*
X178405152Y-106609523D01*
X177004819Y-110333333D02*
X176528628Y-110000000D01*
X177004819Y-109761905D02*
X176004819Y-109761905D01*
X176004819Y-109761905D02*
X176004819Y-110142857D01*
X176004819Y-110142857D02*
X176052438Y-110238095D01*
X176052438Y-110238095D02*
X176100057Y-110285714D01*
X176100057Y-110285714D02*
X176195295Y-110333333D01*
X176195295Y-110333333D02*
X176338152Y-110333333D01*
X176338152Y-110333333D02*
X176433390Y-110285714D01*
X176433390Y-110285714D02*
X176481009Y-110238095D01*
X176481009Y-110238095D02*
X176528628Y-110142857D01*
X176528628Y-110142857D02*
X176528628Y-109761905D01*
X177004819Y-111285714D02*
X177004819Y-110714286D01*
X177004819Y-111000000D02*
X176004819Y-111000000D01*
X176004819Y-111000000D02*
X176147676Y-110904762D01*
X176147676Y-110904762D02*
X176242914Y-110809524D01*
X176242914Y-110809524D02*
X176290533Y-110714286D01*
X177407143Y-113142295D02*
X177864286Y-113142295D01*
X177635714Y-113142295D02*
X177635714Y-112342295D01*
X177635714Y-112342295D02*
X177711905Y-112456580D01*
X177711905Y-112456580D02*
X177788095Y-112532771D01*
X177788095Y-112532771D02*
X177864286Y-112570866D01*
X176911904Y-112342295D02*
X176835714Y-112342295D01*
X176835714Y-112342295D02*
X176759523Y-112380390D01*
X176759523Y-112380390D02*
X176721428Y-112418485D01*
X176721428Y-112418485D02*
X176683333Y-112494676D01*
X176683333Y-112494676D02*
X176645238Y-112647057D01*
X176645238Y-112647057D02*
X176645238Y-112837533D01*
X176645238Y-112837533D02*
X176683333Y-112989914D01*
X176683333Y-112989914D02*
X176721428Y-113066104D01*
X176721428Y-113066104D02*
X176759523Y-113104200D01*
X176759523Y-113104200D02*
X176835714Y-113142295D01*
X176835714Y-113142295D02*
X176911904Y-113142295D01*
X176911904Y-113142295D02*
X176988095Y-113104200D01*
X176988095Y-113104200D02*
X177026190Y-113066104D01*
X177026190Y-113066104D02*
X177064285Y-112989914D01*
X177064285Y-112989914D02*
X177102381Y-112837533D01*
X177102381Y-112837533D02*
X177102381Y-112647057D01*
X177102381Y-112647057D02*
X177064285Y-112494676D01*
X177064285Y-112494676D02*
X177026190Y-112418485D01*
X177026190Y-112418485D02*
X176988095Y-112380390D01*
X176988095Y-112380390D02*
X176911904Y-112342295D01*
X176149999Y-112342295D02*
X176073809Y-112342295D01*
X176073809Y-112342295D02*
X175997618Y-112380390D01*
X175997618Y-112380390D02*
X175959523Y-112418485D01*
X175959523Y-112418485D02*
X175921428Y-112494676D01*
X175921428Y-112494676D02*
X175883333Y-112647057D01*
X175883333Y-112647057D02*
X175883333Y-112837533D01*
X175883333Y-112837533D02*
X175921428Y-112989914D01*
X175921428Y-112989914D02*
X175959523Y-113066104D01*
X175959523Y-113066104D02*
X175997618Y-113104200D01*
X175997618Y-113104200D02*
X176073809Y-113142295D01*
X176073809Y-113142295D02*
X176149999Y-113142295D01*
X176149999Y-113142295D02*
X176226190Y-113104200D01*
X176226190Y-113104200D02*
X176264285Y-113066104D01*
X176264285Y-113066104D02*
X176302380Y-112989914D01*
X176302380Y-112989914D02*
X176340476Y-112837533D01*
X176340476Y-112837533D02*
X176340476Y-112647057D01*
X176340476Y-112647057D02*
X176302380Y-112494676D01*
X176302380Y-112494676D02*
X176264285Y-112418485D01*
X176264285Y-112418485D02*
X176226190Y-112380390D01*
X176226190Y-112380390D02*
X176149999Y-112342295D01*
X175540475Y-113142295D02*
X175540475Y-112342295D01*
X175464285Y-112837533D02*
X175235713Y-113142295D01*
X175235713Y-112608961D02*
X175540475Y-112913723D01*
D13*
%TO.C,G\u002A\u002A\u002A*%
G36*
X175349558Y-113947988D02*
G01*
X175349558Y-114396663D01*
X175274779Y-114396663D01*
X175200000Y-114396663D01*
X175200000Y-113947988D01*
X175200000Y-113499313D01*
X175274779Y-113499313D01*
X175349558Y-113499313D01*
X175349558Y-113947988D01*
G37*
G36*
X174880930Y-114924460D02*
G01*
X174900883Y-114957507D01*
X174896540Y-114974944D01*
X174863493Y-114994896D01*
X174846057Y-114990553D01*
X174826104Y-114957507D01*
X174830447Y-114940070D01*
X174863493Y-114920117D01*
X174880930Y-114924460D01*
G37*
G36*
X175703501Y-114924460D02*
G01*
X175723454Y-114957507D01*
X175719111Y-114974944D01*
X175686065Y-114994896D01*
X175668628Y-114990553D01*
X175648675Y-114957507D01*
X175653018Y-114940070D01*
X175686065Y-114920117D01*
X175703501Y-114924460D01*
G37*
G36*
X174526987Y-115967026D02*
G01*
X174526987Y-116266143D01*
X174452208Y-116266143D01*
X174377429Y-116266143D01*
X174377429Y-115967026D01*
X174377429Y-115667909D01*
X174452208Y-115667909D01*
X174526987Y-115667909D01*
X174526987Y-115967026D01*
G37*
G36*
X175349558Y-115929636D02*
G01*
X175349558Y-116266143D01*
X175274779Y-116266143D01*
X175200000Y-116266143D01*
X175200000Y-115929636D01*
X175200000Y-115593130D01*
X175274779Y-115593130D01*
X175349558Y-115593130D01*
X175349558Y-115929636D01*
G37*
G36*
X174504692Y-116423407D02*
G01*
X174526987Y-116453091D01*
X174511576Y-116479333D01*
X174452208Y-116490480D01*
X174399724Y-116482775D01*
X174377429Y-116453091D01*
X174392840Y-116426849D01*
X174452208Y-116415701D01*
X174504692Y-116423407D01*
G37*
G36*
X176172129Y-116079195D02*
G01*
X176172129Y-116490480D01*
X176097350Y-116490480D01*
X176022571Y-116490480D01*
X176022571Y-116079195D01*
X176022571Y-115667909D01*
X176097350Y-115667909D01*
X176172129Y-115667909D01*
X176172129Y-116079195D01*
G37*
G36*
X174504692Y-116572965D02*
G01*
X174526987Y-116602649D01*
X174511576Y-116628891D01*
X174452208Y-116640039D01*
X174399724Y-116632333D01*
X174377429Y-116602649D01*
X174392840Y-116576407D01*
X174452208Y-116565260D01*
X174504692Y-116572965D01*
G37*
G36*
X176149835Y-116572965D02*
G01*
X176172129Y-116602649D01*
X176156718Y-116628891D01*
X176097350Y-116640039D01*
X176044866Y-116632333D01*
X176022571Y-116602649D01*
X176037983Y-116576407D01*
X176097350Y-116565260D01*
X176149835Y-116572965D01*
G37*
G36*
X176149835Y-116797303D02*
G01*
X176172129Y-116826987D01*
X176156718Y-116853229D01*
X176097350Y-116864376D01*
X176044866Y-116856671D01*
X176022571Y-116826987D01*
X176037983Y-116800745D01*
X176097350Y-116789597D01*
X176149835Y-116797303D01*
G37*
G36*
X174656593Y-117317394D02*
G01*
X174676545Y-117350441D01*
X174672203Y-117367878D01*
X174639156Y-117387831D01*
X174621719Y-117383488D01*
X174601766Y-117350441D01*
X174606109Y-117333004D01*
X174639156Y-117313051D01*
X174656593Y-117317394D01*
G37*
G36*
X175927839Y-117317394D02*
G01*
X175947792Y-117350441D01*
X175943449Y-117367878D01*
X175910402Y-117387831D01*
X175892965Y-117383488D01*
X175873013Y-117350441D01*
X175877356Y-117333004D01*
X175910402Y-117313051D01*
X175927839Y-117317394D01*
G37*
G36*
X175723454Y-117350441D02*
G01*
X175723454Y-117462610D01*
X175312169Y-117462610D01*
X174900883Y-117462610D01*
X174900883Y-117350441D01*
X174900883Y-117238272D01*
X175312169Y-117238272D01*
X175723454Y-117238272D01*
X175723454Y-117350441D01*
G37*
G36*
X175927839Y-117541732D02*
G01*
X175947792Y-117574779D01*
X175943449Y-117592215D01*
X175910402Y-117612168D01*
X175892965Y-117607825D01*
X175873013Y-117574779D01*
X175877356Y-117557342D01*
X175910402Y-117537389D01*
X175927839Y-117541732D01*
G37*
G36*
X175314247Y-114473733D02*
G01*
X175343382Y-114493255D01*
X175349558Y-114546221D01*
X175347267Y-114585689D01*
X175327745Y-114614824D01*
X175274779Y-114621000D01*
X175235311Y-114618710D01*
X175206176Y-114599187D01*
X175200000Y-114546221D01*
X175202291Y-114506753D01*
X175221813Y-114477618D01*
X175274779Y-114471442D01*
X175314247Y-114473733D01*
G37*
G36*
X175314247Y-115296304D02*
G01*
X175343382Y-115315826D01*
X175349558Y-115368792D01*
X175347267Y-115408261D01*
X175327745Y-115437395D01*
X175274779Y-115443572D01*
X175235311Y-115441281D01*
X175206176Y-115421758D01*
X175200000Y-115368792D01*
X175202291Y-115329324D01*
X175221813Y-115300190D01*
X175274779Y-115294013D01*
X175314247Y-115296304D01*
G37*
G36*
X175125221Y-117649558D02*
G01*
X175125221Y-117761727D01*
X175424337Y-117761727D01*
X175723454Y-117761727D01*
X175723454Y-117873895D01*
X175723454Y-117986064D01*
X175424337Y-117986064D01*
X175125221Y-117986064D01*
X175125221Y-118135623D01*
X175125221Y-118285181D01*
X175013052Y-118285181D01*
X174900883Y-118285181D01*
X174900883Y-117911285D01*
X174900883Y-117537389D01*
X175013052Y-117537389D01*
X175125221Y-117537389D01*
X175125221Y-117649558D01*
G37*
G36*
X176290239Y-114920864D02*
G01*
X176380870Y-114924018D01*
X176436163Y-114930542D01*
X176463746Y-114941387D01*
X176471246Y-114957507D01*
X176465272Y-114972271D01*
X176440036Y-114983599D01*
X176387851Y-114990511D01*
X176301091Y-114993959D01*
X176172129Y-114994896D01*
X176054019Y-114994150D01*
X175963389Y-114990995D01*
X175908096Y-114984472D01*
X175880512Y-114973627D01*
X175873013Y-114957507D01*
X175878987Y-114942743D01*
X175904223Y-114931414D01*
X175956407Y-114924503D01*
X176043167Y-114921055D01*
X176172129Y-114920117D01*
X176290239Y-114920864D01*
G37*
G36*
X174391506Y-114920320D02*
G01*
X174512599Y-114921947D01*
X174594719Y-114925786D01*
X174644798Y-114932531D01*
X174669763Y-114942873D01*
X174676545Y-114957507D01*
X174674515Y-114966393D01*
X174658246Y-114978502D01*
X174619854Y-114986714D01*
X174552410Y-114991722D01*
X174448985Y-114994218D01*
X174302649Y-114994896D01*
X174213793Y-114994693D01*
X174092700Y-114993066D01*
X174010580Y-114989227D01*
X173960501Y-114982483D01*
X173935535Y-114972140D01*
X173928754Y-114957507D01*
X173930784Y-114948621D01*
X173947053Y-114936512D01*
X173985445Y-114928300D01*
X174052888Y-114923292D01*
X174156314Y-114920795D01*
X174302649Y-114920117D01*
X174391506Y-114920320D01*
G37*
G36*
X175723454Y-116527870D02*
G01*
X175723454Y-116640039D01*
X175536506Y-116640039D01*
X175349558Y-116640039D01*
X175349558Y-116789597D01*
X175349558Y-116939155D01*
X175536506Y-116939155D01*
X175723454Y-116939155D01*
X175723454Y-117051324D01*
X175723454Y-117163493D01*
X175312169Y-117163493D01*
X174900883Y-117163493D01*
X174900883Y-117051324D01*
X174900883Y-116939155D01*
X175050441Y-116939155D01*
X175200000Y-116939155D01*
X175200000Y-116789597D01*
X175200000Y-116640039D01*
X175050441Y-116640039D01*
X174900883Y-116640039D01*
X174900883Y-116527870D01*
X174900883Y-116415701D01*
X175312169Y-116415701D01*
X175723454Y-116415701D01*
X175723454Y-116527870D01*
G37*
G36*
X174651015Y-116047207D02*
G01*
X174660415Y-116067919D01*
X174667245Y-116109701D01*
X174671890Y-116178310D01*
X174674732Y-116279500D01*
X174676156Y-116419028D01*
X174676545Y-116602649D01*
X174676185Y-116780539D01*
X174674805Y-116921534D01*
X174672019Y-117023987D01*
X174667445Y-117093654D01*
X174660699Y-117136291D01*
X174651397Y-117157652D01*
X174639156Y-117163493D01*
X174627297Y-117158091D01*
X174617897Y-117137380D01*
X174611067Y-117095597D01*
X174606422Y-117026989D01*
X174603580Y-116925798D01*
X174602156Y-116786270D01*
X174601766Y-116602649D01*
X174602126Y-116424759D01*
X174603507Y-116283764D01*
X174606293Y-116181311D01*
X174610867Y-116111644D01*
X174617613Y-116069007D01*
X174626914Y-116047646D01*
X174639156Y-116041805D01*
X174651015Y-116047207D01*
G37*
G36*
X175573896Y-119182531D02*
G01*
X175576187Y-119221999D01*
X175595709Y-119251134D01*
X175648675Y-119257311D01*
X175723454Y-119257311D01*
X175723454Y-119519038D01*
X175723454Y-119780765D01*
X175611285Y-119780765D01*
X175499117Y-119780765D01*
X175499117Y-119556427D01*
X175499117Y-119332090D01*
X175312169Y-119332090D01*
X175125221Y-119332090D01*
X175125221Y-119556427D01*
X175125221Y-119780765D01*
X175013052Y-119780765D01*
X174900883Y-119780765D01*
X174900883Y-119519038D01*
X174901179Y-119450075D01*
X174903801Y-119353669D01*
X174910091Y-119294771D01*
X174921198Y-119265334D01*
X174938273Y-119257311D01*
X174964515Y-119241899D01*
X174975662Y-119182531D01*
X174975662Y-119107752D01*
X175274779Y-119107752D01*
X175573896Y-119107752D01*
X175573896Y-119182531D01*
G37*
G36*
X175915956Y-115968064D02*
G01*
X175926317Y-115979698D01*
X175934209Y-116008631D01*
X175939950Y-116060287D01*
X175943859Y-116140091D01*
X175946257Y-116253470D01*
X175947461Y-116405847D01*
X175947792Y-116602649D01*
X175947731Y-116697067D01*
X175947046Y-116873204D01*
X175945344Y-117007358D01*
X175942306Y-117104954D01*
X175937611Y-117171419D01*
X175930942Y-117212177D01*
X175921979Y-117232653D01*
X175910402Y-117238272D01*
X175904848Y-117237235D01*
X175894487Y-117225600D01*
X175886596Y-117196667D01*
X175880855Y-117145012D01*
X175876945Y-117065207D01*
X175874548Y-116951829D01*
X175873343Y-116799451D01*
X175873013Y-116602649D01*
X175873074Y-116508231D01*
X175873758Y-116332095D01*
X175875460Y-116197940D01*
X175878499Y-116100344D01*
X175883193Y-116033879D01*
X175889862Y-115993122D01*
X175898826Y-115972646D01*
X175910402Y-115967026D01*
X175915956Y-115968064D01*
G37*
G36*
X175314247Y-114772850D02*
G01*
X175343382Y-114792372D01*
X175349558Y-114845338D01*
X175350192Y-114873549D01*
X175360084Y-114905433D01*
X175392753Y-114917949D01*
X175461727Y-114920117D01*
X175509302Y-114921638D01*
X175559216Y-114932863D01*
X175573896Y-114957507D01*
X175569335Y-114973365D01*
X175535659Y-114990003D01*
X175461727Y-114994896D01*
X175419410Y-114995319D01*
X175371584Y-115001914D01*
X175352810Y-115023693D01*
X175349558Y-115069676D01*
X175347267Y-115109144D01*
X175327745Y-115138278D01*
X175274779Y-115144455D01*
X175235311Y-115142164D01*
X175206176Y-115122642D01*
X175200000Y-115069676D01*
X175197709Y-115030207D01*
X175178187Y-115001073D01*
X175125221Y-114994896D01*
X175072736Y-114987191D01*
X175050441Y-114957507D01*
X175065853Y-114931265D01*
X175125221Y-114920117D01*
X175164689Y-114917826D01*
X175193823Y-114898304D01*
X175200000Y-114845338D01*
X175202291Y-114805870D01*
X175221813Y-114776735D01*
X175274779Y-114770559D01*
X175314247Y-114772850D01*
G37*
G36*
X175723454Y-119967713D02*
G01*
X175723454Y-120079882D01*
X175611285Y-120079882D01*
X175499117Y-120079882D01*
X175499117Y-120229440D01*
X175499117Y-120378998D01*
X175611285Y-120378998D01*
X175723454Y-120378998D01*
X175723454Y-120491167D01*
X175723454Y-120603336D01*
X175386948Y-120603336D01*
X175348845Y-120603295D01*
X175222071Y-120602063D01*
X175136099Y-120598518D01*
X175083674Y-120591854D01*
X175057540Y-120581266D01*
X175050441Y-120565946D01*
X175035030Y-120539704D01*
X174975662Y-120528557D01*
X174900883Y-120528557D01*
X174900883Y-120229440D01*
X174900883Y-120079882D01*
X175125221Y-120079882D01*
X175125221Y-120229440D01*
X175125221Y-120378998D01*
X175200000Y-120378998D01*
X175274779Y-120378998D01*
X175274779Y-120229440D01*
X175274779Y-120079882D01*
X175200000Y-120079882D01*
X175125221Y-120079882D01*
X174900883Y-120079882D01*
X174900883Y-119930323D01*
X174975662Y-119930323D01*
X175028147Y-119922618D01*
X175050441Y-119892934D01*
X175050813Y-119888700D01*
X175061903Y-119874614D01*
X175093806Y-119865062D01*
X175153777Y-119859237D01*
X175200000Y-119857828D01*
X175249073Y-119856333D01*
X175386948Y-119855544D01*
X175723454Y-119855544D01*
X175723454Y-119967713D01*
G37*
G36*
X175584081Y-114099066D02*
G01*
X175633995Y-114110292D01*
X175648675Y-114134936D01*
X175664087Y-114161178D01*
X175723454Y-114172325D01*
X175762922Y-114174616D01*
X175792057Y-114194138D01*
X175798233Y-114247104D01*
X175805939Y-114299589D01*
X175835623Y-114321884D01*
X175853060Y-114326227D01*
X175873013Y-114359273D01*
X175888424Y-114385515D01*
X175947792Y-114396663D01*
X175987260Y-114398954D01*
X176016395Y-114418476D01*
X176022571Y-114471442D01*
X176030277Y-114523926D01*
X176059961Y-114546221D01*
X176086203Y-114561633D01*
X176097350Y-114621000D01*
X176105056Y-114673485D01*
X176134740Y-114695780D01*
X176152177Y-114700123D01*
X176172129Y-114733169D01*
X176156718Y-114759411D01*
X176097350Y-114770559D01*
X176057882Y-114768268D01*
X176028747Y-114748746D01*
X176022571Y-114695780D01*
X176014865Y-114643295D01*
X175985181Y-114621000D01*
X175958939Y-114605589D01*
X175947792Y-114546221D01*
X175945501Y-114506753D01*
X175925979Y-114477618D01*
X175873013Y-114471442D01*
X175820528Y-114463736D01*
X175798233Y-114434052D01*
X175793890Y-114416616D01*
X175760844Y-114396663D01*
X175734602Y-114381251D01*
X175723454Y-114321884D01*
X175722820Y-114293672D01*
X175712928Y-114261788D01*
X175680260Y-114249272D01*
X175611285Y-114247104D01*
X175563710Y-114245584D01*
X175513796Y-114234359D01*
X175499117Y-114209715D01*
X175494774Y-114192278D01*
X175461727Y-114172325D01*
X175444290Y-114167982D01*
X175424337Y-114134936D01*
X175428898Y-114119077D01*
X175462574Y-114102439D01*
X175536506Y-114097546D01*
X175584081Y-114099066D01*
G37*
G36*
X175060627Y-114099066D02*
G01*
X175110541Y-114110292D01*
X175125221Y-114134936D01*
X175120878Y-114152372D01*
X175087831Y-114172325D01*
X175070394Y-114176668D01*
X175050441Y-114209715D01*
X175045881Y-114225573D01*
X175012205Y-114242211D01*
X174938273Y-114247104D01*
X174895956Y-114247527D01*
X174848130Y-114254122D01*
X174829355Y-114275901D01*
X174826104Y-114321884D01*
X174818398Y-114374368D01*
X174788714Y-114396663D01*
X174771277Y-114401006D01*
X174751325Y-114434052D01*
X174735913Y-114460295D01*
X174676545Y-114471442D01*
X174637077Y-114473733D01*
X174607943Y-114493255D01*
X174601766Y-114546221D01*
X174594060Y-114598706D01*
X174564377Y-114621000D01*
X174538134Y-114636412D01*
X174526987Y-114695780D01*
X174524696Y-114735248D01*
X174505174Y-114764382D01*
X174452208Y-114770559D01*
X174399724Y-114762853D01*
X174377429Y-114733169D01*
X174381772Y-114715732D01*
X174414818Y-114695780D01*
X174441060Y-114680368D01*
X174452208Y-114621000D01*
X174459914Y-114568516D01*
X174489597Y-114546221D01*
X174515840Y-114530810D01*
X174526987Y-114471442D01*
X174529278Y-114431974D01*
X174548800Y-114402839D01*
X174601766Y-114396663D01*
X174654251Y-114388957D01*
X174676545Y-114359273D01*
X174680888Y-114341836D01*
X174713935Y-114321884D01*
X174740177Y-114306472D01*
X174751325Y-114247104D01*
X174753616Y-114207636D01*
X174773138Y-114178502D01*
X174826104Y-114172325D01*
X174878588Y-114164619D01*
X174900883Y-114134936D01*
X174905444Y-114119077D01*
X174939120Y-114102439D01*
X175013052Y-114097546D01*
X175060627Y-114099066D01*
G37*
G36*
X175723454Y-118659077D02*
G01*
X175723454Y-118958194D01*
X175648675Y-118958194D01*
X175596191Y-118965900D01*
X175573896Y-118995583D01*
X175573601Y-119000088D01*
X175557804Y-119019922D01*
X175511179Y-119030101D01*
X175424337Y-119032973D01*
X175406317Y-119032899D01*
X175326981Y-119028950D01*
X175286265Y-119017294D01*
X175274779Y-118995583D01*
X175270436Y-118978147D01*
X175237389Y-118958194D01*
X175223036Y-118953910D01*
X175209036Y-118927739D01*
X175201958Y-118869856D01*
X175200000Y-118771246D01*
X175199143Y-118699481D01*
X175193909Y-118629480D01*
X175182332Y-118594091D01*
X175162610Y-118584298D01*
X175159893Y-118584416D01*
X175142594Y-118595600D01*
X175131996Y-118631018D01*
X175126678Y-118699190D01*
X175125221Y-118808635D01*
X175125221Y-119032973D01*
X175013052Y-119032973D01*
X174900883Y-119032973D01*
X174900883Y-118733856D01*
X174900883Y-118434739D01*
X174975662Y-118434739D01*
X175028147Y-118427034D01*
X175050441Y-118397350D01*
X175055002Y-118381491D01*
X175088678Y-118364853D01*
X175162610Y-118359960D01*
X175210185Y-118361480D01*
X175260099Y-118372706D01*
X175274779Y-118397350D01*
X175290191Y-118423592D01*
X175349558Y-118434739D01*
X175424337Y-118434739D01*
X175424337Y-118621687D01*
X175425194Y-118693452D01*
X175430428Y-118763453D01*
X175442005Y-118798842D01*
X175461727Y-118808635D01*
X175464444Y-118808517D01*
X175481743Y-118797333D01*
X175492342Y-118761915D01*
X175497660Y-118693743D01*
X175499117Y-118584298D01*
X175499117Y-118359960D01*
X175611285Y-118359960D01*
X175723454Y-118359960D01*
X175723454Y-118659077D01*
G37*
G36*
X175723454Y-120827674D02*
G01*
X175723454Y-120902453D01*
X175499117Y-120902453D01*
X175482814Y-120902473D01*
X175379019Y-120904336D01*
X175315428Y-120910240D01*
X175283521Y-120921602D01*
X175274779Y-120939842D01*
X175279122Y-120957279D01*
X175312169Y-120977232D01*
X175329605Y-120981575D01*
X175349558Y-121014622D01*
X175364970Y-121040864D01*
X175424337Y-121052011D01*
X175476822Y-121059717D01*
X175499117Y-121089401D01*
X175503460Y-121106838D01*
X175536506Y-121126790D01*
X175562748Y-121142202D01*
X175573896Y-121201570D01*
X175576187Y-121241038D01*
X175595709Y-121270172D01*
X175648675Y-121276349D01*
X175676886Y-121276983D01*
X175708770Y-121286875D01*
X175721286Y-121319543D01*
X175723454Y-121388518D01*
X175723454Y-121500686D01*
X175312169Y-121500686D01*
X174900883Y-121500686D01*
X174900883Y-121388518D01*
X174900883Y-121276349D01*
X175125221Y-121276349D01*
X175141523Y-121276329D01*
X175245318Y-121274465D01*
X175308909Y-121268562D01*
X175340816Y-121257200D01*
X175349558Y-121238959D01*
X175345215Y-121221522D01*
X175312169Y-121201570D01*
X175294732Y-121197227D01*
X175274779Y-121164180D01*
X175259367Y-121137938D01*
X175200000Y-121126790D01*
X175147515Y-121119085D01*
X175125221Y-121089401D01*
X175120878Y-121071964D01*
X175087831Y-121052011D01*
X175070394Y-121047668D01*
X175050441Y-121014622D01*
X175035030Y-120988379D01*
X174975662Y-120977232D01*
X174947451Y-120976598D01*
X174915567Y-120966706D01*
X174903051Y-120934038D01*
X174900883Y-120865063D01*
X174900883Y-120752894D01*
X175312169Y-120752894D01*
X175723454Y-120752894D01*
X175723454Y-120827674D01*
G37*
G36*
X174491676Y-115146746D02*
G01*
X174520811Y-115166268D01*
X174526987Y-115219234D01*
X174534693Y-115271718D01*
X174564377Y-115294013D01*
X174581813Y-115298356D01*
X174601766Y-115331403D01*
X174606109Y-115348840D01*
X174639156Y-115368792D01*
X174656593Y-115373135D01*
X174676545Y-115406182D01*
X174680888Y-115423619D01*
X174713935Y-115443572D01*
X174731372Y-115447915D01*
X174751325Y-115480961D01*
X174755668Y-115498398D01*
X174788714Y-115518351D01*
X174806151Y-115522694D01*
X174826104Y-115555740D01*
X174830447Y-115573177D01*
X174863493Y-115593130D01*
X174880930Y-115597473D01*
X174900883Y-115630520D01*
X174905226Y-115647956D01*
X174938273Y-115667909D01*
X174955709Y-115672252D01*
X174975662Y-115705299D01*
X174991074Y-115731541D01*
X175050441Y-115742688D01*
X175102926Y-115750394D01*
X175125221Y-115780078D01*
X175120660Y-115795936D01*
X175086984Y-115812574D01*
X175013052Y-115817468D01*
X174965477Y-115815947D01*
X174915563Y-115804722D01*
X174900883Y-115780078D01*
X174896540Y-115762641D01*
X174863493Y-115742688D01*
X174846057Y-115738345D01*
X174826104Y-115705299D01*
X174821761Y-115687862D01*
X174788714Y-115667909D01*
X174771277Y-115663566D01*
X174751325Y-115630520D01*
X174746982Y-115613083D01*
X174713935Y-115593130D01*
X174696498Y-115588787D01*
X174676545Y-115555740D01*
X174672203Y-115538304D01*
X174639156Y-115518351D01*
X174621719Y-115514008D01*
X174601766Y-115480961D01*
X174597423Y-115463524D01*
X174564377Y-115443572D01*
X174546940Y-115439229D01*
X174526987Y-115406182D01*
X174522644Y-115388745D01*
X174489597Y-115368792D01*
X174463355Y-115353381D01*
X174452208Y-115294013D01*
X174444502Y-115241529D01*
X174414818Y-115219234D01*
X174397381Y-115214891D01*
X174377429Y-115181844D01*
X174392840Y-115155602D01*
X174452208Y-115144455D01*
X174491676Y-115146746D01*
G37*
G36*
X176149835Y-115152161D02*
G01*
X176172129Y-115181844D01*
X176167786Y-115199281D01*
X176134740Y-115219234D01*
X176108498Y-115234646D01*
X176097350Y-115294013D01*
X176089644Y-115346498D01*
X176059961Y-115368792D01*
X176042524Y-115373135D01*
X176022571Y-115406182D01*
X176018228Y-115423619D01*
X175985181Y-115443572D01*
X175967745Y-115447915D01*
X175947792Y-115480961D01*
X175943449Y-115498398D01*
X175910402Y-115518351D01*
X175892965Y-115522694D01*
X175873013Y-115555740D01*
X175868670Y-115573177D01*
X175835623Y-115593130D01*
X175818186Y-115597473D01*
X175798233Y-115630520D01*
X175793890Y-115647956D01*
X175760844Y-115667909D01*
X175743407Y-115672252D01*
X175723454Y-115705299D01*
X175719111Y-115722736D01*
X175686065Y-115742688D01*
X175668628Y-115747031D01*
X175648675Y-115780078D01*
X175644114Y-115795936D01*
X175610438Y-115812574D01*
X175536506Y-115817468D01*
X175488931Y-115815947D01*
X175439017Y-115804722D01*
X175424337Y-115780078D01*
X175439749Y-115753836D01*
X175499117Y-115742688D01*
X175551601Y-115734983D01*
X175573896Y-115705299D01*
X175578239Y-115687862D01*
X175611285Y-115667909D01*
X175628722Y-115663566D01*
X175648675Y-115630520D01*
X175653018Y-115613083D01*
X175686065Y-115593130D01*
X175703501Y-115588787D01*
X175723454Y-115555740D01*
X175727797Y-115538304D01*
X175760844Y-115518351D01*
X175778281Y-115514008D01*
X175798233Y-115480961D01*
X175802576Y-115463524D01*
X175835623Y-115443572D01*
X175853060Y-115439229D01*
X175873013Y-115406182D01*
X175877356Y-115388745D01*
X175910402Y-115368792D01*
X175927839Y-115364449D01*
X175947792Y-115331403D01*
X175952135Y-115313966D01*
X175985181Y-115294013D01*
X176011424Y-115278602D01*
X176022571Y-115219234D01*
X176024862Y-115179766D01*
X176044384Y-115150631D01*
X176097350Y-115144455D01*
X176149835Y-115152161D01*
G37*
G36*
X175664978Y-113723670D02*
G01*
X175768772Y-113725534D01*
X175832363Y-113731437D01*
X175864270Y-113742799D01*
X175873013Y-113761040D01*
X175888424Y-113787282D01*
X175947792Y-113798429D01*
X175987260Y-113800720D01*
X176016395Y-113820242D01*
X176022571Y-113873208D01*
X176030277Y-113925693D01*
X176059961Y-113947988D01*
X176077397Y-113952331D01*
X176097350Y-113985377D01*
X176101693Y-114002814D01*
X176134740Y-114022767D01*
X176160982Y-114038178D01*
X176172129Y-114097546D01*
X176174420Y-114137014D01*
X176193942Y-114166149D01*
X176246909Y-114172325D01*
X176299393Y-114180031D01*
X176321688Y-114209715D01*
X176326031Y-114227152D01*
X176359077Y-114247104D01*
X176361794Y-114247223D01*
X176379094Y-114258406D01*
X176389692Y-114293824D01*
X176395010Y-114361997D01*
X176396467Y-114471442D01*
X176396447Y-114487745D01*
X176394583Y-114591539D01*
X176388680Y-114655130D01*
X176377318Y-114687037D01*
X176359077Y-114695780D01*
X176354572Y-114695485D01*
X176334738Y-114679688D01*
X176324559Y-114633063D01*
X176321688Y-114546221D01*
X176321614Y-114528201D01*
X176317665Y-114448865D01*
X176306009Y-114408149D01*
X176284298Y-114396663D01*
X176266861Y-114392320D01*
X176246909Y-114359273D01*
X176242566Y-114341836D01*
X176209519Y-114321884D01*
X176192082Y-114317541D01*
X176172129Y-114284494D01*
X176167786Y-114267057D01*
X176134740Y-114247104D01*
X176117303Y-114242762D01*
X176097350Y-114209715D01*
X176093007Y-114192278D01*
X176059961Y-114172325D01*
X176033718Y-114156914D01*
X176022571Y-114097546D01*
X176014865Y-114045062D01*
X175985181Y-114022767D01*
X175967745Y-114018424D01*
X175947792Y-113985377D01*
X175932380Y-113959135D01*
X175873013Y-113947988D01*
X175833544Y-113945697D01*
X175804410Y-113926175D01*
X175798233Y-113873208D01*
X175798233Y-113798429D01*
X175611285Y-113798429D01*
X175539520Y-113797573D01*
X175469520Y-113792338D01*
X175434130Y-113780762D01*
X175424337Y-113761040D01*
X175424456Y-113758323D01*
X175435639Y-113741023D01*
X175471057Y-113730425D01*
X175539229Y-113725107D01*
X175648675Y-113723650D01*
X175664978Y-113723670D01*
G37*
G36*
X174917186Y-113723670D02*
G01*
X175020980Y-113725534D01*
X175084571Y-113731437D01*
X175116478Y-113742799D01*
X175125221Y-113761040D01*
X175120937Y-113775393D01*
X175094766Y-113789393D01*
X175036883Y-113796471D01*
X174938273Y-113798429D01*
X174751325Y-113798429D01*
X174751325Y-113873208D01*
X174749034Y-113912677D01*
X174729512Y-113941811D01*
X174676545Y-113947988D01*
X174624061Y-113955693D01*
X174601766Y-113985377D01*
X174597423Y-114002814D01*
X174564377Y-114022767D01*
X174538134Y-114038178D01*
X174526987Y-114097546D01*
X174519281Y-114150030D01*
X174489597Y-114172325D01*
X174472161Y-114176668D01*
X174452208Y-114209715D01*
X174447865Y-114227152D01*
X174414818Y-114247104D01*
X174397381Y-114251447D01*
X174377429Y-114284494D01*
X174373086Y-114301931D01*
X174340039Y-114321884D01*
X174322602Y-114326227D01*
X174302649Y-114359273D01*
X174298307Y-114376710D01*
X174265260Y-114396663D01*
X174260755Y-114396958D01*
X174240921Y-114412755D01*
X174230742Y-114459379D01*
X174227870Y-114546221D01*
X174227797Y-114564241D01*
X174223847Y-114643577D01*
X174212191Y-114684294D01*
X174190481Y-114695780D01*
X174187764Y-114695661D01*
X174170464Y-114684478D01*
X174159866Y-114649060D01*
X174154548Y-114580888D01*
X174153091Y-114471442D01*
X174153111Y-114455139D01*
X174154975Y-114351345D01*
X174160878Y-114287754D01*
X174172240Y-114255847D01*
X174190481Y-114247104D01*
X174207918Y-114242762D01*
X174227870Y-114209715D01*
X174243282Y-114183473D01*
X174302649Y-114172325D01*
X174342118Y-114170034D01*
X174371252Y-114150512D01*
X174377429Y-114097546D01*
X174385134Y-114045062D01*
X174414818Y-114022767D01*
X174432255Y-114018424D01*
X174452208Y-113985377D01*
X174456551Y-113967940D01*
X174489597Y-113947988D01*
X174515840Y-113932576D01*
X174526987Y-113873208D01*
X174529278Y-113833740D01*
X174548800Y-113804606D01*
X174601766Y-113798429D01*
X174654251Y-113790724D01*
X174676545Y-113761040D01*
X174676664Y-113758323D01*
X174687847Y-113741023D01*
X174723265Y-113730425D01*
X174791438Y-113725107D01*
X174900883Y-113723650D01*
X174917186Y-113723670D01*
G37*
D14*
%TO.C,R7*%
X183645000Y-105326263D02*
X183645000Y-106773737D01*
X186355000Y-105326263D02*
X186355000Y-106773737D01*
%TO.C,R6*%
X189173737Y-109145000D02*
X187726263Y-109145000D01*
X189173737Y-111855000D02*
X187726263Y-111855000D01*
%TO.C,R5*%
X183173737Y-109145000D02*
X181726263Y-109145000D01*
X183173737Y-111855000D02*
X181726263Y-111855000D01*
%TO.C,R4*%
X185826263Y-117355000D02*
X187273737Y-117355000D01*
X185826263Y-114645000D02*
X187273737Y-114645000D01*
%TO.C,R3*%
X181723737Y-115145000D02*
X180276263Y-115145000D01*
X181723737Y-117855000D02*
X180276263Y-117855000D01*
%TO.C,R2*%
X181855000Y-106773737D02*
X181855000Y-105326263D01*
X179145000Y-106773737D02*
X179145000Y-105326263D01*
%TO.C,R1*%
X177273737Y-109145000D02*
X175826263Y-109145000D01*
X177273737Y-111855000D02*
X175826263Y-111855000D01*
%TO.C,JP3*%
X187000000Y-118100000D02*
X187000000Y-120900000D01*
X189000000Y-118100000D02*
X187000000Y-118100000D01*
X187000000Y-120900000D02*
X189000000Y-120900000D01*
X189000000Y-120900000D02*
X189000000Y-118100000D01*
%TO.C,JP2*%
X176000000Y-117950000D02*
X176000000Y-120750000D01*
X178000000Y-117950000D02*
X176000000Y-117950000D01*
X176000000Y-120750000D02*
X178000000Y-120750000D01*
X178000000Y-120750000D02*
X178000000Y-117950000D01*
%TD*%
M02*
